<?xml version="1.0" encoding="utf-8" ?>
<svg baseProfile="full" height="720px" version="1.1" width="720px" xmlns="http://www.w3.org/2000/svg" xmlns:ev="http://www.w3.org/2001/xml-events" xmlns:xlink="http://www.w3.org/1999/xlink"><defs /><rect fill="rgb(127,0,0)" height="41px" width="41px" x="0px" y="0px" /><rect fill="rgb(127,0,0)" height="41px" width="41px" x="40px" y="0px" /><rect fill="rgb(255,246,233)" height="41px" width="41px" x="80px" y="0px" /><rect fill="rgb(255,240,220)" height="41px" width="41px" x="120px" y="0px" /><rect fill="rgb(255,246,233)" height="41px" width="41px" x="160px" y="0px" /><rect fill="rgb(255,247,235)" height="41px" width="41px" x="200px" y="0px" /><rect fill="rgb(255,247,236)" height="41px" width="41px" x="240px" y="0px" /><rect fill="rgb(255,247,236)" height="41px" width="41px" x="280px" y="0px" /><rect fill="rgb(255,247,236)" height="41px" width="41px" x="320px" y="0px" /><rect fill="rgb(255,247,236)" height="41px" width="41px" x="360px" y="0px" /><rect fill="rgb(255,247,236)" height="41px" width="41px" x="400px" y="0px" /><rect fill="rgb(255,247,236)" height="41px" width="41px" x="440px" y="0px" /><rect fill="rgb(255,247,236)" height="41px" width="41px" x="480px" y="0px" /><rect fill="rgb(255,247,236)" height="41px" width="41px" x="520px" y="0px" /><rect fill="rgb(255,247,235)" height="41px" width="41px" x="560px" y="0px" /><rect fill="rgb(255,247,236)" height="41px" width="41px" x="600px" y="0px" /><rect fill="rgb(255,247,236)" height="41px" width="41px" x="640px" y="0px" /><rect fill="rgb(255,247,236)" height="41px" width="41px" x="680px" y="0px" /><rect fill="rgb(255,246,234)" height="41px" width="41px" x="0px" y="40px" /><rect fill="rgb(255,247,236)" height="41px" width="41px" x="40px" y="40px" /><rect fill="rgb(127,0,0)" height="41px" width="41px" x="80px" y="40px" /><rect fill="rgb(252,145,92)" height="41px" width="41px" x="120px" y="40px" /><rect fill="rgb(127,0,0)" height="41px" width="41px" x="160px" y="40px" /><rect fill="rgb(253,222,179)" height="41px" width="41px" x="200px" y="40px" /><rect fill="rgb(255,243,227)" height="41px" width="41px" x="240px" y="40px" /><rect fill="rgb(255,245,230)" height="41px" width="41px" x="280px" y="40px" /><rect fill="rgb(255,247,236)" height="41px" width="41px" x="320px" y="40px" /><rect fill="rgb(253,200,146)" height="41px" width="41px" x="360px" y="40px" /><rect fill="rgb(255,243,227)" height="41px" width="41px" x="400px" y="40px" /><rect fill="rgb(255,246,233)" height="41px" width="41px" x="440px" y="40px" /><rect fill="rgb(253,217,168)" height="41px" width="41px" x="480px" y="40px" /><rect fill="rgb(255,247,236)" height="41px" width="41px" x="520px" y="40px" /><rect fill="rgb(255,247,236)" height="41px" width="41px" x="560px" y="40px" /><rect fill="rgb(255,247,236)" height="41px" width="41px" x="600px" y="40px" /><rect fill="rgb(255,247,236)" height="41px" width="41px" x="640px" y="40px" /><rect fill="rgb(255,247,236)" height="41px" width="41px" x="680px" y="40px" /><rect fill="rgb(255,247,236)" height="41px" width="41px" x="0px" y="80px" /><rect fill="rgb(255,247,236)" height="41px" width="41px" x="40px" y="80px" /><rect fill="rgb(178,0,0)" height="41px" width="41px" x="80px" y="80px" /><rect fill="rgb(174,0,0)" height="41px" width="41px" x="120px" y="80px" /><rect fill="rgb(254,223,181)" height="41px" width="41px" x="160px" y="80px" /><rect fill="rgb(252,152,99)" height="41px" width="41px" x="200px" y="80px" /><rect fill="rgb(254,236,209)" height="41px" width="41px" x="240px" y="80px" /><rect fill="rgb(254,233,203)" height="41px" width="41px" x="280px" y="80px" /><rect fill="rgb(255,243,226)" height="41px" width="41px" x="320px" y="80px" /><rect fill="rgb(243,113,77)" height="41px" width="41px" x="360px" y="80px" /><rect fill="rgb(254,235,208)" height="41px" width="41px" x="400px" y="80px" /><rect fill="rgb(255,245,230)" height="41px" width="41px" x="440px" y="80px" /><rect fill="rgb(254,234,204)" height="41px" width="41px" x="480px" y="80px" /><rect fill="rgb(255,247,235)" height="41px" width="41px" x="520px" y="80px" /><rect fill="rgb(255,247,236)" height="41px" width="41px" x="560px" y="80px" /><rect fill="rgb(255,246,233)" height="41px" width="41px" x="600px" y="80px" /><rect fill="rgb(255,247,236)" height="41px" width="41px" x="640px" y="80px" /><rect fill="rgb(255,247,236)" height="41px" width="41px" x="680px" y="80px" /><rect fill="rgb(255,247,236)" height="41px" width="41px" x="0px" y="120px" /><rect fill="rgb(255,247,236)" height="41px" width="41px" x="40px" y="120px" /><rect fill="rgb(252,162,109)" height="41px" width="41px" x="80px" y="120px" /><rect fill="rgb(127,0,0)" height="41px" width="41px" x="120px" y="120px" /><rect fill="rgb(236,93,66)" height="41px" width="41px" x="160px" y="120px" /><rect fill="rgb(206,36,23)" height="41px" width="41px" x="200px" y="120px" /><rect fill="rgb(255,241,222)" height="41px" width="41px" x="240px" y="120px" /><rect fill="rgb(254,230,196)" height="41px" width="41px" x="280px" y="120px" /><rect fill="rgb(254,227,189)" height="41px" width="41px" x="320px" y="120px" /><rect fill="rgb(253,205,150)" height="41px" width="41px" x="360px" y="120px" /><rect fill="rgb(255,241,221)" height="41px" width="41px" x="400px" y="120px" /><rect fill="rgb(255,245,230)" height="41px" width="41px" x="440px" y="120px" /><rect fill="rgb(253,195,141)" height="41px" width="41px" x="480px" y="120px" /><rect fill="rgb(255,247,236)" height="41px" width="41px" x="520px" y="120px" /><rect fill="rgb(255,247,236)" height="41px" width="41px" x="560px" y="120px" /><rect fill="rgb(255,246,233)" height="41px" width="41px" x="600px" y="120px" /><rect fill="rgb(255,247,236)" height="41px" width="41px" x="640px" y="120px" /><rect fill="rgb(255,247,236)" height="41px" width="41px" x="680px" y="120px" /><rect fill="rgb(255,246,234)" height="41px" width="41px" x="0px" y="160px" /><rect fill="rgb(255,247,236)" height="41px" width="41px" x="40px" y="160px" /><rect fill="rgb(233,88,62)" height="41px" width="41px" x="80px" y="160px" /><rect fill="rgb(185,8,5)" height="41px" width="41px" x="120px" y="160px" /><rect fill="rgb(140,0,0)" height="41px" width="41px" x="160px" y="160px" /><rect fill="rgb(253,176,122)" height="41px" width="41px" x="200px" y="160px" /><rect fill="rgb(255,240,219)" height="41px" width="41px" x="240px" y="160px" /><rect fill="rgb(254,226,188)" height="41px" width="41px" x="280px" y="160px" /><rect fill="rgb(254,237,211)" height="41px" width="41px" x="320px" y="160px" /><rect fill="rgb(253,219,173)" height="41px" width="41px" x="360px" y="160px" /><rect fill="rgb(255,245,230)" height="41px" width="41px" x="400px" y="160px" /><rect fill="rgb(255,247,235)" height="41px" width="41px" x="440px" y="160px" /><rect fill="rgb(255,247,236)" height="41px" width="41px" x="480px" y="160px" /><rect fill="rgb(255,247,236)" height="41px" width="41px" x="520px" y="160px" /><rect fill="rgb(255,247,236)" height="41px" width="41px" x="560px" y="160px" /><rect fill="rgb(255,247,236)" height="41px" width="41px" x="600px" y="160px" /><rect fill="rgb(255,247,236)" height="41px" width="41px" x="640px" y="160px" /><rect fill="rgb(255,247,236)" height="41px" width="41px" x="680px" y="160px" /><rect fill="rgb(255,247,236)" height="41px" width="41px" x="0px" y="200px" /><rect fill="rgb(255,247,236)" height="41px" width="41px" x="40px" y="200px" /><rect fill="rgb(252,160,107)" height="41px" width="41px" x="80px" y="200px" /><rect fill="rgb(255,245,230)" height="41px" width="41px" x="120px" y="200px" /><rect fill="rgb(253,200,146)" height="41px" width="41px" x="160px" y="200px" /><rect fill="rgb(253,195,141)" height="41px" width="41px" x="200px" y="200px" /><rect fill="rgb(127,0,0)" height="41px" width="41px" x="240px" y="200px" /><rect fill="rgb(237,97,69)" height="41px" width="41px" x="280px" y="200px" /><rect fill="rgb(249,133,86)" height="41px" width="41px" x="320px" y="200px" /><rect fill="rgb(255,244,228)" height="41px" width="41px" x="360px" y="200px" /><rect fill="rgb(255,247,235)" height="41px" width="41px" x="400px" y="200px" /><rect fill="rgb(255,247,235)" height="41px" width="41px" x="440px" y="200px" /><rect fill="rgb(254,234,204)" height="41px" width="41px" x="480px" y="200px" /><rect fill="rgb(255,246,233)" height="41px" width="41px" x="520px" y="200px" /><rect fill="rgb(255,247,236)" height="41px" width="41px" x="560px" y="200px" /><rect fill="rgb(255,247,236)" height="41px" width="41px" x="600px" y="200px" /><rect fill="rgb(255,247,236)" height="41px" width="41px" x="640px" y="200px" /><rect fill="rgb(255,247,236)" height="41px" width="41px" x="680px" y="200px" /><rect fill="rgb(255,247,236)" height="41px" width="41px" x="0px" y="240px" /><rect fill="rgb(255,247,236)" height="41px" width="41px" x="40px" y="240px" /><rect fill="rgb(253,195,140)" height="41px" width="41px" x="80px" y="240px" /><rect fill="rgb(254,229,193)" height="41px" width="41px" x="120px" y="240px" /><rect fill="rgb(255,242,224)" height="41px" width="41px" x="160px" y="240px" /><rect fill="rgb(127,0,0)" height="41px" width="41px" x="200px" y="240px" /><rect fill="rgb(255,245,230)" height="41px" width="41px" x="240px" y="240px" /><rect fill="rgb(246,123,81)" height="41px" width="41px" x="280px" y="240px" /><rect fill="rgb(236,95,67)" height="41px" width="41px" x="320px" y="240px" /><rect fill="rgb(254,234,204)" height="41px" width="41px" x="360px" y="240px" /><rect fill="rgb(255,244,229)" height="41px" width="41px" x="400px" y="240px" /><rect fill="rgb(255,247,235)" height="41px" width="41px" x="440px" y="240px" /><rect fill="rgb(254,234,204)" height="41px" width="41px" x="480px" y="240px" /><rect fill="rgb(255,246,233)" height="41px" width="41px" x="520px" y="240px" /><rect fill="rgb(255,247,236)" height="41px" width="41px" x="560px" y="240px" /><rect fill="rgb(255,247,236)" height="41px" width="41px" x="600px" y="240px" /><rect fill="rgb(255,247,236)" height="41px" width="41px" x="640px" y="240px" /><rect fill="rgb(255,247,236)" height="41px" width="41px" x="680px" y="240px" /><rect fill="rgb(255,247,236)" height="41px" width="41px" x="0px" y="280px" /><rect fill="rgb(255,247,236)" height="41px" width="41px" x="40px" y="280px" /><rect fill="rgb(254,233,203)" height="41px" width="41px" x="80px" y="280px" /><rect fill="rgb(255,247,235)" height="41px" width="41px" x="120px" y="280px" /><rect fill="rgb(255,246,233)" height="41px" width="41px" x="160px" y="280px" /><rect fill="rgb(253,185,130)" height="41px" width="41px" x="200px" y="280px" /><rect fill="rgb(253,171,117)" height="41px" width="41px" x="240px" y="280px" /><rect fill="rgb(127,0,0)" height="41px" width="41px" x="280px" y="280px" /><rect fill="rgb(127,0,0)" height="41px" width="41px" x="320px" y="280px" /><rect fill="rgb(255,241,221)" height="41px" width="41px" x="360px" y="280px" /><rect fill="rgb(255,247,235)" height="41px" width="41px" x="400px" y="280px" /><rect fill="rgb(255,247,236)" height="41px" width="41px" x="440px" y="280px" /><rect fill="rgb(255,247,236)" height="41px" width="41px" x="480px" y="280px" /><rect fill="rgb(255,247,235)" height="41px" width="41px" x="520px" y="280px" /><rect fill="rgb(255,247,236)" height="41px" width="41px" x="560px" y="280px" /><rect fill="rgb(255,242,225)" height="41px" width="41px" x="600px" y="280px" /><rect fill="rgb(255,247,236)" height="41px" width="41px" x="640px" y="280px" /><rect fill="rgb(255,247,236)" height="41px" width="41px" x="680px" y="280px" /><rect fill="rgb(255,247,236)" height="41px" width="41px" x="0px" y="320px" /><rect fill="rgb(255,247,236)" height="41px" width="41px" x="40px" y="320px" /><rect fill="rgb(253,222,179)" height="41px" width="41px" x="80px" y="320px" /><rect fill="rgb(253,221,177)" height="41px" width="41px" x="120px" y="320px" /><rect fill="rgb(204,33,22)" height="41px" width="41px" x="160px" y="320px" /><rect fill="rgb(254,239,217)" height="41px" width="41px" x="200px" y="320px" /><rect fill="rgb(255,246,233)" height="41px" width="41px" x="240px" y="320px" /><rect fill="rgb(255,246,233)" height="41px" width="41px" x="280px" y="320px" /><rect fill="rgb(255,247,235)" height="41px" width="41px" x="320px" y="320px" /><rect fill="rgb(252,153,100)" height="41px" width="41px" x="360px" y="320px" /><rect fill="rgb(127,0,0)" height="41px" width="41px" x="400px" y="320px" /><rect fill="rgb(252,158,105)" height="41px" width="41px" x="440px" y="320px" /><rect fill="rgb(254,234,204)" height="41px" width="41px" x="480px" y="320px" /><rect fill="rgb(254,236,209)" height="41px" width="41px" x="520px" y="320px" /><rect fill="rgb(255,244,229)" height="41px" width="41px" x="560px" y="320px" /><rect fill="rgb(255,246,233)" height="41px" width="41px" x="600px" y="320px" /><rect fill="rgb(255,247,236)" height="41px" width="41px" x="640px" y="320px" /><rect fill="rgb(255,245,231)" height="41px" width="41px" x="680px" y="320px" /><rect fill="rgb(255,247,236)" height="41px" width="41px" x="0px" y="360px" /><rect fill="rgb(255,247,236)" height="41px" width="41px" x="40px" y="360px" /><rect fill="rgb(254,229,193)" height="41px" width="41px" x="80px" y="360px" /><rect fill="rgb(255,243,226)" height="41px" width="41px" x="120px" y="360px" /><rect fill="rgb(254,237,211)" height="41px" width="41px" x="160px" y="360px" /><rect fill="rgb(255,245,231)" height="41px" width="41px" x="200px" y="360px" /><rect fill="rgb(254,239,217)" height="41px" width="41px" x="240px" y="360px" /><rect fill="rgb(255,245,231)" height="41px" width="41px" x="280px" y="360px" /><rect fill="rgb(255,247,236)" height="41px" width="41px" x="320px" y="360px" /><rect fill="rgb(127,0,0)" height="41px" width="41px" x="360px" y="360px" /><rect fill="rgb(161,0,0)" height="41px" width="41px" x="400px" y="360px" /><rect fill="rgb(127,0,0)" height="41px" width="41px" x="440px" y="360px" /><rect fill="rgb(253,195,141)" height="41px" width="41px" x="480px" y="360px" /><rect fill="rgb(254,226,187)" height="41px" width="41px" x="520px" y="360px" /><rect fill="rgb(254,239,216)" height="41px" width="41px" x="560px" y="360px" /><rect fill="rgb(255,242,225)" height="41px" width="41px" x="600px" y="360px" /><rect fill="rgb(255,247,236)" height="41px" width="41px" x="640px" y="360px" /><rect fill="rgb(255,247,236)" height="41px" width="41px" x="680px" y="360px" /><rect fill="rgb(255,245,230)" height="41px" width="41px" x="0px" y="400px" /><rect fill="rgb(255,244,229)" height="41px" width="41px" x="40px" y="400px" /><rect fill="rgb(255,244,228)" height="41px" width="41px" x="80px" y="400px" /><rect fill="rgb(255,246,234)" height="41px" width="41px" x="120px" y="400px" /><rect fill="rgb(255,246,233)" height="41px" width="41px" x="160px" y="400px" /><rect fill="rgb(255,246,234)" height="41px" width="41px" x="200px" y="400px" /><rect fill="rgb(255,247,235)" height="41px" width="41px" x="240px" y="400px" /><rect fill="rgb(255,247,235)" height="41px" width="41px" x="280px" y="400px" /><rect fill="rgb(255,247,235)" height="41px" width="41px" x="320px" y="400px" /><rect fill="rgb(254,235,208)" height="41px" width="41px" x="360px" y="400px" /><rect fill="rgb(254,231,199)" height="41px" width="41px" x="400px" y="400px" /><rect fill="rgb(253,197,142)" height="41px" width="41px" x="440px" y="400px" /><rect fill="rgb(252,162,109)" height="41px" width="41px" x="480px" y="400px" /><rect fill="rgb(253,212,159)" height="41px" width="41px" x="520px" y="400px" /><rect fill="rgb(253,207,153)" height="41px" width="41px" x="560px" y="400px" /><rect fill="rgb(253,186,131)" height="41px" width="41px" x="600px" y="400px" /><rect fill="rgb(254,226,188)" height="41px" width="41px" x="640px" y="400px" /><rect fill="rgb(255,246,234)" height="41px" width="41px" x="680px" y="400px" /><rect fill="rgb(255,246,234)" height="41px" width="41px" x="0px" y="440px" /><rect fill="rgb(255,246,233)" height="41px" width="41px" x="40px" y="440px" /><rect fill="rgb(255,244,229)" height="41px" width="41px" x="80px" y="440px" /><rect fill="rgb(255,243,226)" height="41px" width="41px" x="120px" y="440px" /><rect fill="rgb(255,246,233)" height="41px" width="41px" x="160px" y="440px" /><rect fill="rgb(255,247,236)" height="41px" width="41px" x="200px" y="440px" /><rect fill="rgb(255,247,235)" height="41px" width="41px" x="240px" y="440px" /><rect fill="rgb(255,246,234)" height="41px" width="41px" x="280px" y="440px" /><rect fill="rgb(255,247,236)" height="41px" width="41px" x="320px" y="440px" /><rect fill="rgb(254,235,208)" height="41px" width="41px" x="360px" y="440px" /><rect fill="rgb(254,231,197)" height="41px" width="41px" x="400px" y="440px" /><rect fill="rgb(253,197,142)" height="41px" width="41px" x="440px" y="440px" /><rect fill="rgb(231,83,58)" height="41px" width="41px" x="480px" y="440px" /><rect fill="rgb(253,196,141)" height="41px" width="41px" x="520px" y="440px" /><rect fill="rgb(253,195,141)" height="41px" width="41px" x="560px" y="440px" /><rect fill="rgb(253,186,131)" height="41px" width="41px" x="600px" y="440px" /><rect fill="rgb(253,213,160)" height="41px" width="41px" x="640px" y="440px" /><rect fill="rgb(255,247,236)" height="41px" width="41px" x="680px" y="440px" /><rect fill="rgb(255,247,235)" height="41px" width="41px" x="0px" y="480px" /><rect fill="rgb(255,247,235)" height="41px" width="41px" x="40px" y="480px" /><rect fill="rgb(255,247,236)" height="41px" width="41px" x="80px" y="480px" /><rect fill="rgb(255,247,235)" height="41px" width="41px" x="120px" y="480px" /><rect fill="rgb(255,246,233)" height="41px" width="41px" x="160px" y="480px" /><rect fill="rgb(255,247,236)" height="41px" width="41px" x="200px" y="480px" /><rect fill="rgb(255,242,225)" height="41px" width="41px" x="240px" y="480px" /><rect fill="rgb(255,247,235)" height="41px" width="41px" x="280px" y="480px" /><rect fill="rgb(255,246,234)" height="41px" width="41px" x="320px" y="480px" /><rect fill="rgb(255,241,221)" height="41px" width="41px" x="360px" y="480px" /><rect fill="rgb(255,243,226)" height="41px" width="41px" x="400px" y="480px" /><rect fill="rgb(253,202,148)" height="41px" width="41px" x="440px" y="480px" /><rect fill="rgb(253,217,168)" height="41px" width="41px" x="480px" y="480px" /><rect fill="rgb(127,0,0)" height="41px" width="41px" x="520px" y="480px" /><rect fill="rgb(127,0,0)" height="41px" width="41px" x="560px" y="480px" /><rect fill="rgb(233,87,61)" height="41px" width="41px" x="600px" y="480px" /><rect fill="rgb(254,223,181)" height="41px" width="41px" x="640px" y="480px" /><rect fill="rgb(255,247,235)" height="41px" width="41px" x="680px" y="480px" /><rect fill="rgb(255,247,236)" height="41px" width="41px" x="0px" y="520px" /><rect fill="rgb(255,247,236)" height="41px" width="41px" x="40px" y="520px" /><rect fill="rgb(255,247,235)" height="41px" width="41px" x="80px" y="520px" /><rect fill="rgb(255,245,230)" height="41px" width="41px" x="120px" y="520px" /><rect fill="rgb(255,247,235)" height="41px" width="41px" x="160px" y="520px" /><rect fill="rgb(255,246,234)" height="41px" width="41px" x="200px" y="520px" /><rect fill="rgb(255,247,236)" height="41px" width="41px" x="240px" y="520px" /><rect fill="rgb(255,247,235)" height="41px" width="41px" x="280px" y="520px" /><rect fill="rgb(255,247,236)" height="41px" width="41px" x="320px" y="520px" /><rect fill="rgb(255,246,233)" height="41px" width="41px" x="360px" y="520px" /><rect fill="rgb(255,241,221)" height="41px" width="41px" x="400px" y="520px" /><rect fill="rgb(254,228,192)" height="41px" width="41px" x="440px" y="520px" /><rect fill="rgb(231,83,58)" height="41px" width="41px" x="480px" y="520px" /><rect fill="rgb(206,36,23)" height="41px" width="41px" x="520px" y="520px" /><rect fill="rgb(237,97,69)" height="41px" width="41px" x="560px" y="520px" /><rect fill="rgb(173,0,0)" height="41px" width="41px" x="600px" y="520px" /><rect fill="rgb(127,0,0)" height="41px" width="41px" x="640px" y="520px" /><rect fill="rgb(255,247,236)" height="41px" width="41px" x="680px" y="520px" /><rect fill="rgb(255,247,236)" height="41px" width="41px" x="0px" y="560px" /><rect fill="rgb(255,247,236)" height="41px" width="41px" x="40px" y="560px" /><rect fill="rgb(255,247,235)" height="41px" width="41px" x="80px" y="560px" /><rect fill="rgb(255,247,235)" height="41px" width="41px" x="120px" y="560px" /><rect fill="rgb(255,247,236)" height="41px" width="41px" x="160px" y="560px" /><rect fill="rgb(255,247,235)" height="41px" width="41px" x="200px" y="560px" /><rect fill="rgb(255,247,236)" height="41px" width="41px" x="240px" y="560px" /><rect fill="rgb(255,247,235)" height="41px" width="41px" x="280px" y="560px" /><rect fill="rgb(255,247,236)" height="41px" width="41px" x="320px" y="560px" /><rect fill="rgb(255,243,226)" height="41px" width="41px" x="360px" y="560px" /><rect fill="rgb(255,245,231)" height="41px" width="41px" x="400px" y="560px" /><rect fill="rgb(254,231,197)" height="41px" width="41px" x="440px" y="560px" /><rect fill="rgb(127,0,0)" height="41px" width="41px" x="480px" y="560px" /><rect fill="rgb(180,2,1)" height="41px" width="41px" x="520px" y="560px" /><rect fill="rgb(228,77,53)" height="41px" width="41px" x="560px" y="560px" /><rect fill="rgb(127,0,0)" height="41px" width="41px" x="600px" y="560px" /><rect fill="rgb(156,0,0)" height="41px" width="41px" x="640px" y="560px" /><rect fill="rgb(255,247,235)" height="41px" width="41px" x="680px" y="560px" /><rect fill="rgb(255,247,236)" height="41px" width="41px" x="0px" y="600px" /><rect fill="rgb(255,247,236)" height="41px" width="41px" x="40px" y="600px" /><rect fill="rgb(255,247,236)" height="41px" width="41px" x="80px" y="600px" /><rect fill="rgb(254,234,204)" height="41px" width="41px" x="120px" y="600px" /><rect fill="rgb(255,243,226)" height="41px" width="41px" x="160px" y="600px" /><rect fill="rgb(255,240,219)" height="41px" width="41px" x="200px" y="600px" /><rect fill="rgb(255,247,236)" height="41px" width="41px" x="240px" y="600px" /><rect fill="rgb(255,247,235)" height="41px" width="41px" x="280px" y="600px" /><rect fill="rgb(255,247,236)" height="41px" width="41px" x="320px" y="600px" /><rect fill="rgb(255,247,236)" height="41px" width="41px" x="360px" y="600px" /><rect fill="rgb(255,246,234)" height="41px" width="41px" x="400px" y="600px" /><rect fill="rgb(255,247,236)" height="41px" width="41px" x="440px" y="600px" /><rect fill="rgb(255,247,236)" height="41px" width="41px" x="480px" y="600px" /><rect fill="rgb(255,245,230)" height="41px" width="41px" x="520px" y="600px" /><rect fill="rgb(255,246,234)" height="41px" width="41px" x="560px" y="600px" /><rect fill="rgb(254,236,209)" height="41px" width="41px" x="600px" y="600px" /><rect fill="rgb(255,247,236)" height="41px" width="41px" x="640px" y="600px" /><rect fill="rgb(163,0,0)" height="41px" width="41px" x="680px" y="600px" /><rect fill="rgb(255,247,236)" height="41px" width="41px" x="0px" y="640px" /><rect fill="rgb(255,247,236)" height="41px" width="41px" x="40px" y="640px" /><rect fill="rgb(255,247,236)" height="41px" width="41px" x="80px" y="640px" /><rect fill="rgb(254,239,218)" height="41px" width="41px" x="120px" y="640px" /><rect fill="rgb(255,245,230)" height="41px" width="41px" x="160px" y="640px" /><rect fill="rgb(255,245,230)" height="41px" width="41px" x="200px" y="640px" /><rect fill="rgb(255,247,236)" height="41px" width="41px" x="240px" y="640px" /><rect fill="rgb(255,247,235)" height="41px" width="41px" x="280px" y="640px" /><rect fill="rgb(255,247,236)" height="41px" width="41px" x="320px" y="640px" /><rect fill="rgb(255,247,235)" height="41px" width="41px" x="360px" y="640px" /><rect fill="rgb(255,245,231)" height="41px" width="41px" x="400px" y="640px" /><rect fill="rgb(255,247,236)" height="41px" width="41px" x="440px" y="640px" /><rect fill="rgb(255,247,236)" height="41px" width="41px" x="480px" y="640px" /><rect fill="rgb(255,245,230)" height="41px" width="41px" x="520px" y="640px" /><rect fill="rgb(255,247,235)" height="41px" width="41px" x="560px" y="640px" /><rect fill="rgb(254,229,193)" height="41px" width="41px" x="600px" y="640px" /><rect fill="rgb(255,247,235)" height="41px" width="41px" x="640px" y="640px" /><rect fill="rgb(135,0,0)" height="41px" width="41px" x="680px" y="640px" /><rect fill="rgb(255,246,234)" height="41px" width="41px" x="0px" y="680px" /><rect fill="rgb(255,246,234)" height="41px" width="41px" x="40px" y="680px" /><rect fill="rgb(255,247,236)" height="41px" width="41px" x="80px" y="680px" /><rect fill="rgb(255,241,222)" height="41px" width="41px" x="120px" y="680px" /><rect fill="rgb(255,243,226)" height="41px" width="41px" x="160px" y="680px" /><rect fill="rgb(255,245,231)" height="41px" width="41px" x="200px" y="680px" /><rect fill="rgb(255,247,236)" height="41px" width="41px" x="240px" y="680px" /><rect fill="rgb(255,247,236)" height="41px" width="41px" x="280px" y="680px" /><rect fill="rgb(255,247,236)" height="41px" width="41px" x="320px" y="680px" /><rect fill="rgb(255,247,236)" height="41px" width="41px" x="360px" y="680px" /><rect fill="rgb(255,246,233)" height="41px" width="41px" x="400px" y="680px" /><rect fill="rgb(255,246,233)" height="41px" width="41px" x="440px" y="680px" /><rect fill="rgb(255,247,236)" height="41px" width="41px" x="480px" y="680px" /><rect fill="rgb(255,242,224)" height="41px" width="41px" x="520px" y="680px" /><rect fill="rgb(255,247,236)" height="41px" width="41px" x="560px" y="680px" /><rect fill="rgb(254,239,217)" height="41px" width="41px" x="600px" y="680px" /><rect fill="rgb(255,247,235)" height="41px" width="41px" x="640px" y="680px" /><rect fill="rgb(127,0,0)" height="41px" width="41px" x="680px" y="680px" /></svg>