<?xml version="1.0" encoding="utf-8" ?>
<svg baseProfile="full" height="320px" version="1.1" width="320px" xmlns="http://www.w3.org/2000/svg" xmlns:ev="http://www.w3.org/2001/xml-events" xmlns:xlink="http://www.w3.org/1999/xlink"><defs /><rect fill="rgb(127,0,0)" height="41px" width="41px" x="0px" y="0px" /><rect fill="rgb(253,193,138)" height="41px" width="41px" x="40px" y="0px" /><rect fill="rgb(253,173,119)" height="41px" width="41px" x="80px" y="0px" /><rect fill="rgb(253,218,171)" height="41px" width="41px" x="120px" y="0px" /><rect fill="rgb(255,245,231)" height="41px" width="41px" x="160px" y="0px" /><rect fill="rgb(255,247,236)" height="41px" width="41px" x="200px" y="0px" /><rect fill="rgb(254,223,180)" height="41px" width="41px" x="240px" y="0px" /><rect fill="rgb(255,247,236)" height="41px" width="41px" x="280px" y="0px" /><rect fill="rgb(253,221,177)" height="41px" width="41px" x="0px" y="40px" /><rect fill="rgb(127,0,0)" height="41px" width="41px" x="40px" y="40px" /><rect fill="rgb(127,0,0)" height="41px" width="41px" x="80px" y="40px" /><rect fill="rgb(127,0,0)" height="41px" width="41px" x="120px" y="40px" /><rect fill="rgb(255,241,222)" height="41px" width="41px" x="160px" y="40px" /><rect fill="rgb(255,247,236)" height="41px" width="41px" x="200px" y="40px" /><rect fill="rgb(255,245,231)" height="41px" width="41px" x="240px" y="40px" /><rect fill="rgb(255,246,234)" height="41px" width="41px" x="280px" y="40px" /><rect fill="rgb(255,246,233)" height="41px" width="41px" x="0px" y="80px" /><rect fill="rgb(254,223,181)" height="41px" width="41px" x="40px" y="80px" /><rect fill="rgb(253,173,119)" height="41px" width="41px" x="80px" y="80px" /><rect fill="rgb(252,159,106)" height="41px" width="41px" x="120px" y="80px" /><rect fill="rgb(255,245,231)" height="41px" width="41px" x="160px" y="80px" /><rect fill="rgb(255,247,236)" height="41px" width="41px" x="200px" y="80px" /><rect fill="rgb(255,247,236)" height="41px" width="41px" x="240px" y="80px" /><rect fill="rgb(255,247,236)" height="41px" width="41px" x="280px" y="80px" /><rect fill="rgb(255,245,231)" height="41px" width="41px" x="0px" y="120px" /><rect fill="rgb(255,242,225)" height="41px" width="41px" x="40px" y="120px" /><rect fill="rgb(228,77,53)" height="41px" width="41px" x="80px" y="120px" /><rect fill="rgb(252,160,107)" height="41px" width="41px" x="120px" y="120px" /><rect fill="rgb(127,0,0)" height="41px" width="41px" x="160px" y="120px" /><rect fill="rgb(255,241,222)" height="41px" width="41px" x="200px" y="120px" /><rect fill="rgb(255,247,235)" height="41px" width="41px" x="240px" y="120px" /><rect fill="rgb(255,247,236)" height="41px" width="41px" x="280px" y="120px" /><rect fill="rgb(255,244,229)" height="41px" width="41px" x="0px" y="160px" /><rect fill="rgb(255,245,230)" height="41px" width="41px" x="40px" y="160px" /><rect fill="rgb(254,226,188)" height="41px" width="41px" x="80px" y="160px" /><rect fill="rgb(255,243,226)" height="41px" width="41px" x="120px" y="160px" /><rect fill="rgb(253,219,173)" height="41px" width="41px" x="160px" y="160px" /><rect fill="rgb(127,0,0)" height="41px" width="41px" x="200px" y="160px" /><rect fill="rgb(254,232,200)" height="41px" width="41px" x="240px" y="160px" /><rect fill="rgb(255,242,224)" height="41px" width="41px" x="280px" y="160px" /><rect fill="rgb(255,247,235)" height="41px" width="41px" x="0px" y="200px" /><rect fill="rgb(255,247,236)" height="41px" width="41px" x="40px" y="200px" /><rect fill="rgb(255,245,230)" height="41px" width="41px" x="80px" y="200px" /><rect fill="rgb(255,247,235)" height="41px" width="41px" x="120px" y="200px" /><rect fill="rgb(255,244,228)" height="41px" width="41px" x="160px" y="200px" /><rect fill="rgb(253,196,141)" height="41px" width="41px" x="200px" y="200px" /><rect fill="rgb(255,244,229)" height="41px" width="41px" x="240px" y="200px" /><rect fill="rgb(255,247,235)" height="41px" width="41px" x="280px" y="200px" /><rect fill="rgb(255,247,236)" height="41px" width="41px" x="0px" y="240px" /><rect fill="rgb(255,241,221)" height="41px" width="41px" x="40px" y="240px" /><rect fill="rgb(255,247,236)" height="41px" width="41px" x="80px" y="240px" /><rect fill="rgb(255,242,225)" height="41px" width="41px" x="120px" y="240px" /><rect fill="rgb(255,246,234)" height="41px" width="41px" x="160px" y="240px" /><rect fill="rgb(255,246,234)" height="41px" width="41px" x="200px" y="240px" /><rect fill="rgb(127,0,0)" height="41px" width="41px" x="240px" y="240px" /><rect fill="rgb(255,246,233)" height="41px" width="41px" x="280px" y="240px" /><rect fill="rgb(255,247,236)" height="41px" width="41px" x="0px" y="280px" /><rect fill="rgb(255,246,234)" height="41px" width="41px" x="40px" y="280px" /><rect fill="rgb(255,247,235)" height="41px" width="41px" x="80px" y="280px" /><rect fill="rgb(255,241,221)" height="41px" width="41px" x="120px" y="280px" /><rect fill="rgb(255,247,236)" height="41px" width="41px" x="160px" y="280px" /><rect fill="rgb(255,247,236)" height="41px" width="41px" x="200px" y="280px" /><rect fill="rgb(255,247,235)" height="41px" width="41px" x="240px" y="280px" /><rect fill="rgb(127,0,0)" height="41px" width="41px" x="280px" y="280px" /></svg>