<?xml version="1.0" encoding="utf-8" ?>
<svg baseProfile="full" height="760px" version="1.1" width="760px" xmlns="http://www.w3.org/2000/svg" xmlns:ev="http://www.w3.org/2001/xml-events" xmlns:xlink="http://www.w3.org/1999/xlink"><defs /><rect fill="rgb(147,0,0)" height="41px" width="41px" x="0px" y="0px" /><rect fill="rgb(243,114,78)" height="41px" width="41px" x="40px" y="0px" /><rect fill="rgb(255,247,236)" height="41px" width="41px" x="80px" y="0px" /><rect fill="rgb(255,247,236)" height="41px" width="41px" x="120px" y="0px" /><rect fill="rgb(255,247,235)" height="41px" width="41px" x="160px" y="0px" /><rect fill="rgb(255,247,236)" height="41px" width="41px" x="200px" y="0px" /><rect fill="rgb(255,247,236)" height="41px" width="41px" x="240px" y="0px" /><rect fill="rgb(255,247,236)" height="41px" width="41px" x="280px" y="0px" /><rect fill="rgb(255,247,236)" height="41px" width="41px" x="320px" y="0px" /><rect fill="rgb(255,247,236)" height="41px" width="41px" x="360px" y="0px" /><rect fill="rgb(255,247,236)" height="41px" width="41px" x="400px" y="0px" /><rect fill="rgb(255,247,236)" height="41px" width="41px" x="440px" y="0px" /><rect fill="rgb(255,247,236)" height="41px" width="41px" x="480px" y="0px" /><rect fill="rgb(255,247,236)" height="41px" width="41px" x="520px" y="0px" /><rect fill="rgb(255,247,236)" height="41px" width="41px" x="560px" y="0px" /><rect fill="rgb(255,247,236)" height="41px" width="41px" x="600px" y="0px" /><rect fill="rgb(255,247,236)" height="41px" width="41px" x="640px" y="0px" /><rect fill="rgb(255,247,236)" height="41px" width="41px" x="680px" y="0px" /><rect fill="rgb(255,247,235)" height="41px" width="41px" x="720px" y="0px" /><rect fill="rgb(255,247,236)" height="41px" width="41px" x="0px" y="40px" /><rect fill="rgb(255,247,236)" height="41px" width="41px" x="40px" y="40px" /><rect fill="rgb(253,198,144)" height="41px" width="41px" x="80px" y="40px" /><rect fill="rgb(253,206,151)" height="41px" width="41px" x="120px" y="40px" /><rect fill="rgb(253,202,147)" height="41px" width="41px" x="160px" y="40px" /><rect fill="rgb(255,240,219)" height="41px" width="41px" x="200px" y="40px" /><rect fill="rgb(253,212,159)" height="41px" width="41px" x="240px" y="40px" /><rect fill="rgb(254,226,187)" height="41px" width="41px" x="280px" y="40px" /><rect fill="rgb(255,241,221)" height="41px" width="41px" x="320px" y="40px" /><rect fill="rgb(255,241,222)" height="41px" width="41px" x="360px" y="40px" /><rect fill="rgb(255,246,233)" height="41px" width="41px" x="400px" y="40px" /><rect fill="rgb(255,246,233)" height="41px" width="41px" x="440px" y="40px" /><rect fill="rgb(255,246,233)" height="41px" width="41px" x="480px" y="40px" /><rect fill="rgb(255,243,226)" height="41px" width="41px" x="520px" y="40px" /><rect fill="rgb(255,246,233)" height="41px" width="41px" x="560px" y="40px" /><rect fill="rgb(255,247,236)" height="41px" width="41px" x="600px" y="40px" /><rect fill="rgb(255,247,236)" height="41px" width="41px" x="640px" y="40px" /><rect fill="rgb(255,247,236)" height="41px" width="41px" x="680px" y="40px" /><rect fill="rgb(255,247,236)" height="41px" width="41px" x="720px" y="40px" /><rect fill="rgb(255,247,236)" height="41px" width="41px" x="0px" y="80px" /><rect fill="rgb(255,246,233)" height="41px" width="41px" x="40px" y="80px" /><rect fill="rgb(253,206,152)" height="41px" width="41px" x="80px" y="80px" /><rect fill="rgb(253,203,149)" height="41px" width="41px" x="120px" y="80px" /><rect fill="rgb(254,230,196)" height="41px" width="41px" x="160px" y="80px" /><rect fill="rgb(254,226,187)" height="41px" width="41px" x="200px" y="80px" /><rect fill="rgb(254,227,189)" height="41px" width="41px" x="240px" y="80px" /><rect fill="rgb(254,226,188)" height="41px" width="41px" x="280px" y="80px" /><rect fill="rgb(255,243,226)" height="41px" width="41px" x="320px" y="80px" /><rect fill="rgb(254,239,216)" height="41px" width="41px" x="360px" y="80px" /><rect fill="rgb(254,224,184)" height="41px" width="41px" x="400px" y="80px" /><rect fill="rgb(255,243,226)" height="41px" width="41px" x="440px" y="80px" /><rect fill="rgb(255,247,236)" height="41px" width="41px" x="480px" y="80px" /><rect fill="rgb(255,246,234)" height="41px" width="41px" x="520px" y="80px" /><rect fill="rgb(255,247,235)" height="41px" width="41px" x="560px" y="80px" /><rect fill="rgb(255,247,236)" height="41px" width="41px" x="600px" y="80px" /><rect fill="rgb(255,247,236)" height="41px" width="41px" x="640px" y="80px" /><rect fill="rgb(255,247,236)" height="41px" width="41px" x="680px" y="80px" /><rect fill="rgb(255,247,236)" height="41px" width="41px" x="720px" y="80px" /><rect fill="rgb(255,247,236)" height="41px" width="41px" x="0px" y="120px" /><rect fill="rgb(255,247,236)" height="41px" width="41px" x="40px" y="120px" /><rect fill="rgb(253,220,175)" height="41px" width="41px" x="80px" y="120px" /><rect fill="rgb(253,189,134)" height="41px" width="41px" x="120px" y="120px" /><rect fill="rgb(254,235,207)" height="41px" width="41px" x="160px" y="120px" /><rect fill="rgb(254,226,188)" height="41px" width="41px" x="200px" y="120px" /><rect fill="rgb(253,202,147)" height="41px" width="41px" x="240px" y="120px" /><rect fill="rgb(254,224,183)" height="41px" width="41px" x="280px" y="120px" /><rect fill="rgb(255,243,227)" height="41px" width="41px" x="320px" y="120px" /><rect fill="rgb(254,233,203)" height="41px" width="41px" x="360px" y="120px" /><rect fill="rgb(254,237,212)" height="41px" width="41px" x="400px" y="120px" /><rect fill="rgb(255,245,231)" height="41px" width="41px" x="440px" y="120px" /><rect fill="rgb(255,245,230)" height="41px" width="41px" x="480px" y="120px" /><rect fill="rgb(255,245,230)" height="41px" width="41px" x="520px" y="120px" /><rect fill="rgb(255,244,229)" height="41px" width="41px" x="560px" y="120px" /><rect fill="rgb(255,246,234)" height="41px" width="41px" x="600px" y="120px" /><rect fill="rgb(255,247,236)" height="41px" width="41px" x="640px" y="120px" /><rect fill="rgb(255,247,236)" height="41px" width="41px" x="680px" y="120px" /><rect fill="rgb(255,247,235)" height="41px" width="41px" x="720px" y="120px" /><rect fill="rgb(255,247,236)" height="41px" width="41px" x="0px" y="160px" /><rect fill="rgb(255,247,235)" height="41px" width="41px" x="40px" y="160px" /><rect fill="rgb(253,193,138)" height="41px" width="41px" x="80px" y="160px" /><rect fill="rgb(254,232,200)" height="41px" width="41px" x="120px" y="160px" /><rect fill="rgb(253,212,158)" height="41px" width="41px" x="160px" y="160px" /><rect fill="rgb(253,187,133)" height="41px" width="41px" x="200px" y="160px" /><rect fill="rgb(254,238,213)" height="41px" width="41px" x="240px" y="160px" /><rect fill="rgb(254,235,208)" height="41px" width="41px" x="280px" y="160px" /><rect fill="rgb(255,246,234)" height="41px" width="41px" x="320px" y="160px" /><rect fill="rgb(255,247,235)" height="41px" width="41px" x="360px" y="160px" /><rect fill="rgb(255,246,233)" height="41px" width="41px" x="400px" y="160px" /><rect fill="rgb(255,247,235)" height="41px" width="41px" x="440px" y="160px" /><rect fill="rgb(255,246,234)" height="41px" width="41px" x="480px" y="160px" /><rect fill="rgb(255,245,230)" height="41px" width="41px" x="520px" y="160px" /><rect fill="rgb(255,246,233)" height="41px" width="41px" x="560px" y="160px" /><rect fill="rgb(255,247,236)" height="41px" width="41px" x="600px" y="160px" /><rect fill="rgb(255,247,236)" height="41px" width="41px" x="640px" y="160px" /><rect fill="rgb(255,247,236)" height="41px" width="41px" x="680px" y="160px" /><rect fill="rgb(255,247,236)" height="41px" width="41px" x="720px" y="160px" /><rect fill="rgb(255,247,236)" height="41px" width="41px" x="0px" y="200px" /><rect fill="rgb(255,247,236)" height="41px" width="41px" x="40px" y="200px" /><rect fill="rgb(255,245,230)" height="41px" width="41px" x="80px" y="200px" /><rect fill="rgb(255,247,236)" height="41px" width="41px" x="120px" y="200px" /><rect fill="rgb(255,241,221)" height="41px" width="41px" x="160px" y="200px" /><rect fill="rgb(253,215,164)" height="41px" width="41px" x="200px" y="200px" /><rect fill="rgb(255,243,226)" height="41px" width="41px" x="240px" y="200px" /><rect fill="rgb(253,212,159)" height="41px" width="41px" x="280px" y="200px" /><rect fill="rgb(249,133,86)" height="41px" width="41px" x="320px" y="200px" /><rect fill="rgb(253,184,129)" height="41px" width="41px" x="360px" y="200px" /><rect fill="rgb(255,247,235)" height="41px" width="41px" x="400px" y="200px" /><rect fill="rgb(255,247,236)" height="41px" width="41px" x="440px" y="200px" /><rect fill="rgb(255,247,236)" height="41px" width="41px" x="480px" y="200px" /><rect fill="rgb(255,247,235)" height="41px" width="41px" x="520px" y="200px" /><rect fill="rgb(255,247,236)" height="41px" width="41px" x="560px" y="200px" /><rect fill="rgb(255,247,236)" height="41px" width="41px" x="600px" y="200px" /><rect fill="rgb(255,247,235)" height="41px" width="41px" x="640px" y="200px" /><rect fill="rgb(255,247,236)" height="41px" width="41px" x="680px" y="200px" /><rect fill="rgb(255,243,227)" height="41px" width="41px" x="720px" y="200px" /><rect fill="rgb(255,247,236)" height="41px" width="41px" x="0px" y="240px" /><rect fill="rgb(255,247,236)" height="41px" width="41px" x="40px" y="240px" /><rect fill="rgb(254,235,208)" height="41px" width="41px" x="80px" y="240px" /><rect fill="rgb(255,241,221)" height="41px" width="41px" x="120px" y="240px" /><rect fill="rgb(255,240,220)" height="41px" width="41px" x="160px" y="240px" /><rect fill="rgb(255,244,228)" height="41px" width="41px" x="200px" y="240px" /><rect fill="rgb(253,209,155)" height="41px" width="41px" x="240px" y="240px" /><rect fill="rgb(253,181,126)" height="41px" width="41px" x="280px" y="240px" /><rect fill="rgb(254,239,217)" height="41px" width="41px" x="320px" y="240px" /><rect fill="rgb(252,156,103)" height="41px" width="41px" x="360px" y="240px" /><rect fill="rgb(255,247,236)" height="41px" width="41px" x="400px" y="240px" /><rect fill="rgb(255,247,236)" height="41px" width="41px" x="440px" y="240px" /><rect fill="rgb(255,247,235)" height="41px" width="41px" x="480px" y="240px" /><rect fill="rgb(255,247,235)" height="41px" width="41px" x="520px" y="240px" /><rect fill="rgb(255,247,235)" height="41px" width="41px" x="560px" y="240px" /><rect fill="rgb(255,247,235)" height="41px" width="41px" x="600px" y="240px" /><rect fill="rgb(255,247,236)" height="41px" width="41px" x="640px" y="240px" /><rect fill="rgb(255,247,236)" height="41px" width="41px" x="680px" y="240px" /><rect fill="rgb(255,246,233)" height="41px" width="41px" x="720px" y="240px" /><rect fill="rgb(255,247,236)" height="41px" width="41px" x="0px" y="280px" /><rect fill="rgb(255,247,236)" height="41px" width="41px" x="40px" y="280px" /><rect fill="rgb(255,247,236)" height="41px" width="41px" x="80px" y="280px" /><rect fill="rgb(255,247,236)" height="41px" width="41px" x="120px" y="280px" /><rect fill="rgb(255,245,230)" height="41px" width="41px" x="160px" y="280px" /><rect fill="rgb(255,246,234)" height="41px" width="41px" x="200px" y="280px" /><rect fill="rgb(255,240,220)" height="41px" width="41px" x="240px" y="280px" /><rect fill="rgb(253,216,167)" height="41px" width="41px" x="280px" y="280px" /><rect fill="rgb(253,193,138)" height="41px" width="41px" x="320px" y="280px" /><rect fill="rgb(199,27,18)" height="41px" width="41px" x="360px" y="280px" /><rect fill="rgb(255,247,236)" height="41px" width="41px" x="400px" y="280px" /><rect fill="rgb(255,247,236)" height="41px" width="41px" x="440px" y="280px" /><rect fill="rgb(255,246,233)" height="41px" width="41px" x="480px" y="280px" /><rect fill="rgb(255,247,236)" height="41px" width="41px" x="520px" y="280px" /><rect fill="rgb(255,247,236)" height="41px" width="41px" x="560px" y="280px" /><rect fill="rgb(255,247,236)" height="41px" width="41px" x="600px" y="280px" /><rect fill="rgb(255,246,234)" height="41px" width="41px" x="640px" y="280px" /><rect fill="rgb(255,247,236)" height="41px" width="41px" x="680px" y="280px" /><rect fill="rgb(255,242,224)" height="41px" width="41px" x="720px" y="280px" /><rect fill="rgb(255,247,236)" height="41px" width="41px" x="0px" y="320px" /><rect fill="rgb(255,247,236)" height="41px" width="41px" x="40px" y="320px" /><rect fill="rgb(255,247,235)" height="41px" width="41px" x="80px" y="320px" /><rect fill="rgb(255,247,236)" height="41px" width="41px" x="120px" y="320px" /><rect fill="rgb(255,241,222)" height="41px" width="41px" x="160px" y="320px" /><rect fill="rgb(255,247,236)" height="41px" width="41px" x="200px" y="320px" /><rect fill="rgb(255,247,235)" height="41px" width="41px" x="240px" y="320px" /><rect fill="rgb(255,247,235)" height="41px" width="41px" x="280px" y="320px" /><rect fill="rgb(255,244,228)" height="41px" width="41px" x="320px" y="320px" /><rect fill="rgb(255,247,236)" height="41px" width="41px" x="360px" y="320px" /><rect fill="rgb(255,243,227)" height="41px" width="41px" x="400px" y="320px" /><rect fill="rgb(253,210,156)" height="41px" width="41px" x="440px" y="320px" /><rect fill="rgb(248,129,84)" height="41px" width="41px" x="480px" y="320px" /><rect fill="rgb(253,202,147)" height="41px" width="41px" x="520px" y="320px" /><rect fill="rgb(255,241,221)" height="41px" width="41px" x="560px" y="320px" /><rect fill="rgb(253,216,167)" height="41px" width="41px" x="600px" y="320px" /><rect fill="rgb(255,243,227)" height="41px" width="41px" x="640px" y="320px" /><rect fill="rgb(255,244,228)" height="41px" width="41px" x="680px" y="320px" /><rect fill="rgb(255,247,236)" height="41px" width="41px" x="720px" y="320px" /><rect fill="rgb(255,247,236)" height="41px" width="41px" x="0px" y="360px" /><rect fill="rgb(255,247,236)" height="41px" width="41px" x="40px" y="360px" /><rect fill="rgb(255,245,230)" height="41px" width="41px" x="80px" y="360px" /><rect fill="rgb(255,246,233)" height="41px" width="41px" x="120px" y="360px" /><rect fill="rgb(255,242,225)" height="41px" width="41px" x="160px" y="360px" /><rect fill="rgb(255,245,230)" height="41px" width="41px" x="200px" y="360px" /><rect fill="rgb(255,244,229)" height="41px" width="41px" x="240px" y="360px" /><rect fill="rgb(255,246,233)" height="41px" width="41px" x="280px" y="360px" /><rect fill="rgb(255,246,234)" height="41px" width="41px" x="320px" y="360px" /><rect fill="rgb(255,247,236)" height="41px" width="41px" x="360px" y="360px" /><rect fill="rgb(253,205,150)" height="41px" width="41px" x="400px" y="360px" /><rect fill="rgb(253,186,131)" height="41px" width="41px" x="440px" y="360px" /><rect fill="rgb(253,211,157)" height="41px" width="41px" x="480px" y="360px" /><rect fill="rgb(253,203,149)" height="41px" width="41px" x="520px" y="360px" /><rect fill="rgb(255,246,233)" height="41px" width="41px" x="560px" y="360px" /><rect fill="rgb(254,234,206)" height="41px" width="41px" x="600px" y="360px" /><rect fill="rgb(255,245,230)" height="41px" width="41px" x="640px" y="360px" /><rect fill="rgb(255,246,233)" height="41px" width="41px" x="680px" y="360px" /><rect fill="rgb(255,246,233)" height="41px" width="41px" x="720px" y="360px" /><rect fill="rgb(255,247,236)" height="41px" width="41px" x="0px" y="400px" /><rect fill="rgb(255,246,234)" height="41px" width="41px" x="40px" y="400px" /><rect fill="rgb(255,247,236)" height="41px" width="41px" x="80px" y="400px" /><rect fill="rgb(255,247,236)" height="41px" width="41px" x="120px" y="400px" /><rect fill="rgb(255,247,236)" height="41px" width="41px" x="160px" y="400px" /><rect fill="rgb(255,247,236)" height="41px" width="41px" x="200px" y="400px" /><rect fill="rgb(255,247,236)" height="41px" width="41px" x="240px" y="400px" /><rect fill="rgb(255,247,236)" height="41px" width="41px" x="280px" y="400px" /><rect fill="rgb(255,247,236)" height="41px" width="41px" x="320px" y="400px" /><rect fill="rgb(255,247,235)" height="41px" width="41px" x="360px" y="400px" /><rect fill="rgb(255,247,236)" height="41px" width="41px" x="400px" y="400px" /><rect fill="rgb(255,247,235)" height="41px" width="41px" x="440px" y="400px" /><rect fill="rgb(255,247,235)" height="41px" width="41px" x="480px" y="400px" /><rect fill="rgb(255,245,230)" height="41px" width="41px" x="520px" y="400px" /><rect fill="rgb(255,245,230)" height="41px" width="41px" x="560px" y="400px" /><rect fill="rgb(255,240,219)" height="41px" width="41px" x="600px" y="400px" /><rect fill="rgb(253,184,129)" height="41px" width="41px" x="640px" y="400px" /><rect fill="rgb(127,0,0)" height="41px" width="41px" x="680px" y="400px" /><rect fill="rgb(255,245,230)" height="41px" width="41px" x="720px" y="400px" /><rect fill="rgb(255,247,236)" height="41px" width="41px" x="0px" y="440px" /><rect fill="rgb(255,247,236)" height="41px" width="41px" x="40px" y="440px" /><rect fill="rgb(255,247,236)" height="41px" width="41px" x="80px" y="440px" /><rect fill="rgb(255,247,236)" height="41px" width="41px" x="120px" y="440px" /><rect fill="rgb(255,247,236)" height="41px" width="41px" x="160px" y="440px" /><rect fill="rgb(255,247,236)" height="41px" width="41px" x="200px" y="440px" /><rect fill="rgb(255,247,236)" height="41px" width="41px" x="240px" y="440px" /><rect fill="rgb(255,247,236)" height="41px" width="41px" x="280px" y="440px" /><rect fill="rgb(255,247,236)" height="41px" width="41px" x="320px" y="440px" /><rect fill="rgb(255,247,235)" height="41px" width="41px" x="360px" y="440px" /><rect fill="rgb(255,247,236)" height="41px" width="41px" x="400px" y="440px" /><rect fill="rgb(255,247,236)" height="41px" width="41px" x="440px" y="440px" /><rect fill="rgb(255,247,236)" height="41px" width="41px" x="480px" y="440px" /><rect fill="rgb(255,247,235)" height="41px" width="41px" x="520px" y="440px" /><rect fill="rgb(255,243,226)" height="41px" width="41px" x="560px" y="440px" /><rect fill="rgb(255,241,222)" height="41px" width="41px" x="600px" y="440px" /><rect fill="rgb(253,172,118)" height="41px" width="41px" x="640px" y="440px" /><rect fill="rgb(130,0,0)" height="41px" width="41px" x="680px" y="440px" /><rect fill="rgb(255,242,224)" height="41px" width="41px" x="720px" y="440px" /><rect fill="rgb(255,247,235)" height="41px" width="41px" x="0px" y="480px" /><rect fill="rgb(255,246,234)" height="41px" width="41px" x="40px" y="480px" /><rect fill="rgb(255,247,236)" height="41px" width="41px" x="80px" y="480px" /><rect fill="rgb(255,247,236)" height="41px" width="41px" x="120px" y="480px" /><rect fill="rgb(255,247,236)" height="41px" width="41px" x="160px" y="480px" /><rect fill="rgb(255,247,236)" height="41px" width="41px" x="200px" y="480px" /><rect fill="rgb(255,247,236)" height="41px" width="41px" x="240px" y="480px" /><rect fill="rgb(255,247,236)" height="41px" width="41px" x="280px" y="480px" /><rect fill="rgb(255,247,235)" height="41px" width="41px" x="320px" y="480px" /><rect fill="rgb(255,247,235)" height="41px" width="41px" x="360px" y="480px" /><rect fill="rgb(255,247,236)" height="41px" width="41px" x="400px" y="480px" /><rect fill="rgb(255,247,236)" height="41px" width="41px" x="440px" y="480px" /><rect fill="rgb(255,247,235)" height="41px" width="41px" x="480px" y="480px" /><rect fill="rgb(255,246,233)" height="41px" width="41px" x="520px" y="480px" /><rect fill="rgb(255,242,225)" height="41px" width="41px" x="560px" y="480px" /><rect fill="rgb(254,232,201)" height="41px" width="41px" x="600px" y="480px" /><rect fill="rgb(253,178,123)" height="41px" width="41px" x="640px" y="480px" /><rect fill="rgb(211,42,27)" height="41px" width="41px" x="680px" y="480px" /><rect fill="rgb(255,245,230)" height="41px" width="41px" x="720px" y="480px" /><rect fill="rgb(255,245,230)" height="41px" width="41px" x="0px" y="520px" /><rect fill="rgb(255,245,230)" height="41px" width="41px" x="40px" y="520px" /><rect fill="rgb(255,247,236)" height="41px" width="41px" x="80px" y="520px" /><rect fill="rgb(255,247,236)" height="41px" width="41px" x="120px" y="520px" /><rect fill="rgb(255,247,236)" height="41px" width="41px" x="160px" y="520px" /><rect fill="rgb(255,246,233)" height="41px" width="41px" x="200px" y="520px" /><rect fill="rgb(255,247,235)" height="41px" width="41px" x="240px" y="520px" /><rect fill="rgb(255,247,236)" height="41px" width="41px" x="280px" y="520px" /><rect fill="rgb(255,247,235)" height="41px" width="41px" x="320px" y="520px" /><rect fill="rgb(255,247,235)" height="41px" width="41px" x="360px" y="520px" /><rect fill="rgb(255,247,236)" height="41px" width="41px" x="400px" y="520px" /><rect fill="rgb(255,246,233)" height="41px" width="41px" x="440px" y="520px" /><rect fill="rgb(255,244,229)" height="41px" width="41px" x="480px" y="520px" /><rect fill="rgb(255,243,227)" height="41px" width="41px" x="520px" y="520px" /><rect fill="rgb(255,243,227)" height="41px" width="41px" x="560px" y="520px" /><rect fill="rgb(254,228,192)" height="41px" width="41px" x="600px" y="520px" /><rect fill="rgb(254,234,204)" height="41px" width="41px" x="640px" y="520px" /><rect fill="rgb(253,209,155)" height="41px" width="41px" x="680px" y="520px" /><rect fill="rgb(255,243,227)" height="41px" width="41px" x="720px" y="520px" /><rect fill="rgb(255,246,233)" height="41px" width="41px" x="0px" y="560px" /><rect fill="rgb(255,245,230)" height="41px" width="41px" x="40px" y="560px" /><rect fill="rgb(255,247,236)" height="41px" width="41px" x="80px" y="560px" /><rect fill="rgb(255,247,236)" height="41px" width="41px" x="120px" y="560px" /><rect fill="rgb(255,246,234)" height="41px" width="41px" x="160px" y="560px" /><rect fill="rgb(255,247,235)" height="41px" width="41px" x="200px" y="560px" /><rect fill="rgb(255,247,235)" height="41px" width="41px" x="240px" y="560px" /><rect fill="rgb(255,247,235)" height="41px" width="41px" x="280px" y="560px" /><rect fill="rgb(255,247,235)" height="41px" width="41px" x="320px" y="560px" /><rect fill="rgb(255,246,234)" height="41px" width="41px" x="360px" y="560px" /><rect fill="rgb(255,247,236)" height="41px" width="41px" x="400px" y="560px" /><rect fill="rgb(255,247,236)" height="41px" width="41px" x="440px" y="560px" /><rect fill="rgb(255,245,230)" height="41px" width="41px" x="480px" y="560px" /><rect fill="rgb(255,243,227)" height="41px" width="41px" x="520px" y="560px" /><rect fill="rgb(255,243,226)" height="41px" width="41px" x="560px" y="560px" /><rect fill="rgb(253,219,172)" height="41px" width="41px" x="600px" y="560px" /><rect fill="rgb(254,235,208)" height="41px" width="41px" x="640px" y="560px" /><rect fill="rgb(253,195,140)" height="41px" width="41px" x="680px" y="560px" /><rect fill="rgb(255,244,229)" height="41px" width="41px" x="720px" y="560px" /><rect fill="rgb(255,247,236)" height="41px" width="41px" x="0px" y="600px" /><rect fill="rgb(255,247,236)" height="41px" width="41px" x="40px" y="600px" /><rect fill="rgb(255,247,236)" height="41px" width="41px" x="80px" y="600px" /><rect fill="rgb(255,244,228)" height="41px" width="41px" x="120px" y="600px" /><rect fill="rgb(255,247,236)" height="41px" width="41px" x="160px" y="600px" /><rect fill="rgb(255,247,235)" height="41px" width="41px" x="200px" y="600px" /><rect fill="rgb(255,244,229)" height="41px" width="41px" x="240px" y="600px" /><rect fill="rgb(255,247,236)" height="41px" width="41px" x="280px" y="600px" /><rect fill="rgb(255,247,236)" height="41px" width="41px" x="320px" y="600px" /><rect fill="rgb(255,247,235)" height="41px" width="41px" x="360px" y="600px" /><rect fill="rgb(255,246,233)" height="41px" width="41px" x="400px" y="600px" /><rect fill="rgb(255,247,236)" height="41px" width="41px" x="440px" y="600px" /><rect fill="rgb(255,247,236)" height="41px" width="41px" x="480px" y="600px" /><rect fill="rgb(255,247,235)" height="41px" width="41px" x="520px" y="600px" /><rect fill="rgb(255,247,236)" height="41px" width="41px" x="560px" y="600px" /><rect fill="rgb(255,247,236)" height="41px" width="41px" x="600px" y="600px" /><rect fill="rgb(255,246,233)" height="41px" width="41px" x="640px" y="600px" /><rect fill="rgb(255,247,235)" height="41px" width="41px" x="680px" y="600px" /><rect fill="rgb(235,92,65)" height="41px" width="41px" x="720px" y="600px" /><rect fill="rgb(255,247,236)" height="41px" width="41px" x="0px" y="640px" /><rect fill="rgb(255,247,235)" height="41px" width="41px" x="40px" y="640px" /><rect fill="rgb(255,247,236)" height="41px" width="41px" x="80px" y="640px" /><rect fill="rgb(255,247,235)" height="41px" width="41px" x="120px" y="640px" /><rect fill="rgb(255,247,236)" height="41px" width="41px" x="160px" y="640px" /><rect fill="rgb(255,247,236)" height="41px" width="41px" x="200px" y="640px" /><rect fill="rgb(255,246,233)" height="41px" width="41px" x="240px" y="640px" /><rect fill="rgb(255,247,236)" height="41px" width="41px" x="280px" y="640px" /><rect fill="rgb(255,247,236)" height="41px" width="41px" x="320px" y="640px" /><rect fill="rgb(255,247,236)" height="41px" width="41px" x="360px" y="640px" /><rect fill="rgb(255,245,231)" height="41px" width="41px" x="400px" y="640px" /><rect fill="rgb(255,247,236)" height="41px" width="41px" x="440px" y="640px" /><rect fill="rgb(255,247,236)" height="41px" width="41px" x="480px" y="640px" /><rect fill="rgb(255,247,235)" height="41px" width="41px" x="520px" y="640px" /><rect fill="rgb(255,247,236)" height="41px" width="41px" x="560px" y="640px" /><rect fill="rgb(255,247,236)" height="41px" width="41px" x="600px" y="640px" /><rect fill="rgb(255,245,230)" height="41px" width="41px" x="640px" y="640px" /><rect fill="rgb(255,247,235)" height="41px" width="41px" x="680px" y="640px" /><rect fill="rgb(227,75,52)" height="41px" width="41px" x="720px" y="640px" /><rect fill="rgb(255,246,233)" height="41px" width="41px" x="0px" y="680px" /><rect fill="rgb(255,247,236)" height="41px" width="41px" x="40px" y="680px" /><rect fill="rgb(255,247,236)" height="41px" width="41px" x="80px" y="680px" /><rect fill="rgb(255,246,233)" height="41px" width="41px" x="120px" y="680px" /><rect fill="rgb(255,247,236)" height="41px" width="41px" x="160px" y="680px" /><rect fill="rgb(255,247,236)" height="41px" width="41px" x="200px" y="680px" /><rect fill="rgb(255,247,235)" height="41px" width="41px" x="240px" y="680px" /><rect fill="rgb(255,247,236)" height="41px" width="41px" x="280px" y="680px" /><rect fill="rgb(255,247,236)" height="41px" width="41px" x="320px" y="680px" /><rect fill="rgb(255,247,236)" height="41px" width="41px" x="360px" y="680px" /><rect fill="rgb(255,246,233)" height="41px" width="41px" x="400px" y="680px" /><rect fill="rgb(255,247,236)" height="41px" width="41px" x="440px" y="680px" /><rect fill="rgb(255,247,236)" height="41px" width="41px" x="480px" y="680px" /><rect fill="rgb(255,247,236)" height="41px" width="41px" x="520px" y="680px" /><rect fill="rgb(255,247,236)" height="41px" width="41px" x="560px" y="680px" /><rect fill="rgb(255,247,235)" height="41px" width="41px" x="600px" y="680px" /><rect fill="rgb(255,245,231)" height="41px" width="41px" x="640px" y="680px" /><rect fill="rgb(255,247,236)" height="41px" width="41px" x="680px" y="680px" /><rect fill="rgb(224,68,47)" height="41px" width="41px" x="720px" y="680px" /><rect fill="rgb(255,247,236)" height="41px" width="41px" x="0px" y="720px" /><rect fill="rgb(255,247,236)" height="41px" width="41px" x="40px" y="720px" /><rect fill="rgb(255,247,236)" height="41px" width="41px" x="80px" y="720px" /><rect fill="rgb(255,247,236)" height="41px" width="41px" x="120px" y="720px" /><rect fill="rgb(255,247,236)" height="41px" width="41px" x="160px" y="720px" /><rect fill="rgb(255,247,236)" height="41px" width="41px" x="200px" y="720px" /><rect fill="rgb(255,247,236)" height="41px" width="41px" x="240px" y="720px" /><rect fill="rgb(255,247,236)" height="41px" width="41px" x="280px" y="720px" /><rect fill="rgb(255,247,236)" height="41px" width="41px" x="320px" y="720px" /><rect fill="rgb(255,247,236)" height="41px" width="41px" x="360px" y="720px" /><rect fill="rgb(255,247,236)" height="41px" width="41px" x="400px" y="720px" /><rect fill="rgb(255,247,236)" height="41px" width="41px" x="440px" y="720px" /><rect fill="rgb(255,247,236)" height="41px" width="41px" x="480px" y="720px" /><rect fill="rgb(255,247,236)" height="41px" width="41px" x="520px" y="720px" /><rect fill="rgb(255,247,235)" height="41px" width="41px" x="560px" y="720px" /><rect fill="rgb(255,247,236)" height="41px" width="41px" x="600px" y="720px" /><rect fill="rgb(255,247,236)" height="41px" width="41px" x="640px" y="720px" /><rect fill="rgb(255,247,236)" height="41px" width="41px" x="680px" y="720px" /><rect fill="rgb(255,247,236)" height="41px" width="41px" x="720px" y="720px" /></svg>