<?xml version="1.0" encoding="utf-8" ?>
<svg baseProfile="full" height="760px" version="1.1" width="760px" xmlns="http://www.w3.org/2000/svg" xmlns:ev="http://www.w3.org/2001/xml-events" xmlns:xlink="http://www.w3.org/1999/xlink"><defs /><rect fill="rgb(223,227,24)" height="41px" width="41px" x="0px" y="0px" /><rect fill="rgb(32,164,133)" height="41px" width="41px" x="40px" y="0px" /><rect fill="rgb(68,1,84)" height="41px" width="41px" x="80px" y="0px" /><rect fill="rgb(68,1,84)" height="41px" width="41px" x="120px" y="0px" /><rect fill="rgb(68,2,85)" height="41px" width="41px" x="160px" y="0px" /><rect fill="rgb(68,1,84)" height="41px" width="41px" x="200px" y="0px" /><rect fill="rgb(68,1,84)" height="41px" width="41px" x="240px" y="0px" /><rect fill="rgb(68,1,84)" height="41px" width="41px" x="280px" y="0px" /><rect fill="rgb(68,1,84)" height="41px" width="41px" x="320px" y="0px" /><rect fill="rgb(68,1,84)" height="41px" width="41px" x="360px" y="0px" /><rect fill="rgb(68,1,84)" height="41px" width="41px" x="400px" y="0px" /><rect fill="rgb(68,1,84)" height="41px" width="41px" x="440px" y="0px" /><rect fill="rgb(68,1,84)" height="41px" width="41px" x="480px" y="0px" /><rect fill="rgb(68,1,84)" height="41px" width="41px" x="520px" y="0px" /><rect fill="rgb(68,1,84)" height="41px" width="41px" x="560px" y="0px" /><rect fill="rgb(68,1,84)" height="41px" width="41px" x="600px" y="0px" /><rect fill="rgb(68,1,84)" height="41px" width="41px" x="640px" y="0px" /><rect fill="rgb(68,1,84)" height="41px" width="41px" x="680px" y="0px" /><rect fill="rgb(68,2,85)" height="41px" width="41px" x="720px" y="0px" /><rect fill="rgb(68,1,84)" height="41px" width="41px" x="0px" y="40px" /><rect fill="rgb(68,1,84)" height="41px" width="41px" x="40px" y="40px" /><rect fill="rgb(50,99,141)" height="41px" width="41px" x="80px" y="40px" /><rect fill="rgb(54,90,140)" height="41px" width="41px" x="120px" y="40px" /><rect fill="rgb(52,95,141)" height="41px" width="41px" x="160px" y="40px" /><rect fill="rgb(71,22,105)" height="41px" width="41px" x="200px" y="40px" /><rect fill="rgb(59,81,138)" height="41px" width="41px" x="240px" y="40px" /><rect fill="rgb(68,57,130)" height="41px" width="41px" x="280px" y="40px" /><rect fill="rgb(71,20,102)" height="41px" width="41px" x="320px" y="40px" /><rect fill="rgb(71,18,101)" height="41px" width="41px" x="360px" y="40px" /><rect fill="rgb(69,5,88)" height="41px" width="41px" x="400px" y="40px" /><rect fill="rgb(69,5,88)" height="41px" width="41px" x="440px" y="40px" /><rect fill="rgb(69,5,88)" height="41px" width="41px" x="480px" y="40px" /><rect fill="rgb(70,14,97)" height="41px" width="41px" x="520px" y="40px" /><rect fill="rgb(69,5,88)" height="41px" width="41px" x="560px" y="40px" /><rect fill="rgb(68,1,84)" height="41px" width="41px" x="600px" y="40px" /><rect fill="rgb(68,1,84)" height="41px" width="41px" x="640px" y="40px" /><rect fill="rgb(68,1,84)" height="41px" width="41px" x="680px" y="40px" /><rect fill="rgb(68,1,84)" height="41px" width="41px" x="720px" y="40px" /><rect fill="rgb(68,1,84)" height="41px" width="41px" x="0px" y="80px" /><rect fill="rgb(69,5,88)" height="41px" width="41px" x="40px" y="80px" /><rect fill="rgb(55,89,140)" height="41px" width="41px" x="80px" y="80px" /><rect fill="rgb(53,93,140)" height="41px" width="41px" x="120px" y="80px" /><rect fill="rgb(70,48,125)" height="41px" width="41px" x="160px" y="80px" /><rect fill="rgb(68,57,130)" height="41px" width="41px" x="200px" y="80px" /><rect fill="rgb(69,54,129)" height="41px" width="41px" x="240px" y="80px" /><rect fill="rgb(68,55,129)" height="41px" width="41px" x="280px" y="80px" /><rect fill="rgb(70,14,97)" height="41px" width="41px" x="320px" y="80px" /><rect fill="rgb(72,26,108)" height="41px" width="41px" x="360px" y="80px" /><rect fill="rgb(67,59,131)" height="41px" width="41px" x="400px" y="80px" /><rect fill="rgb(70,14,97)" height="41px" width="41px" x="440px" y="80px" /><rect fill="rgb(68,1,84)" height="41px" width="41px" x="480px" y="80px" /><rect fill="rgb(68,3,87)" height="41px" width="41px" x="520px" y="80px" /><rect fill="rgb(68,2,85)" height="41px" width="41px" x="560px" y="80px" /><rect fill="rgb(68,1,84)" height="41px" width="41px" x="600px" y="80px" /><rect fill="rgb(68,1,84)" height="41px" width="41px" x="640px" y="80px" /><rect fill="rgb(68,1,84)" height="41px" width="41px" x="680px" y="80px" /><rect fill="rgb(68,1,84)" height="41px" width="41px" x="720px" y="80px" /><rect fill="rgb(68,1,84)" height="41px" width="41px" x="0px" y="120px" /><rect fill="rgb(68,1,84)" height="41px" width="41px" x="40px" y="120px" /><rect fill="rgb(64,67,135)" height="41px" width="41px" x="80px" y="120px" /><rect fill="rgb(45,111,142)" height="41px" width="41px" x="120px" y="120px" /><rect fill="rgb(71,37,117)" height="41px" width="41px" x="160px" y="120px" /><rect fill="rgb(68,55,129)" height="41px" width="41px" x="200px" y="120px" /><rect fill="rgb(52,95,141)" height="41px" width="41px" x="240px" y="120px" /><rect fill="rgb(67,60,132)" height="41px" width="41px" x="280px" y="120px" /><rect fill="rgb(70,12,95)" height="41px" width="41px" x="320px" y="120px" /><rect fill="rgb(71,40,120)" height="41px" width="41px" x="360px" y="120px" /><rect fill="rgb(72,30,112)" height="41px" width="41px" x="400px" y="120px" /><rect fill="rgb(69,6,90)" height="41px" width="41px" x="440px" y="120px" /><rect fill="rgb(69,8,91)" height="41px" width="41px" x="480px" y="120px" /><rect fill="rgb(69,8,91)" height="41px" width="41px" x="520px" y="120px" /><rect fill="rgb(70,9,92)" height="41px" width="41px" x="560px" y="120px" /><rect fill="rgb(68,3,87)" height="41px" width="41px" x="600px" y="120px" /><rect fill="rgb(68,1,84)" height="41px" width="41px" x="640px" y="120px" /><rect fill="rgb(68,1,84)" height="41px" width="41px" x="680px" y="120px" /><rect fill="rgb(68,2,85)" height="41px" width="41px" x="720px" y="120px" /><rect fill="rgb(68,1,84)" height="41px" width="41px" x="0px" y="160px" /><rect fill="rgb(68,2,85)" height="41px" width="41px" x="40px" y="160px" /><rect fill="rgb(47,106,141)" height="41px" width="41px" x="80px" y="160px" /><rect fill="rgb(71,44,123)" height="41px" width="41px" x="120px" y="160px" /><rect fill="rgb(58,82,139)" height="41px" width="41px" x="160px" y="160px" /><rect fill="rgb(44,113,142)" height="41px" width="41px" x="200px" y="160px" /><rect fill="rgb(72,29,111)" height="41px" width="41px" x="240px" y="160px" /><rect fill="rgb(72,35,116)" height="41px" width="41px" x="280px" y="160px" /><rect fill="rgb(68,3,87)" height="41px" width="41px" x="320px" y="160px" /><rect fill="rgb(68,2,85)" height="41px" width="41px" x="360px" y="160px" /><rect fill="rgb(69,5,88)" height="41px" width="41px" x="400px" y="160px" /><rect fill="rgb(68,2,85)" height="41px" width="41px" x="440px" y="160px" /><rect fill="rgb(68,3,87)" height="41px" width="41px" x="480px" y="160px" /><rect fill="rgb(69,8,91)" height="41px" width="41px" x="520px" y="160px" /><rect fill="rgb(69,5,88)" height="41px" width="41px" x="560px" y="160px" /><rect fill="rgb(68,1,84)" height="41px" width="41px" x="600px" y="160px" /><rect fill="rgb(68,1,84)" height="41px" width="41px" x="640px" y="160px" /><rect fill="rgb(68,1,84)" height="41px" width="41px" x="680px" y="160px" /><rect fill="rgb(68,1,84)" height="41px" width="41px" x="720px" y="160px" /><rect fill="rgb(68,1,84)" height="41px" width="41px" x="0px" y="200px" /><rect fill="rgb(68,1,84)" height="41px" width="41px" x="40px" y="200px" /><rect fill="rgb(69,8,91)" height="41px" width="41px" x="80px" y="200px" /><rect fill="rgb(68,1,84)" height="41px" width="41px" x="120px" y="200px" /><rect fill="rgb(71,20,102)" height="41px" width="41px" x="160px" y="200px" /><rect fill="rgb(61,76,137)" height="41px" width="41px" x="200px" y="200px" /><rect fill="rgb(70,14,97)" height="41px" width="41px" x="240px" y="200px" /><rect fill="rgb(59,81,138)" height="41px" width="41px" x="280px" y="200px" /><rect fill="rgb(31,150,139)" height="41px" width="41px" x="320px" y="200px" /><rect fill="rgb(43,116,142)" height="41px" width="41px" x="360px" y="200px" /><rect fill="rgb(68,2,85)" height="41px" width="41px" x="400px" y="200px" /><rect fill="rgb(68,1,84)" height="41px" width="41px" x="440px" y="200px" /><rect fill="rgb(68,1,84)" height="41px" width="41px" x="480px" y="200px" /><rect fill="rgb(68,2,85)" height="41px" width="41px" x="520px" y="200px" /><rect fill="rgb(68,1,84)" height="41px" width="41px" x="560px" y="200px" /><rect fill="rgb(68,1,84)" height="41px" width="41px" x="600px" y="200px" /><rect fill="rgb(68,2,85)" height="41px" width="41px" x="640px" y="200px" /><rect fill="rgb(68,1,84)" height="41px" width="41px" x="680px" y="200px" /><rect fill="rgb(70,12,95)" height="41px" width="41px" x="720px" y="200px" /><rect fill="rgb(68,1,84)" height="41px" width="41px" x="0px" y="240px" /><rect fill="rgb(68,1,84)" height="41px" width="41px" x="40px" y="240px" /><rect fill="rgb(72,35,116)" height="41px" width="41px" x="80px" y="240px" /><rect fill="rgb(71,20,102)" height="41px" width="41px" x="120px" y="240px" /><rect fill="rgb(71,21,103)" height="41px" width="41px" x="160px" y="240px" /><rect fill="rgb(70,11,94)" height="41px" width="41px" x="200px" y="240px" /><rect fill="rgb(56,86,139)" height="41px" width="41px" x="240px" y="240px" /><rect fill="rgb(42,118,142)" height="41px" width="41px" x="280px" y="240px" /><rect fill="rgb(72,25,107)" height="41px" width="41px" x="320px" y="240px" /><rect fill="rgb(36,134,141)" height="41px" width="41px" x="360px" y="240px" /><rect fill="rgb(68,1,84)" height="41px" width="41px" x="400px" y="240px" /><rect fill="rgb(68,1,84)" height="41px" width="41px" x="440px" y="240px" /><rect fill="rgb(68,2,85)" height="41px" width="41px" x="480px" y="240px" /><rect fill="rgb(68,2,85)" height="41px" width="41px" x="520px" y="240px" /><rect fill="rgb(68,2,85)" height="41px" width="41px" x="560px" y="240px" /><rect fill="rgb(68,2,85)" height="41px" width="41px" x="600px" y="240px" /><rect fill="rgb(68,1,84)" height="41px" width="41px" x="640px" y="240px" /><rect fill="rgb(68,1,84)" height="41px" width="41px" x="680px" y="240px" /><rect fill="rgb(69,5,88)" height="41px" width="41px" x="720px" y="240px" /><rect fill="rgb(68,1,84)" height="41px" width="41px" x="0px" y="280px" /><rect fill="rgb(68,1,84)" height="41px" width="41px" x="40px" y="280px" /><rect fill="rgb(68,1,84)" height="41px" width="41px" x="80px" y="280px" /><rect fill="rgb(68,1,84)" height="41px" width="41px" x="120px" y="280px" /><rect fill="rgb(69,8,91)" height="41px" width="41px" x="160px" y="280px" /><rect fill="rgb(68,3,87)" height="41px" width="41px" x="200px" y="280px" /><rect fill="rgb(71,21,103)" height="41px" width="41px" x="240px" y="280px" /><rect fill="rgb(61,74,137)" height="41px" width="41px" x="280px" y="280px" /><rect fill="rgb(47,106,141)" height="41px" width="41px" x="320px" y="280px" /><rect fill="rgb(124,210,79)" height="41px" width="41px" x="360px" y="280px" /><rect fill="rgb(68,1,84)" height="41px" width="41px" x="400px" y="280px" /><rect fill="rgb(68,1,84)" height="41px" width="41px" x="440px" y="280px" /><rect fill="rgb(69,5,88)" height="41px" width="41px" x="480px" y="280px" /><rect fill="rgb(68,1,84)" height="41px" width="41px" x="520px" y="280px" /><rect fill="rgb(68,1,84)" height="41px" width="41px" x="560px" y="280px" /><rect fill="rgb(68,1,84)" height="41px" width="41px" x="600px" y="280px" /><rect fill="rgb(68,3,87)" height="41px" width="41px" x="640px" y="280px" /><rect fill="rgb(68,1,84)" height="41px" width="41px" x="680px" y="280px" /><rect fill="rgb(71,17,99)" height="41px" width="41px" x="720px" y="280px" /><rect fill="rgb(68,1,84)" height="41px" width="41px" x="0px" y="320px" /><rect fill="rgb(68,1,84)" height="41px" width="41px" x="40px" y="320px" /><rect fill="rgb(68,2,85)" height="41px" width="41px" x="80px" y="320px" /><rect fill="rgb(68,1,84)" height="41px" width="41px" x="120px" y="320px" /><rect fill="rgb(71,18,101)" height="41px" width="41px" x="160px" y="320px" /><rect fill="rgb(68,1,84)" height="41px" width="41px" x="200px" y="320px" /><rect fill="rgb(68,2,85)" height="41px" width="41px" x="240px" y="320px" /><rect fill="rgb(68,2,85)" height="41px" width="41px" x="280px" y="320px" /><rect fill="rgb(70,11,94)" height="41px" width="41px" x="320px" y="320px" /><rect fill="rgb(68,1,84)" height="41px" width="41px" x="360px" y="320px" /><rect fill="rgb(70,12,95)" height="41px" width="41px" x="400px" y="320px" /><rect fill="rgb(57,84,139)" height="41px" width="41px" x="440px" y="320px" /><rect fill="rgb(30,153,138)" height="41px" width="41px" x="480px" y="320px" /><rect fill="rgb(52,95,141)" height="41px" width="41px" x="520px" y="320px" /><rect fill="rgb(71,20,102)" height="41px" width="41px" x="560px" y="320px" /><rect fill="rgb(61,74,137)" height="41px" width="41px" x="600px" y="320px" /><rect fill="rgb(70,12,95)" height="41px" width="41px" x="640px" y="320px" /><rect fill="rgb(70,11,94)" height="41px" width="41px" x="680px" y="320px" /><rect fill="rgb(68,1,84)" height="41px" width="41px" x="720px" y="320px" /><rect fill="rgb(68,1,84)" height="41px" width="41px" x="0px" y="360px" /><rect fill="rgb(68,1,84)" height="41px" width="41px" x="40px" y="360px" /><rect fill="rgb(69,8,91)" height="41px" width="41px" x="80px" y="360px" /><rect fill="rgb(69,5,88)" height="41px" width="41px" x="120px" y="360px" /><rect fill="rgb(71,15,98)" height="41px" width="41px" x="160px" y="360px" /><rect fill="rgb(69,8,91)" height="41px" width="41px" x="200px" y="360px" /><rect fill="rgb(70,9,92)" height="41px" width="41px" x="240px" y="360px" /><rect fill="rgb(69,5,88)" height="41px" width="41px" x="280px" y="360px" /><rect fill="rgb(68,3,87)" height="41px" width="41px" x="320px" y="360px" /><rect fill="rgb(68,1,84)" height="41px" width="41px" x="360px" y="360px" /><rect fill="rgb(54,91,140)" height="41px" width="41px" x="400px" y="360px" /><rect fill="rgb(44,114,142)" height="41px" width="41px" x="440px" y="360px" /><rect fill="rgb(58,83,139)" height="41px" width="41px" x="480px" y="360px" /><rect fill="rgb(53,93,140)" height="41px" width="41px" x="520px" y="360px" /><rect fill="rgb(69,5,88)" height="41px" width="41px" x="560px" y="360px" /><rect fill="rgb(71,38,118)" height="41px" width="41px" x="600px" y="360px" /><rect fill="rgb(69,8,91)" height="41px" width="41px" x="640px" y="360px" /><rect fill="rgb(69,5,88)" height="41px" width="41px" x="680px" y="360px" /><rect fill="rgb(69,5,88)" height="41px" width="41px" x="720px" y="360px" /><rect fill="rgb(68,1,84)" height="41px" width="41px" x="0px" y="400px" /><rect fill="rgb(68,3,87)" height="41px" width="41px" x="40px" y="400px" /><rect fill="rgb(68,1,84)" height="41px" width="41px" x="80px" y="400px" /><rect fill="rgb(68,1,84)" height="41px" width="41px" x="120px" y="400px" /><rect fill="rgb(68,1,84)" height="41px" width="41px" x="160px" y="400px" /><rect fill="rgb(68,1,84)" height="41px" width="41px" x="200px" y="400px" /><rect fill="rgb(68,1,84)" height="41px" width="41px" x="240px" y="400px" /><rect fill="rgb(68,1,84)" height="41px" width="41px" x="280px" y="400px" /><rect fill="rgb(68,1,84)" height="41px" width="41px" x="320px" y="400px" /><rect fill="rgb(68,2,85)" height="41px" width="41px" x="360px" y="400px" /><rect fill="rgb(68,1,84)" height="41px" width="41px" x="400px" y="400px" /><rect fill="rgb(68,2,85)" height="41px" width="41px" x="440px" y="400px" /><rect fill="rgb(68,2,85)" height="41px" width="41px" x="480px" y="400px" /><rect fill="rgb(69,8,91)" height="41px" width="41px" x="520px" y="400px" /><rect fill="rgb(69,8,91)" height="41px" width="41px" x="560px" y="400px" /><rect fill="rgb(71,22,105)" height="41px" width="41px" x="600px" y="400px" /><rect fill="rgb(43,116,142)" height="41px" width="41px" x="640px" y="400px" /><rect fill="rgb(253,231,36)" height="41px" width="41px" x="680px" y="400px" /><rect fill="rgb(69,8,91)" height="41px" width="41px" x="720px" y="400px" /><rect fill="rgb(68,1,84)" height="41px" width="41px" x="0px" y="440px" /><rect fill="rgb(68,1,84)" height="41px" width="41px" x="40px" y="440px" /><rect fill="rgb(68,1,84)" height="41px" width="41px" x="80px" y="440px" /><rect fill="rgb(68,1,84)" height="41px" width="41px" x="120px" y="440px" /><rect fill="rgb(68,1,84)" height="41px" width="41px" x="160px" y="440px" /><rect fill="rgb(68,1,84)" height="41px" width="41px" x="200px" y="440px" /><rect fill="rgb(68,1,84)" height="41px" width="41px" x="240px" y="440px" /><rect fill="rgb(68,1,84)" height="41px" width="41px" x="280px" y="440px" /><rect fill="rgb(68,1,84)" height="41px" width="41px" x="320px" y="440px" /><rect fill="rgb(68,2,85)" height="41px" width="41px" x="360px" y="440px" /><rect fill="rgb(68,1,84)" height="41px" width="41px" x="400px" y="440px" /><rect fill="rgb(68,1,84)" height="41px" width="41px" x="440px" y="440px" /><rect fill="rgb(68,1,84)" height="41px" width="41px" x="480px" y="440px" /><rect fill="rgb(68,2,85)" height="41px" width="41px" x="520px" y="440px" /><rect fill="rgb(70,14,97)" height="41px" width="41px" x="560px" y="440px" /><rect fill="rgb(71,18,101)" height="41px" width="41px" x="600px" y="440px" /><rect fill="rgb(40,123,142)" height="41px" width="41px" x="640px" y="440px" /><rect fill="rgb(248,230,33)" height="41px" width="41px" x="680px" y="440px" /><rect fill="rgb(71,17,99)" height="41px" width="41px" x="720px" y="440px" /><rect fill="rgb(68,2,85)" height="41px" width="41px" x="0px" y="480px" /><rect fill="rgb(68,3,87)" height="41px" width="41px" x="40px" y="480px" /><rect fill="rgb(68,1,84)" height="41px" width="41px" x="80px" y="480px" /><rect fill="rgb(68,1,84)" height="41px" width="41px" x="120px" y="480px" /><rect fill="rgb(68,1,84)" height="41px" width="41px" x="160px" y="480px" /><rect fill="rgb(68,1,84)" height="41px" width="41px" x="200px" y="480px" /><rect fill="rgb(68,1,84)" height="41px" width="41px" x="240px" y="480px" /><rect fill="rgb(68,1,84)" height="41px" width="41px" x="280px" y="480px" /><rect fill="rgb(68,2,85)" height="41px" width="41px" x="320px" y="480px" /><rect fill="rgb(68,2,85)" height="41px" width="41px" x="360px" y="480px" /><rect fill="rgb(68,1,84)" height="41px" width="41px" x="400px" y="480px" /><rect fill="rgb(68,1,84)" height="41px" width="41px" x="440px" y="480px" /><rect fill="rgb(68,2,85)" height="41px" width="41px" x="480px" y="480px" /><rect fill="rgb(69,5,88)" height="41px" width="41px" x="520px" y="480px" /><rect fill="rgb(71,15,98)" height="41px" width="41px" x="560px" y="480px" /><rect fill="rgb(71,43,122)" height="41px" width="41px" x="600px" y="480px" /><rect fill="rgb(41,120,142)" height="41px" width="41px" x="640px" y="480px" /><rect fill="rgb(100,203,93)" height="41px" width="41px" x="680px" y="480px" /><rect fill="rgb(69,8,91)" height="41px" width="41px" x="720px" y="480px" /><rect fill="rgb(69,8,91)" height="41px" width="41px" x="0px" y="520px" /><rect fill="rgb(69,8,91)" height="41px" width="41px" x="40px" y="520px" /><rect fill="rgb(68,1,84)" height="41px" width="41px" x="80px" y="520px" /><rect fill="rgb(68,1,84)" height="41px" width="41px" x="120px" y="520px" /><rect fill="rgb(68,1,84)" height="41px" width="41px" x="160px" y="520px" /><rect fill="rgb(69,5,88)" height="41px" width="41px" x="200px" y="520px" /><rect fill="rgb(68,2,85)" height="41px" width="41px" x="240px" y="520px" /><rect fill="rgb(68,1,84)" height="41px" width="41px" x="280px" y="520px" /><rect fill="rgb(68,2,85)" height="41px" width="41px" x="320px" y="520px" /><rect fill="rgb(68,2,85)" height="41px" width="41px" x="360px" y="520px" /><rect fill="rgb(68,1,84)" height="41px" width="41px" x="400px" y="520px" /><rect fill="rgb(69,5,88)" height="41px" width="41px" x="440px" y="520px" /><rect fill="rgb(70,9,92)" height="41px" width="41px" x="480px" y="520px" /><rect fill="rgb(70,12,95)" height="41px" width="41px" x="520px" y="520px" /><rect fill="rgb(70,12,95)" height="41px" width="41px" x="560px" y="520px" /><rect fill="rgb(69,52,127)" height="41px" width="41px" x="600px" y="520px" /><rect fill="rgb(71,39,119)" height="41px" width="41px" x="640px" y="520px" /><rect fill="rgb(57,85,139)" height="41px" width="41px" x="680px" y="520px" /><rect fill="rgb(70,12,95)" height="41px" width="41px" x="720px" y="520px" /><rect fill="rgb(69,5,88)" height="41px" width="41px" x="0px" y="560px" /><rect fill="rgb(69,8,91)" height="41px" width="41px" x="40px" y="560px" /><rect fill="rgb(68,1,84)" height="41px" width="41px" x="80px" y="560px" /><rect fill="rgb(68,1,84)" height="41px" width="41px" x="120px" y="560px" /><rect fill="rgb(68,3,87)" height="41px" width="41px" x="160px" y="560px" /><rect fill="rgb(68,2,85)" height="41px" width="41px" x="200px" y="560px" /><rect fill="rgb(68,2,85)" height="41px" width="41px" x="240px" y="560px" /><rect fill="rgb(68,2,85)" height="41px" width="41px" x="280px" y="560px" /><rect fill="rgb(68,2,85)" height="41px" width="41px" x="320px" y="560px" /><rect fill="rgb(68,3,87)" height="41px" width="41px" x="360px" y="560px" /><rect fill="rgb(68,1,84)" height="41px" width="41px" x="400px" y="560px" /><rect fill="rgb(68,1,84)" height="41px" width="41px" x="440px" y="560px" /><rect fill="rgb(69,8,91)" height="41px" width="41px" x="480px" y="560px" /><rect fill="rgb(70,12,95)" height="41px" width="41px" x="520px" y="560px" /><rect fill="rgb(70,14,97)" height="41px" width="41px" x="560px" y="560px" /><rect fill="rgb(63,69,135)" height="41px" width="41px" x="600px" y="560px" /><rect fill="rgb(72,35,116)" height="41px" width="41px" x="640px" y="560px" /><rect fill="rgb(48,104,141)" height="41px" width="41px" x="680px" y="560px" /><rect fill="rgb(70,9,92)" height="41px" width="41px" x="720px" y="560px" /><rect fill="rgb(68,1,84)" height="41px" width="41px" x="0px" y="600px" /><rect fill="rgb(68,1,84)" height="41px" width="41px" x="40px" y="600px" /><rect fill="rgb(68,1,84)" height="41px" width="41px" x="80px" y="600px" /><rect fill="rgb(70,11,94)" height="41px" width="41px" x="120px" y="600px" /><rect fill="rgb(68,1,84)" height="41px" width="41px" x="160px" y="600px" /><rect fill="rgb(68,2,85)" height="41px" width="41px" x="200px" y="600px" /><rect fill="rgb(70,9,92)" height="41px" width="41px" x="240px" y="600px" /><rect fill="rgb(68,1,84)" height="41px" width="41px" x="280px" y="600px" /><rect fill="rgb(68,1,84)" height="41px" width="41px" x="320px" y="600px" /><rect fill="rgb(68,2,85)" height="41px" width="41px" x="360px" y="600px" /><rect fill="rgb(69,5,88)" height="41px" width="41px" x="400px" y="600px" /><rect fill="rgb(68,1,84)" height="41px" width="41px" x="440px" y="600px" /><rect fill="rgb(68,1,84)" height="41px" width="41px" x="480px" y="600px" /><rect fill="rgb(68,2,85)" height="41px" width="41px" x="520px" y="600px" /><rect fill="rgb(68,1,84)" height="41px" width="41px" x="560px" y="600px" /><rect fill="rgb(68,1,84)" height="41px" width="41px" x="600px" y="600px" /><rect fill="rgb(69,5,88)" height="41px" width="41px" x="640px" y="600px" /><rect fill="rgb(68,2,85)" height="41px" width="41px" x="680px" y="600px" /><rect fill="rgb(46,178,124)" height="41px" width="41px" x="720px" y="600px" /><rect fill="rgb(68,1,84)" height="41px" width="41px" x="0px" y="640px" /><rect fill="rgb(68,2,85)" height="41px" width="41px" x="40px" y="640px" /><rect fill="rgb(68,1,84)" height="41px" width="41px" x="80px" y="640px" /><rect fill="rgb(68,2,85)" height="41px" width="41px" x="120px" y="640px" /><rect fill="rgb(68,1,84)" height="41px" width="41px" x="160px" y="640px" /><rect fill="rgb(68,1,84)" height="41px" width="41px" x="200px" y="640px" /><rect fill="rgb(69,5,88)" height="41px" width="41px" x="240px" y="640px" /><rect fill="rgb(68,1,84)" height="41px" width="41px" x="280px" y="640px" /><rect fill="rgb(68,1,84)" height="41px" width="41px" x="320px" y="640px" /><rect fill="rgb(68,1,84)" height="41px" width="41px" x="360px" y="640px" /><rect fill="rgb(69,6,90)" height="41px" width="41px" x="400px" y="640px" /><rect fill="rgb(68,1,84)" height="41px" width="41px" x="440px" y="640px" /><rect fill="rgb(68,1,84)" height="41px" width="41px" x="480px" y="640px" /><rect fill="rgb(68,2,85)" height="41px" width="41px" x="520px" y="640px" /><rect fill="rgb(68,1,84)" height="41px" width="41px" x="560px" y="640px" /><rect fill="rgb(68,1,84)" height="41px" width="41px" x="600px" y="640px" /><rect fill="rgb(69,8,91)" height="41px" width="41px" x="640px" y="640px" /><rect fill="rgb(68,2,85)" height="41px" width="41px" x="680px" y="640px" /><rect fill="rgb(61,187,116)" height="41px" width="41px" x="720px" y="640px" /><rect fill="rgb(69,5,88)" height="41px" width="41px" x="0px" y="680px" /><rect fill="rgb(68,1,84)" height="41px" width="41px" x="40px" y="680px" /><rect fill="rgb(68,1,84)" height="41px" width="41px" x="80px" y="680px" /><rect fill="rgb(69,5,88)" height="41px" width="41px" x="120px" y="680px" /><rect fill="rgb(68,1,84)" height="41px" width="41px" x="160px" y="680px" /><rect fill="rgb(68,1,84)" height="41px" width="41px" x="200px" y="680px" /><rect fill="rgb(68,2,85)" height="41px" width="41px" x="240px" y="680px" /><rect fill="rgb(68,1,84)" height="41px" width="41px" x="280px" y="680px" /><rect fill="rgb(68,1,84)" height="41px" width="41px" x="320px" y="680px" /><rect fill="rgb(68,1,84)" height="41px" width="41px" x="360px" y="680px" /><rect fill="rgb(69,5,88)" height="41px" width="41px" x="400px" y="680px" /><rect fill="rgb(68,1,84)" height="41px" width="41px" x="440px" y="680px" /><rect fill="rgb(68,1,84)" height="41px" width="41px" x="480px" y="680px" /><rect fill="rgb(68,1,84)" height="41px" width="41px" x="520px" y="680px" /><rect fill="rgb(68,1,84)" height="41px" width="41px" x="560px" y="680px" /><rect fill="rgb(68,2,85)" height="41px" width="41px" x="600px" y="680px" /><rect fill="rgb(69,6,90)" height="41px" width="41px" x="640px" y="680px" /><rect fill="rgb(68,1,84)" height="41px" width="41px" x="680px" y="680px" /><rect fill="rgb(68,190,112)" height="41px" width="41px" x="720px" y="680px" /><rect fill="rgb(68,1,84)" height="41px" width="41px" x="0px" y="720px" /><rect fill="rgb(68,1,84)" height="41px" width="41px" x="40px" y="720px" /><rect fill="rgb(68,1,84)" height="41px" width="41px" x="80px" y="720px" /><rect fill="rgb(68,1,84)" height="41px" width="41px" x="120px" y="720px" /><rect fill="rgb(68,1,84)" height="41px" width="41px" x="160px" y="720px" /><rect fill="rgb(68,1,84)" height="41px" width="41px" x="200px" y="720px" /><rect fill="rgb(68,1,84)" height="41px" width="41px" x="240px" y="720px" /><rect fill="rgb(68,1,84)" height="41px" width="41px" x="280px" y="720px" /><rect fill="rgb(68,1,84)" height="41px" width="41px" x="320px" y="720px" /><rect fill="rgb(68,1,84)" height="41px" width="41px" x="360px" y="720px" /><rect fill="rgb(68,1,84)" height="41px" width="41px" x="400px" y="720px" /><rect fill="rgb(68,1,84)" height="41px" width="41px" x="440px" y="720px" /><rect fill="rgb(68,1,84)" height="41px" width="41px" x="480px" y="720px" /><rect fill="rgb(68,1,84)" height="41px" width="41px" x="520px" y="720px" /><rect fill="rgb(68,2,85)" height="41px" width="41px" x="560px" y="720px" /><rect fill="rgb(68,1,84)" height="41px" width="41px" x="600px" y="720px" /><rect fill="rgb(68,1,84)" height="41px" width="41px" x="640px" y="720px" /><rect fill="rgb(68,1,84)" height="41px" width="41px" x="680px" y="720px" /><rect fill="rgb(68,1,84)" height="41px" width="41px" x="720px" y="720px" /></svg>