<?xml version="1.0" encoding="utf-8" ?>
<svg baseProfile="full" height="760px" version="1.1" width="760px" xmlns="http://www.w3.org/2000/svg" xmlns:ev="http://www.w3.org/2001/xml-events" xmlns:xlink="http://www.w3.org/1999/xlink"><defs /><rect fill="rgb(220,60,40)" height="41px" width="41px" x="0px" y="0px" /><rect fill="rgb(127,0,0)" height="41px" width="41px" x="40px" y="0px" /><rect fill="rgb(255,247,235)" height="41px" width="41px" x="80px" y="0px" /><rect fill="rgb(255,243,227)" height="41px" width="41px" x="120px" y="0px" /><rect fill="rgb(255,247,236)" height="41px" width="41px" x="160px" y="0px" /><rect fill="rgb(255,247,236)" height="41px" width="41px" x="200px" y="0px" /><rect fill="rgb(255,247,235)" height="41px" width="41px" x="240px" y="0px" /><rect fill="rgb(255,247,236)" height="41px" width="41px" x="280px" y="0px" /><rect fill="rgb(255,247,236)" height="41px" width="41px" x="320px" y="0px" /><rect fill="rgb(255,247,236)" height="41px" width="41px" x="360px" y="0px" /><rect fill="rgb(255,247,236)" height="41px" width="41px" x="400px" y="0px" /><rect fill="rgb(255,247,236)" height="41px" width="41px" x="440px" y="0px" /><rect fill="rgb(255,247,236)" height="41px" width="41px" x="480px" y="0px" /><rect fill="rgb(255,247,236)" height="41px" width="41px" x="520px" y="0px" /><rect fill="rgb(255,247,236)" height="41px" width="41px" x="560px" y="0px" /><rect fill="rgb(255,247,236)" height="41px" width="41px" x="600px" y="0px" /><rect fill="rgb(255,247,236)" height="41px" width="41px" x="640px" y="0px" /><rect fill="rgb(255,247,236)" height="41px" width="41px" x="680px" y="0px" /><rect fill="rgb(255,247,236)" height="41px" width="41px" x="720px" y="0px" /><rect fill="rgb(255,247,236)" height="41px" width="41px" x="0px" y="40px" /><rect fill="rgb(255,247,236)" height="41px" width="41px" x="40px" y="40px" /><rect fill="rgb(253,193,138)" height="41px" width="41px" x="80px" y="40px" /><rect fill="rgb(252,149,96)" height="41px" width="41px" x="120px" y="40px" /><rect fill="rgb(253,214,162)" height="41px" width="41px" x="160px" y="40px" /><rect fill="rgb(254,238,213)" height="41px" width="41px" x="200px" y="40px" /><rect fill="rgb(253,184,129)" height="41px" width="41px" x="240px" y="40px" /><rect fill="rgb(255,243,226)" height="41px" width="41px" x="280px" y="40px" /><rect fill="rgb(254,238,215)" height="41px" width="41px" x="320px" y="40px" /><rect fill="rgb(255,244,229)" height="41px" width="41px" x="360px" y="40px" /><rect fill="rgb(255,240,219)" height="41px" width="41px" x="400px" y="40px" /><rect fill="rgb(255,240,220)" height="41px" width="41px" x="440px" y="40px" /><rect fill="rgb(255,246,233)" height="41px" width="41px" x="480px" y="40px" /><rect fill="rgb(255,247,236)" height="41px" width="41px" x="520px" y="40px" /><rect fill="rgb(255,247,236)" height="41px" width="41px" x="560px" y="40px" /><rect fill="rgb(255,247,236)" height="41px" width="41px" x="600px" y="40px" /><rect fill="rgb(255,247,236)" height="41px" width="41px" x="640px" y="40px" /><rect fill="rgb(255,247,236)" height="41px" width="41px" x="680px" y="40px" /><rect fill="rgb(255,247,236)" height="41px" width="41px" x="720px" y="40px" /><rect fill="rgb(255,247,235)" height="41px" width="41px" x="0px" y="80px" /><rect fill="rgb(255,247,236)" height="41px" width="41px" x="40px" y="80px" /><rect fill="rgb(253,184,129)" height="41px" width="41px" x="80px" y="80px" /><rect fill="rgb(253,173,119)" height="41px" width="41px" x="120px" y="80px" /><rect fill="rgb(253,221,176)" height="41px" width="41px" x="160px" y="80px" /><rect fill="rgb(253,173,119)" height="41px" width="41px" x="200px" y="80px" /><rect fill="rgb(254,229,195)" height="41px" width="41px" x="240px" y="80px" /><rect fill="rgb(255,245,231)" height="41px" width="41px" x="280px" y="80px" /><rect fill="rgb(254,235,208)" height="41px" width="41px" x="320px" y="80px" /><rect fill="rgb(255,240,220)" height="41px" width="41px" x="360px" y="80px" /><rect fill="rgb(255,244,229)" height="41px" width="41px" x="400px" y="80px" /><rect fill="rgb(255,246,234)" height="41px" width="41px" x="440px" y="80px" /><rect fill="rgb(255,247,236)" height="41px" width="41px" x="480px" y="80px" /><rect fill="rgb(255,247,236)" height="41px" width="41px" x="520px" y="80px" /><rect fill="rgb(255,247,236)" height="41px" width="41px" x="560px" y="80px" /><rect fill="rgb(255,247,236)" height="41px" width="41px" x="600px" y="80px" /><rect fill="rgb(255,247,236)" height="41px" width="41px" x="640px" y="80px" /><rect fill="rgb(255,247,236)" height="41px" width="41px" x="680px" y="80px" /><rect fill="rgb(255,247,236)" height="41px" width="41px" x="720px" y="80px" /><rect fill="rgb(255,247,236)" height="41px" width="41px" x="0px" y="120px" /><rect fill="rgb(255,247,236)" height="41px" width="41px" x="40px" y="120px" /><rect fill="rgb(253,216,166)" height="41px" width="41px" x="80px" y="120px" /><rect fill="rgb(252,145,92)" height="41px" width="41px" x="120px" y="120px" /><rect fill="rgb(253,173,119)" height="41px" width="41px" x="160px" y="120px" /><rect fill="rgb(253,202,148)" height="41px" width="41px" x="200px" y="120px" /><rect fill="rgb(254,226,187)" height="41px" width="41px" x="240px" y="120px" /><rect fill="rgb(255,245,230)" height="41px" width="41px" x="280px" y="120px" /><rect fill="rgb(254,238,215)" height="41px" width="41px" x="320px" y="120px" /><rect fill="rgb(254,234,206)" height="41px" width="41px" x="360px" y="120px" /><rect fill="rgb(255,243,227)" height="41px" width="41px" x="400px" y="120px" /><rect fill="rgb(255,244,228)" height="41px" width="41px" x="440px" y="120px" /><rect fill="rgb(255,246,233)" height="41px" width="41px" x="480px" y="120px" /><rect fill="rgb(255,247,236)" height="41px" width="41px" x="520px" y="120px" /><rect fill="rgb(255,247,236)" height="41px" width="41px" x="560px" y="120px" /><rect fill="rgb(255,247,236)" height="41px" width="41px" x="600px" y="120px" /><rect fill="rgb(255,247,236)" height="41px" width="41px" x="640px" y="120px" /><rect fill="rgb(255,247,236)" height="41px" width="41px" x="680px" y="120px" /><rect fill="rgb(255,247,236)" height="41px" width="41px" x="720px" y="120px" /><rect fill="rgb(255,247,235)" height="41px" width="41px" x="0px" y="160px" /><rect fill="rgb(255,247,236)" height="41px" width="41px" x="40px" y="160px" /><rect fill="rgb(249,132,85)" height="41px" width="41px" x="80px" y="160px" /><rect fill="rgb(253,215,164)" height="41px" width="41px" x="120px" y="160px" /><rect fill="rgb(254,236,209)" height="41px" width="41px" x="160px" y="160px" /><rect fill="rgb(253,192,137)" height="41px" width="41px" x="200px" y="160px" /><rect fill="rgb(253,209,155)" height="41px" width="41px" x="240px" y="160px" /><rect fill="rgb(255,246,234)" height="41px" width="41px" x="280px" y="160px" /><rect fill="rgb(255,247,235)" height="41px" width="41px" x="320px" y="160px" /><rect fill="rgb(255,247,236)" height="41px" width="41px" x="360px" y="160px" /><rect fill="rgb(255,243,227)" height="41px" width="41px" x="400px" y="160px" /><rect fill="rgb(255,244,229)" height="41px" width="41px" x="440px" y="160px" /><rect fill="rgb(255,247,235)" height="41px" width="41px" x="480px" y="160px" /><rect fill="rgb(255,247,236)" height="41px" width="41px" x="520px" y="160px" /><rect fill="rgb(255,247,236)" height="41px" width="41px" x="560px" y="160px" /><rect fill="rgb(255,247,236)" height="41px" width="41px" x="600px" y="160px" /><rect fill="rgb(255,247,236)" height="41px" width="41px" x="640px" y="160px" /><rect fill="rgb(255,247,236)" height="41px" width="41px" x="680px" y="160px" /><rect fill="rgb(255,247,236)" height="41px" width="41px" x="720px" y="160px" /><rect fill="rgb(255,247,236)" height="41px" width="41px" x="0px" y="200px" /><rect fill="rgb(255,247,236)" height="41px" width="41px" x="40px" y="200px" /><rect fill="rgb(253,204,150)" height="41px" width="41px" x="80px" y="200px" /><rect fill="rgb(255,246,234)" height="41px" width="41px" x="120px" y="200px" /><rect fill="rgb(254,227,189)" height="41px" width="41px" x="160px" y="200px" /><rect fill="rgb(254,238,215)" height="41px" width="41px" x="200px" y="200px" /><rect fill="rgb(255,241,222)" height="41px" width="41px" x="240px" y="200px" /><rect fill="rgb(253,182,127)" height="41px" width="41px" x="280px" y="200px" /><rect fill="rgb(252,162,109)" height="41px" width="41px" x="320px" y="200px" /><rect fill="rgb(253,196,141)" height="41px" width="41px" x="360px" y="200px" /><rect fill="rgb(255,246,234)" height="41px" width="41px" x="400px" y="200px" /><rect fill="rgb(255,247,236)" height="41px" width="41px" x="440px" y="200px" /><rect fill="rgb(255,247,236)" height="41px" width="41px" x="480px" y="200px" /><rect fill="rgb(255,247,236)" height="41px" width="41px" x="520px" y="200px" /><rect fill="rgb(255,247,235)" height="41px" width="41px" x="560px" y="200px" /><rect fill="rgb(255,247,236)" height="41px" width="41px" x="600px" y="200px" /><rect fill="rgb(255,247,236)" height="41px" width="41px" x="640px" y="200px" /><rect fill="rgb(255,247,236)" height="41px" width="41px" x="680px" y="200px" /><rect fill="rgb(255,247,236)" height="41px" width="41px" x="720px" y="200px" /><rect fill="rgb(255,247,236)" height="41px" width="41px" x="0px" y="240px" /><rect fill="rgb(255,247,236)" height="41px" width="41px" x="40px" y="240px" /><rect fill="rgb(254,228,191)" height="41px" width="41px" x="80px" y="240px" /><rect fill="rgb(254,238,215)" height="41px" width="41px" x="120px" y="240px" /><rect fill="rgb(248,128,83)" height="41px" width="41px" x="160px" y="240px" /><rect fill="rgb(255,246,233)" height="41px" width="41px" x="200px" y="240px" /><rect fill="rgb(254,234,204)" height="41px" width="41px" x="240px" y="240px" /><rect fill="rgb(255,246,234)" height="41px" width="41px" x="280px" y="240px" /><rect fill="rgb(253,198,144)" height="41px" width="41px" x="320px" y="240px" /><rect fill="rgb(253,175,121)" height="41px" width="41px" x="360px" y="240px" /><rect fill="rgb(255,245,231)" height="41px" width="41px" x="400px" y="240px" /><rect fill="rgb(255,246,233)" height="41px" width="41px" x="440px" y="240px" /><rect fill="rgb(255,247,235)" height="41px" width="41px" x="480px" y="240px" /><rect fill="rgb(255,247,236)" height="41px" width="41px" x="520px" y="240px" /><rect fill="rgb(255,247,236)" height="41px" width="41px" x="560px" y="240px" /><rect fill="rgb(255,247,236)" height="41px" width="41px" x="600px" y="240px" /><rect fill="rgb(255,247,236)" height="41px" width="41px" x="640px" y="240px" /><rect fill="rgb(255,247,236)" height="41px" width="41px" x="680px" y="240px" /><rect fill="rgb(255,247,236)" height="41px" width="41px" x="720px" y="240px" /><rect fill="rgb(255,247,236)" height="41px" width="41px" x="0px" y="280px" /><rect fill="rgb(255,247,236)" height="41px" width="41px" x="40px" y="280px" /><rect fill="rgb(255,243,227)" height="41px" width="41px" x="80px" y="280px" /><rect fill="rgb(255,247,236)" height="41px" width="41px" x="120px" y="280px" /><rect fill="rgb(253,217,170)" height="41px" width="41px" x="160px" y="280px" /><rect fill="rgb(255,247,236)" height="41px" width="41px" x="200px" y="280px" /><rect fill="rgb(254,239,217)" height="41px" width="41px" x="240px" y="280px" /><rect fill="rgb(254,226,187)" height="41px" width="41px" x="280px" y="280px" /><rect fill="rgb(240,105,74)" height="41px" width="41px" x="320px" y="280px" /><rect fill="rgb(236,93,66)" height="41px" width="41px" x="360px" y="280px" /><rect fill="rgb(255,247,236)" height="41px" width="41px" x="400px" y="280px" /><rect fill="rgb(255,247,236)" height="41px" width="41px" x="440px" y="280px" /><rect fill="rgb(255,247,236)" height="41px" width="41px" x="480px" y="280px" /><rect fill="rgb(255,247,236)" height="41px" width="41px" x="520px" y="280px" /><rect fill="rgb(255,246,234)" height="41px" width="41px" x="560px" y="280px" /><rect fill="rgb(255,247,236)" height="41px" width="41px" x="600px" y="280px" /><rect fill="rgb(255,247,236)" height="41px" width="41px" x="640px" y="280px" /><rect fill="rgb(255,247,236)" height="41px" width="41px" x="680px" y="280px" /><rect fill="rgb(255,247,236)" height="41px" width="41px" x="720px" y="280px" /><rect fill="rgb(255,247,236)" height="41px" width="41px" x="0px" y="320px" /><rect fill="rgb(255,247,236)" height="41px" width="41px" x="40px" y="320px" /><rect fill="rgb(255,243,226)" height="41px" width="41px" x="80px" y="320px" /><rect fill="rgb(255,244,229)" height="41px" width="41px" x="120px" y="320px" /><rect fill="rgb(255,246,234)" height="41px" width="41px" x="160px" y="320px" /><rect fill="rgb(255,243,226)" height="41px" width="41px" x="200px" y="320px" /><rect fill="rgb(253,211,157)" height="41px" width="41px" x="240px" y="320px" /><rect fill="rgb(255,244,228)" height="41px" width="41px" x="280px" y="320px" /><rect fill="rgb(255,246,234)" height="41px" width="41px" x="320px" y="320px" /><rect fill="rgb(255,247,236)" height="41px" width="41px" x="360px" y="320px" /><rect fill="rgb(253,219,173)" height="41px" width="41px" x="400px" y="320px" /><rect fill="rgb(235,92,65)" height="41px" width="41px" x="440px" y="320px" /><rect fill="rgb(252,158,105)" height="41px" width="41px" x="480px" y="320px" /><rect fill="rgb(255,247,236)" height="41px" width="41px" x="520px" y="320px" /><rect fill="rgb(255,243,226)" height="41px" width="41px" x="560px" y="320px" /><rect fill="rgb(255,247,236)" height="41px" width="41px" x="600px" y="320px" /><rect fill="rgb(255,241,221)" height="41px" width="41px" x="640px" y="320px" /><rect fill="rgb(255,247,236)" height="41px" width="41px" x="680px" y="320px" /><rect fill="rgb(255,247,236)" height="41px" width="41px" x="720px" y="320px" /><rect fill="rgb(255,247,236)" height="41px" width="41px" x="0px" y="360px" /><rect fill="rgb(255,247,236)" height="41px" width="41px" x="40px" y="360px" /><rect fill="rgb(254,237,212)" height="41px" width="41px" x="80px" y="360px" /><rect fill="rgb(254,235,208)" height="41px" width="41px" x="120px" y="360px" /><rect fill="rgb(255,243,227)" height="41px" width="41px" x="160px" y="360px" /><rect fill="rgb(253,198,144)" height="41px" width="41px" x="200px" y="360px" /><rect fill="rgb(254,228,191)" height="41px" width="41px" x="240px" y="360px" /><rect fill="rgb(255,247,235)" height="41px" width="41px" x="280px" y="360px" /><rect fill="rgb(255,247,235)" height="41px" width="41px" x="320px" y="360px" /><rect fill="rgb(255,247,236)" height="41px" width="41px" x="360px" y="360px" /><rect fill="rgb(254,239,216)" height="41px" width="41px" x="400px" y="360px" /><rect fill="rgb(221,62,42)" height="41px" width="41px" x="440px" y="360px" /><rect fill="rgb(253,220,175)" height="41px" width="41px" x="480px" y="360px" /><rect fill="rgb(255,247,236)" height="41px" width="41px" x="520px" y="360px" /><rect fill="rgb(255,244,229)" height="41px" width="41px" x="560px" y="360px" /><rect fill="rgb(255,247,236)" height="41px" width="41px" x="600px" y="360px" /><rect fill="rgb(255,246,233)" height="41px" width="41px" x="640px" y="360px" /><rect fill="rgb(255,247,236)" height="41px" width="41px" x="680px" y="360px" /><rect fill="rgb(255,246,233)" height="41px" width="41px" x="720px" y="360px" /><rect fill="rgb(255,247,236)" height="41px" width="41px" x="0px" y="400px" /><rect fill="rgb(255,247,236)" height="41px" width="41px" x="40px" y="400px" /><rect fill="rgb(255,247,236)" height="41px" width="41px" x="80px" y="400px" /><rect fill="rgb(255,246,233)" height="41px" width="41px" x="120px" y="400px" /><rect fill="rgb(255,247,235)" height="41px" width="41px" x="160px" y="400px" /><rect fill="rgb(255,247,236)" height="41px" width="41px" x="200px" y="400px" /><rect fill="rgb(255,247,235)" height="41px" width="41px" x="240px" y="400px" /><rect fill="rgb(255,247,236)" height="41px" width="41px" x="280px" y="400px" /><rect fill="rgb(255,247,236)" height="41px" width="41px" x="320px" y="400px" /><rect fill="rgb(255,247,236)" height="41px" width="41px" x="360px" y="400px" /><rect fill="rgb(255,244,229)" height="41px" width="41px" x="400px" y="400px" /><rect fill="rgb(255,243,226)" height="41px" width="41px" x="440px" y="400px" /><rect fill="rgb(254,239,216)" height="41px" width="41px" x="480px" y="400px" /><rect fill="rgb(223,67,45)" height="41px" width="41px" x="520px" y="400px" /><rect fill="rgb(253,196,141)" height="41px" width="41px" x="560px" y="400px" /><rect fill="rgb(254,234,206)" height="41px" width="41px" x="600px" y="400px" /><rect fill="rgb(252,160,107)" height="41px" width="41px" x="640px" y="400px" /><rect fill="rgb(255,247,236)" height="41px" width="41px" x="680px" y="400px" /><rect fill="rgb(255,247,236)" height="41px" width="41px" x="720px" y="400px" /><rect fill="rgb(255,247,236)" height="41px" width="41px" x="0px" y="440px" /><rect fill="rgb(255,247,236)" height="41px" width="41px" x="40px" y="440px" /><rect fill="rgb(255,247,236)" height="41px" width="41px" x="80px" y="440px" /><rect fill="rgb(255,247,236)" height="41px" width="41px" x="120px" y="440px" /><rect fill="rgb(255,247,235)" height="41px" width="41px" x="160px" y="440px" /><rect fill="rgb(255,247,236)" height="41px" width="41px" x="200px" y="440px" /><rect fill="rgb(255,247,236)" height="41px" width="41px" x="240px" y="440px" /><rect fill="rgb(255,247,236)" height="41px" width="41px" x="280px" y="440px" /><rect fill="rgb(255,247,236)" height="41px" width="41px" x="320px" y="440px" /><rect fill="rgb(255,247,236)" height="41px" width="41px" x="360px" y="440px" /><rect fill="rgb(255,241,222)" height="41px" width="41px" x="400px" y="440px" /><rect fill="rgb(255,246,233)" height="41px" width="41px" x="440px" y="440px" /><rect fill="rgb(254,239,218)" height="41px" width="41px" x="480px" y="440px" /><rect fill="rgb(233,88,62)" height="41px" width="41px" x="520px" y="440px" /><rect fill="rgb(253,192,137)" height="41px" width="41px" x="560px" y="440px" /><rect fill="rgb(254,230,196)" height="41px" width="41px" x="600px" y="440px" /><rect fill="rgb(252,142,90)" height="41px" width="41px" x="640px" y="440px" /><rect fill="rgb(255,247,236)" height="41px" width="41px" x="680px" y="440px" /><rect fill="rgb(255,247,236)" height="41px" width="41px" x="720px" y="440px" /><rect fill="rgb(255,247,236)" height="41px" width="41px" x="0px" y="480px" /><rect fill="rgb(255,247,235)" height="41px" width="41px" x="40px" y="480px" /><rect fill="rgb(255,247,236)" height="41px" width="41px" x="80px" y="480px" /><rect fill="rgb(255,247,235)" height="41px" width="41px" x="120px" y="480px" /><rect fill="rgb(255,247,236)" height="41px" width="41px" x="160px" y="480px" /><rect fill="rgb(255,247,235)" height="41px" width="41px" x="200px" y="480px" /><rect fill="rgb(255,247,235)" height="41px" width="41px" x="240px" y="480px" /><rect fill="rgb(255,245,231)" height="41px" width="41px" x="280px" y="480px" /><rect fill="rgb(255,247,236)" height="41px" width="41px" x="320px" y="480px" /><rect fill="rgb(255,247,235)" height="41px" width="41px" x="360px" y="480px" /><rect fill="rgb(255,243,226)" height="41px" width="41px" x="400px" y="480px" /><rect fill="rgb(255,245,230)" height="41px" width="41px" x="440px" y="480px" /><rect fill="rgb(254,228,191)" height="41px" width="41px" x="480px" y="480px" /><rect fill="rgb(254,224,184)" height="41px" width="41px" x="520px" y="480px" /><rect fill="rgb(253,195,140)" height="41px" width="41px" x="560px" y="480px" /><rect fill="rgb(254,238,215)" height="41px" width="41px" x="600px" y="480px" /><rect fill="rgb(217,52,34)" height="41px" width="41px" x="640px" y="480px" /><rect fill="rgb(255,247,235)" height="41px" width="41px" x="680px" y="480px" /><rect fill="rgb(255,247,236)" height="41px" width="41px" x="720px" y="480px" /><rect fill="rgb(255,246,233)" height="41px" width="41px" x="0px" y="520px" /><rect fill="rgb(255,244,229)" height="41px" width="41px" x="40px" y="520px" /><rect fill="rgb(255,246,233)" height="41px" width="41px" x="80px" y="520px" /><rect fill="rgb(255,247,236)" height="41px" width="41px" x="120px" y="520px" /><rect fill="rgb(255,246,234)" height="41px" width="41px" x="160px" y="520px" /><rect fill="rgb(255,247,235)" height="41px" width="41px" x="200px" y="520px" /><rect fill="rgb(255,245,231)" height="41px" width="41px" x="240px" y="520px" /><rect fill="rgb(255,247,236)" height="41px" width="41px" x="280px" y="520px" /><rect fill="rgb(255,247,236)" height="41px" width="41px" x="320px" y="520px" /><rect fill="rgb(255,247,236)" height="41px" width="41px" x="360px" y="520px" /><rect fill="rgb(255,242,225)" height="41px" width="41px" x="400px" y="520px" /><rect fill="rgb(254,236,209)" height="41px" width="41px" x="440px" y="520px" /><rect fill="rgb(254,225,185)" height="41px" width="41px" x="480px" y="520px" /><rect fill="rgb(254,233,202)" height="41px" width="41px" x="520px" y="520px" /><rect fill="rgb(254,239,216)" height="41px" width="41px" x="560px" y="520px" /><rect fill="rgb(255,240,219)" height="41px" width="41px" x="600px" y="520px" /><rect fill="rgb(253,222,179)" height="41px" width="41px" x="640px" y="520px" /><rect fill="rgb(255,247,235)" height="41px" width="41px" x="680px" y="520px" /><rect fill="rgb(255,247,235)" height="41px" width="41px" x="720px" y="520px" /><rect fill="rgb(255,247,235)" height="41px" width="41px" x="0px" y="560px" /><rect fill="rgb(255,246,233)" height="41px" width="41px" x="40px" y="560px" /><rect fill="rgb(255,247,236)" height="41px" width="41px" x="80px" y="560px" /><rect fill="rgb(255,245,230)" height="41px" width="41px" x="120px" y="560px" /><rect fill="rgb(255,246,234)" height="41px" width="41px" x="160px" y="560px" /><rect fill="rgb(255,247,235)" height="41px" width="41px" x="200px" y="560px" /><rect fill="rgb(255,244,229)" height="41px" width="41px" x="240px" y="560px" /><rect fill="rgb(255,247,236)" height="41px" width="41px" x="280px" y="560px" /><rect fill="rgb(255,246,234)" height="41px" width="41px" x="320px" y="560px" /><rect fill="rgb(255,247,236)" height="41px" width="41px" x="360px" y="560px" /><rect fill="rgb(255,241,222)" height="41px" width="41px" x="400px" y="560px" /><rect fill="rgb(254,238,213)" height="41px" width="41px" x="440px" y="560px" /><rect fill="rgb(253,221,176)" height="41px" width="41px" x="480px" y="560px" /><rect fill="rgb(253,222,179)" height="41px" width="41px" x="520px" y="560px" /><rect fill="rgb(254,239,216)" height="41px" width="41px" x="560px" y="560px" /><rect fill="rgb(255,240,220)" height="41px" width="41px" x="600px" y="560px" /><rect fill="rgb(253,216,166)" height="41px" width="41px" x="640px" y="560px" /><rect fill="rgb(255,247,236)" height="41px" width="41px" x="680px" y="560px" /><rect fill="rgb(255,247,236)" height="41px" width="41px" x="720px" y="560px" /><rect fill="rgb(255,247,236)" height="41px" width="41px" x="0px" y="600px" /><rect fill="rgb(255,247,236)" height="41px" width="41px" x="40px" y="600px" /><rect fill="rgb(255,247,236)" height="41px" width="41px" x="80px" y="600px" /><rect fill="rgb(255,240,219)" height="41px" width="41px" x="120px" y="600px" /><rect fill="rgb(255,246,233)" height="41px" width="41px" x="160px" y="600px" /><rect fill="rgb(255,246,233)" height="41px" width="41px" x="200px" y="600px" /><rect fill="rgb(255,247,236)" height="41px" width="41px" x="240px" y="600px" /><rect fill="rgb(255,247,236)" height="41px" width="41px" x="280px" y="600px" /><rect fill="rgb(255,247,236)" height="41px" width="41px" x="320px" y="600px" /><rect fill="rgb(255,247,236)" height="41px" width="41px" x="360px" y="600px" /><rect fill="rgb(255,247,236)" height="41px" width="41px" x="400px" y="600px" /><rect fill="rgb(255,247,235)" height="41px" width="41px" x="440px" y="600px" /><rect fill="rgb(255,247,236)" height="41px" width="41px" x="480px" y="600px" /><rect fill="rgb(255,247,236)" height="41px" width="41px" x="520px" y="600px" /><rect fill="rgb(255,246,234)" height="41px" width="41px" x="560px" y="600px" /><rect fill="rgb(255,247,236)" height="41px" width="41px" x="600px" y="600px" /><rect fill="rgb(255,247,235)" height="41px" width="41px" x="640px" y="600px" /><rect fill="rgb(254,226,187)" height="41px" width="41px" x="680px" y="600px" /><rect fill="rgb(243,113,77)" height="41px" width="41px" x="720px" y="600px" /><rect fill="rgb(255,247,236)" height="41px" width="41px" x="0px" y="640px" /><rect fill="rgb(255,247,236)" height="41px" width="41px" x="40px" y="640px" /><rect fill="rgb(255,247,236)" height="41px" width="41px" x="80px" y="640px" /><rect fill="rgb(255,243,227)" height="41px" width="41px" x="120px" y="640px" /><rect fill="rgb(255,247,236)" height="41px" width="41px" x="160px" y="640px" /><rect fill="rgb(255,246,233)" height="41px" width="41px" x="200px" y="640px" /><rect fill="rgb(255,247,236)" height="41px" width="41px" x="240px" y="640px" /><rect fill="rgb(255,247,236)" height="41px" width="41px" x="280px" y="640px" /><rect fill="rgb(255,247,236)" height="41px" width="41px" x="320px" y="640px" /><rect fill="rgb(255,247,236)" height="41px" width="41px" x="360px" y="640px" /><rect fill="rgb(255,247,236)" height="41px" width="41px" x="400px" y="640px" /><rect fill="rgb(255,246,234)" height="41px" width="41px" x="440px" y="640px" /><rect fill="rgb(255,247,236)" height="41px" width="41px" x="480px" y="640px" /><rect fill="rgb(255,247,236)" height="41px" width="41px" x="520px" y="640px" /><rect fill="rgb(255,245,230)" height="41px" width="41px" x="560px" y="640px" /><rect fill="rgb(255,247,236)" height="41px" width="41px" x="600px" y="640px" /><rect fill="rgb(255,247,236)" height="41px" width="41px" x="640px" y="640px" /><rect fill="rgb(254,239,216)" height="41px" width="41px" x="680px" y="640px" /><rect fill="rgb(221,62,42)" height="41px" width="41px" x="720px" y="640px" /><rect fill="rgb(255,247,235)" height="41px" width="41px" x="0px" y="680px" /><rect fill="rgb(255,246,234)" height="41px" width="41px" x="40px" y="680px" /><rect fill="rgb(255,247,236)" height="41px" width="41px" x="80px" y="680px" /><rect fill="rgb(255,244,229)" height="41px" width="41px" x="120px" y="680px" /><rect fill="rgb(255,247,236)" height="41px" width="41px" x="160px" y="680px" /><rect fill="rgb(255,246,233)" height="41px" width="41px" x="200px" y="680px" /><rect fill="rgb(255,247,236)" height="41px" width="41px" x="240px" y="680px" /><rect fill="rgb(255,247,236)" height="41px" width="41px" x="280px" y="680px" /><rect fill="rgb(255,247,236)" height="41px" width="41px" x="320px" y="680px" /><rect fill="rgb(255,247,236)" height="41px" width="41px" x="360px" y="680px" /><rect fill="rgb(255,247,236)" height="41px" width="41px" x="400px" y="680px" /><rect fill="rgb(255,246,234)" height="41px" width="41px" x="440px" y="680px" /><rect fill="rgb(255,247,235)" height="41px" width="41px" x="480px" y="680px" /><rect fill="rgb(255,247,236)" height="41px" width="41px" x="520px" y="680px" /><rect fill="rgb(255,245,231)" height="41px" width="41px" x="560px" y="680px" /><rect fill="rgb(255,247,236)" height="41px" width="41px" x="600px" y="680px" /><rect fill="rgb(255,247,236)" height="41px" width="41px" x="640px" y="680px" /><rect fill="rgb(255,241,222)" height="41px" width="41px" x="680px" y="680px" /><rect fill="rgb(215,48,31)" height="41px" width="41px" x="720px" y="680px" /><rect fill="rgb(255,247,236)" height="41px" width="41px" x="0px" y="720px" /><rect fill="rgb(255,247,236)" height="41px" width="41px" x="40px" y="720px" /><rect fill="rgb(255,247,236)" height="41px" width="41px" x="80px" y="720px" /><rect fill="rgb(255,247,236)" height="41px" width="41px" x="120px" y="720px" /><rect fill="rgb(255,247,236)" height="41px" width="41px" x="160px" y="720px" /><rect fill="rgb(255,247,236)" height="41px" width="41px" x="200px" y="720px" /><rect fill="rgb(255,247,236)" height="41px" width="41px" x="240px" y="720px" /><rect fill="rgb(255,247,236)" height="41px" width="41px" x="280px" y="720px" /><rect fill="rgb(255,247,236)" height="41px" width="41px" x="320px" y="720px" /><rect fill="rgb(255,247,236)" height="41px" width="41px" x="360px" y="720px" /><rect fill="rgb(255,247,235)" height="41px" width="41px" x="400px" y="720px" /><rect fill="rgb(255,247,236)" height="41px" width="41px" x="440px" y="720px" /><rect fill="rgb(255,247,236)" height="41px" width="41px" x="480px" y="720px" /><rect fill="rgb(255,247,236)" height="41px" width="41px" x="520px" y="720px" /><rect fill="rgb(255,247,236)" height="41px" width="41px" x="560px" y="720px" /><rect fill="rgb(255,247,236)" height="41px" width="41px" x="600px" y="720px" /><rect fill="rgb(255,247,236)" height="41px" width="41px" x="640px" y="720px" /><rect fill="rgb(255,247,236)" height="41px" width="41px" x="680px" y="720px" /><rect fill="rgb(255,247,236)" height="41px" width="41px" x="720px" y="720px" /></svg>