<?xml version="1.0" encoding="utf-8" standalone="no"?>
<!DOCTYPE svg PUBLIC "-//W3C//DTD SVG 1.1//EN"
  "http://www.w3.org/Graphics/SVG/1.1/DTD/svg11.dtd">
<!-- Created with matplotlib (http://matplotlib.org/) -->
<svg height="396pt" version="1.1" viewBox="0 0 576 396" width="576pt" xmlns="http://www.w3.org/2000/svg" xmlns:xlink="http://www.w3.org/1999/xlink">
 <defs>
  <style type="text/css">
*{stroke-linecap:butt;stroke-linejoin:round;}
  </style>
 </defs>
 <g id="figure_1">
  <g id="patch_1">
   <path d="
M0 396
L576 396
L576 0
L0 0
z
" style="fill:#ffffff;"/>
  </g>
  <g id="axes_1">
   <g id="patch_2">
    <path d="
M88.8735 330.864
L547.269 330.864
L547.269 28.386
L88.8735 28.386
z
" style="fill:#eaeaf2;"/>
   </g>
   <g id="matplotlib.axis_1">
    <g id="xtick_1">
     <g id="line2d_1">
      <path clip-path="url(#p2ead28f7df)" d="
M88.8735 330.864
L88.8735 28.386" style="fill:none;stroke:#ffffff;stroke-linecap:round;"/>
     </g>
     <g id="line2d_2">
      <defs>
       <path d="
M0 0
L0 0" id="m219da94a98" style="stroke:#262626;"/>
      </defs>
      <g>
       <use style="fill:#262626;stroke:#262626;" x="88.8735" xlink:href="#m219da94a98" y="330.864"/>
      </g>
     </g>
     <g id="line2d_3">
      <g>
       <use style="fill:#262626;stroke:#262626;" x="88.8735" xlink:href="#m219da94a98" y="28.386"/>
      </g>
     </g>
     <g id="text_1">
      <!-- 0 -->
      <defs>
       <path d="
M51.7031 34.4219
Q51.7031 24.5156 49.8281 17.75
Q47.9531 10.9844 44.7031 6.8125
Q41.4531 2.64062 37.0625 0.828125
Q32.6719 -0.984375 27.6875 -0.984375
Q22.6562 -0.984375 18.3125 0.828125
Q13.9688 2.64062 10.7656 6.78125
Q7.5625 10.9375 5.73438 17.7031
Q3.90625 24.4688 3.90625 34.4219
Q3.90625 44.8281 5.73438 51.6406
Q7.5625 58.4531 10.7812 62.5
Q14.0156 66.5469 18.4062 68.1875
Q22.7969 69.8281 27.9844 69.8281
Q32.9062 69.8281 37.2188 68.1875
Q41.5469 66.5469 44.7656 62.5
Q48 58.4531 49.8438 51.6406
Q51.7031 44.8281 51.7031 34.4219
M42.7812 34.4219
Q42.7812 42.625 41.7969 48.0625
Q40.8281 53.5156 38.9219 56.7656
Q37.0156 60.0156 34.25 61.3594
Q31.5 62.7031 27.9844 62.7031
Q24.2656 62.7031 21.4375 61.3281
Q18.6094 59.9688 16.6719 56.7188
Q14.75 53.4688 13.7656 48.0156
Q12.7969 42.5781 12.7969 34.4219
Q12.7969 26.5156 13.7969 21.0938
Q14.7969 15.6719 16.7188 12.375
Q18.6562 9.07812 21.4375 7.64062
Q24.2188 6.20312 27.7812 6.20312
Q31.25 6.20312 34.0312 7.64062
Q36.8125 9.07812 38.7344 12.375
Q40.6719 15.6719 41.7188 21.0938
Q42.7812 26.5156 42.7812 34.4219" id="LiberationSans-30"/>
      </defs>
      <g style="fill:#262626;" transform="translate(85.04975 349.459)scale(0.16 -0.16)">
       <use xlink:href="#LiberationSans-30"/>
      </g>
     </g>
    </g>
    <g id="xtick_2">
     <g id="line2d_4">
      <path clip-path="url(#p2ead28f7df)" d="
M134.713 330.864
L134.713 28.386" style="fill:none;stroke:#ffffff;stroke-linecap:round;"/>
     </g>
     <g id="line2d_5">
      <g>
       <use style="fill:#262626;stroke:#262626;" x="134.713096875" xlink:href="#m219da94a98" y="330.864"/>
      </g>
     </g>
     <g id="line2d_6">
      <g>
       <use style="fill:#262626;stroke:#262626;" x="134.713096875" xlink:href="#m219da94a98" y="28.386"/>
      </g>
     </g>
     <g id="text_2">
      <!-- 1 -->
      <defs>
       <path d="
M7.625 0
L7.625 7.46875
L25.1406 7.46875
L25.1406 60.4062
L9.625 49.3125
L9.625 57.625
L25.875 68.7969
L33.9844 68.7969
L33.9844 7.46875
L50.7344 7.46875
L50.7344 0
z
" id="LiberationSans-31"/>
      </defs>
      <g style="fill:#262626;" transform="translate(131.264346875 349.459)scale(0.16 -0.16)">
       <use xlink:href="#LiberationSans-31"/>
      </g>
     </g>
    </g>
    <g id="xtick_3">
     <g id="line2d_7">
      <path clip-path="url(#p2ead28f7df)" d="
M180.553 330.864
L180.553 28.386" style="fill:none;stroke:#ffffff;stroke-linecap:round;"/>
     </g>
     <g id="line2d_8">
      <g>
       <use style="fill:#262626;stroke:#262626;" x="180.55269375" xlink:href="#m219da94a98" y="330.864"/>
      </g>
     </g>
     <g id="line2d_9">
      <g>
       <use style="fill:#262626;stroke:#262626;" x="180.55269375" xlink:href="#m219da94a98" y="28.386"/>
      </g>
     </g>
     <g id="text_3">
      <!-- 2 -->
      <defs>
       <path d="
M5.03125 0
L5.03125 6.20312
Q7.51562 11.9219 11.1094 16.2812
Q14.7031 20.6562 18.6562 24.1875
Q22.6094 27.7344 26.4844 30.7656
Q30.375 33.7969 33.5 36.8125
Q36.625 39.8438 38.5469 43.1562
Q40.4844 46.4844 40.4844 50.6875
Q40.4844 53.6094 39.5938 55.8281
Q38.7188 58.0625 37.0625 59.5625
Q35.4062 61.0781 33.0781 61.8281
Q30.7656 62.5938 27.9375 62.5938
Q25.2969 62.5938 22.9688 61.8594
Q20.6562 61.1406 18.8438 59.6719
Q17.0469 58.2031 15.8906 56.0312
Q14.75 53.8594 14.4062 50.9844
L5.42188 51.8125
Q5.85938 55.5156 7.46875 58.7812
Q9.07812 62.0625 11.9062 64.5312
Q14.75 67 18.7188 68.4062
Q22.7031 69.8281 27.9375 69.8281
Q33.0625 69.8281 37.0625 68.6094
Q41.0625 67.3906 43.8125 64.9844
Q46.5781 62.5938 48.0469 59.0781
Q49.5156 55.5625 49.5156 50.9844
Q49.5156 47.5156 48.2656 44.3906
Q47.0156 41.2656 44.9375 38.4219
Q42.875 35.5938 40.1406 32.9531
Q37.4062 30.3281 34.4219 27.8125
Q31.4531 25.2969 28.4219 22.8281
Q25.3906 20.3594 22.7188 17.8594
Q20.0625 15.375 17.9688 12.8125
Q15.875 10.25 14.7031 7.46875
L50.5938 7.46875
L50.5938 0
z
" id="LiberationSans-32"/>
      </defs>
      <g style="fill:#262626;" transform="translate(176.90769375 349.459)scale(0.16 -0.16)">
       <use xlink:href="#LiberationSans-32"/>
      </g>
     </g>
    </g>
    <g id="xtick_4">
     <g id="line2d_10">
      <path clip-path="url(#p2ead28f7df)" d="
M226.392 330.864
L226.392 28.386" style="fill:none;stroke:#ffffff;stroke-linecap:round;"/>
     </g>
     <g id="line2d_11">
      <g>
       <use style="fill:#262626;stroke:#262626;" x="226.392290625" xlink:href="#m219da94a98" y="330.864"/>
      </g>
     </g>
     <g id="line2d_12">
      <g>
       <use style="fill:#262626;stroke:#262626;" x="226.392290625" xlink:href="#m219da94a98" y="28.386"/>
      </g>
     </g>
     <g id="text_4">
      <!-- 3 -->
      <defs>
       <path d="
M51.2188 19
Q51.2188 14.2656 49.6719 10.5469
Q48.1406 6.84375 45.1875 4.26562
Q42.2344 1.70312 37.8594 0.359375
Q33.5 -0.984375 27.875 -0.984375
Q21.4844 -0.984375 17.1094 0.609375
Q12.75 2.20312 9.90625 4.8125
Q7.07812 7.42188 5.65625 10.7656
Q4.25 14.1094 3.8125 17.6719
L12.8906 18.5
Q13.2812 15.7656 14.3281 13.5156
Q15.375 11.2812 17.1875 9.67188
Q19 8.0625 21.625 7.17188
Q24.2656 6.29688 27.875 6.29688
Q34.5156 6.29688 38.2969 9.5625
Q42.0938 12.8438 42.0938 19.2812
Q42.0938 23.0938 40.4062 25.4062
Q38.7188 27.7344 36.2031 29.0312
Q33.6875 30.3281 30.7344 30.7656
Q27.7812 31.2031 25.2969 31.2031
L20.3125 31.2031
L20.3125 38.8125
L25.0938 38.8125
Q27.5938 38.8125 30.2656 39.3281
Q32.9531 39.8438 35.1719 41.1875
Q37.4062 42.5312 38.8438 44.8281
Q40.2812 47.125 40.2812 50.6875
Q40.2812 56.2031 37.0312 59.3906
Q33.7969 62.5938 27.3906 62.5938
Q21.5781 62.5938 17.9844 59.6094
Q14.4062 56.6406 13.8125 51.2188
L4.98438 51.9062
Q5.51562 56.4531 7.46875 59.8125
Q9.42188 63.1875 12.4219 65.4062
Q15.4375 67.625 19.2812 68.7188
Q23.1406 69.8281 27.4844 69.8281
Q33.25 69.8281 37.3906 68.375
Q41.5469 66.9375 44.1875 64.4688
Q46.8281 62.0156 48.0625 58.6875
Q49.3125 55.375 49.3125 51.6094
Q49.3125 48.5781 48.4844 45.9375
Q47.6562 43.3125 45.8906 41.2031
Q44.1406 39.1094 41.4219 37.5938
Q38.7188 36.0781 34.9062 35.2969
L34.9062 35.1094
Q39.0625 34.6719 42.1406 33.2188
Q45.2188 31.7812 47.2188 29.625
Q49.2188 27.4844 50.2188 24.75
Q51.2188 22.0156 51.2188 19" id="LiberationSans-33"/>
      </defs>
      <g style="fill:#262626;" transform="translate(222.599790625 349.459)scale(0.16 -0.16)">
       <use xlink:href="#LiberationSans-33"/>
      </g>
     </g>
    </g>
    <g id="xtick_5">
     <g id="line2d_13">
      <path clip-path="url(#p2ead28f7df)" d="
M272.232 330.864
L272.232 28.386" style="fill:none;stroke:#ffffff;stroke-linecap:round;"/>
     </g>
     <g id="line2d_14">
      <g>
       <use style="fill:#262626;stroke:#262626;" x="272.2318875" xlink:href="#m219da94a98" y="330.864"/>
      </g>
     </g>
     <g id="line2d_15">
      <g>
       <use style="fill:#262626;stroke:#262626;" x="272.2318875" xlink:href="#m219da94a98" y="28.386"/>
      </g>
     </g>
     <g id="text_5">
      <!-- 4 -->
      <defs>
       <path d="
M43.0156 15.5781
L43.0156 0
L34.7188 0
L34.7188 15.5781
L2.29688 15.5781
L2.29688 22.4062
L33.7969 68.7969
L43.0156 68.7969
L43.0156 22.5156
L52.6875 22.5156
L52.6875 15.5781
z

M34.7188 58.8906
Q34.625 58.6406 34.2344 57.9375
Q33.8438 57.2344 33.3438 56.3438
Q32.8594 55.4688 32.3438 54.5625
Q31.8438 53.6562 31.4531 53.0781
L13.8125 27.0938
Q13.5781 26.7031 13.1094 26.0625
Q12.6406 25.4375 12.1562 24.7812
Q11.6719 24.125 11.1719 23.4844
Q10.6875 22.8594 10.4062 22.5156
L34.7188 22.5156
z
" id="LiberationSans-34"/>
      </defs>
      <g style="fill:#262626;" transform="translate(268.2006375 349.459)scale(0.16 -0.16)">
       <use xlink:href="#LiberationSans-34"/>
      </g>
     </g>
    </g>
    <g id="xtick_6">
     <g id="line2d_16">
      <path clip-path="url(#p2ead28f7df)" d="
M318.071 330.864
L318.071 28.386" style="fill:none;stroke:#ffffff;stroke-linecap:round;"/>
     </g>
     <g id="line2d_17">
      <g>
       <use style="fill:#262626;stroke:#262626;" x="318.071484375" xlink:href="#m219da94a98" y="330.864"/>
      </g>
     </g>
     <g id="line2d_18">
      <g>
       <use style="fill:#262626;stroke:#262626;" x="318.071484375" xlink:href="#m219da94a98" y="28.386"/>
      </g>
     </g>
     <g id="text_6">
      <!-- 5 -->
      <defs>
       <path d="
M51.4219 22.4062
Q51.4219 17.2344 49.8594 12.9375
Q48.2969 8.64062 45.2188 5.53125
Q42.1406 2.4375 37.5781 0.71875
Q33.0156 -0.984375 27 -0.984375
Q21.5781 -0.984375 17.5469 0.28125
Q13.5312 1.5625 10.7344 3.78125
Q7.95312 6 6.3125 8.98438
Q4.6875 11.9688 4 15.375
L12.8906 16.4062
Q13.4219 14.4531 14.3906 12.625
Q15.375 10.7969 17.0625 9.34375
Q18.75 7.90625 21.2188 7.04688
Q23.6875 6.20312 27.2031 6.20312
Q30.6094 6.20312 33.3906 7.25
Q36.1875 8.29688 38.1562 10.3438
Q40.1406 12.4062 41.2031 15.375
Q42.2812 18.3594 42.2812 22.2188
Q42.2812 25.3906 41.25 28.0469
Q40.2344 30.7188 38.3281 32.6406
Q36.4219 34.5781 33.6562 35.6406
Q30.9062 36.7188 27.3906 36.7188
Q25.2031 36.7188 23.3438 36.3281
Q21.4844 35.9375 19.8906 35.25
Q18.3125 34.5781 17.0156 33.6719
Q15.7188 32.7656 14.5938 31.7812
L6 31.7812
L8.29688 68.7969
L47.4062 68.7969
L47.4062 61.3281
L16.3125 61.3281
L14.9844 39.5
Q17.3281 41.3125 20.8438 42.5938
Q24.3594 43.8906 29.2031 43.8906
Q34.3281 43.8906 38.4219 42.3281
Q42.5312 40.7656 45.4062 37.9062
Q48.2969 35.0625 49.8594 31.1094
Q51.4219 27.1562 51.4219 22.4062" id="LiberationSans-35"/>
      </defs>
      <g style="fill:#262626;" transform="translate(314.277734375 349.459)scale(0.16 -0.16)">
       <use xlink:href="#LiberationSans-35"/>
      </g>
     </g>
    </g>
    <g id="xtick_7">
     <g id="line2d_19">
      <path clip-path="url(#p2ead28f7df)" d="
M363.911 330.864
L363.911 28.386" style="fill:none;stroke:#ffffff;stroke-linecap:round;"/>
     </g>
     <g id="line2d_20">
      <g>
       <use style="fill:#262626;stroke:#262626;" x="363.91108125" xlink:href="#m219da94a98" y="330.864"/>
      </g>
     </g>
     <g id="line2d_21">
      <g>
       <use style="fill:#262626;stroke:#262626;" x="363.91108125" xlink:href="#m219da94a98" y="28.386"/>
      </g>
     </g>
     <g id="text_7">
      <!-- 6 -->
      <defs>
       <path d="
M51.2188 22.5156
Q51.2188 17.3281 49.7812 13
Q48.3438 8.6875 45.5312 5.57812
Q42.7188 2.48438 38.5625 0.75
Q34.4219 -0.984375 29 -0.984375
Q23 -0.984375 18.5 1.3125
Q14.0156 3.60938 11.0312 7.92188
Q8.0625 12.25 6.5625 18.5312
Q5.07812 24.8125 5.07812 32.8125
Q5.07812 42 6.76562 48.9219
Q8.45312 55.8594 11.625 60.5
Q14.7969 65.1406 19.3594 67.4844
Q23.9219 69.8281 29.6875 69.8281
Q33.2031 69.8281 36.2812 69.0938
Q39.3594 68.3594 41.875 66.7188
Q44.3906 65.0938 46.2812 62.4062
Q48.1875 59.7188 49.3125 55.8125
L40.9219 54.2969
Q39.5469 58.7344 36.5469 60.7188
Q33.5469 62.7031 29.5938 62.7031
Q25.9844 62.7031 23.0469 60.9844
Q20.125 59.2812 18.0625 55.875
Q16.0156 52.4844 14.9062 47.3594
Q13.8125 42.2344 13.8125 35.4062
Q16.2188 39.8438 20.5625 42.1562
Q24.9062 44.4844 30.5156 44.4844
Q35.2031 44.4844 39.0156 42.9688
Q42.8281 41.4531 45.5312 38.5938
Q48.25 35.75 49.7344 31.6719
Q51.2188 27.5938 51.2188 22.5156
M42.2812 22.125
Q42.2812 25.6875 41.4062 28.5625
Q40.5312 31.4531 38.7656 33.4688
Q37.0156 35.5 34.4219 36.5938
Q31.8438 37.7031 28.4219 37.7031
Q26.0312 37.7031 23.5781 36.9844
Q21.1406 36.2812 19.1562 34.6875
Q17.1875 33.1094 15.9375 30.5156
Q14.7031 27.9375 14.7031 24.2188
Q14.7031 20.4062 15.6719 17.1094
Q16.6562 13.8125 18.4844 11.375
Q20.3125 8.9375 22.8906 7.51562
Q25.4844 6.10938 28.7188 6.10938
Q31.8906 6.10938 34.4062 7.20312
Q36.9219 8.29688 38.6719 10.375
Q40.4375 12.4531 41.3594 15.4219
Q42.2812 18.4062 42.2812 22.125" id="LiberationSans-36"/>
      </defs>
      <g style="fill:#262626;" transform="translate(360.21983125 349.459)scale(0.16 -0.16)">
       <use xlink:href="#LiberationSans-36"/>
      </g>
     </g>
    </g>
    <g id="xtick_8">
     <g id="line2d_22">
      <path clip-path="url(#p2ead28f7df)" d="
M409.751 330.864
L409.751 28.386" style="fill:none;stroke:#ffffff;stroke-linecap:round;"/>
     </g>
     <g id="line2d_23">
      <g>
       <use style="fill:#262626;stroke:#262626;" x="409.750678125" xlink:href="#m219da94a98" y="330.864"/>
      </g>
     </g>
     <g id="line2d_24">
      <g>
       <use style="fill:#262626;stroke:#262626;" x="409.750678125" xlink:href="#m219da94a98" y="28.386"/>
      </g>
     </g>
     <g id="text_8">
      <!-- 7 -->
      <defs>
       <path d="
M50.5938 61.6719
Q45.4062 53.7656 41.0625 46.4531
Q36.7188 39.1562 33.5938 31.75
Q30.4688 24.3594 28.7344 16.5781
Q27 8.79688 27 0
L17.8281 0
Q17.8281 8.25 19.7812 16.1875
Q21.7344 24.125 25.0469 31.7656
Q28.375 39.4062 32.7656 46.7812
Q37.1562 54.1562 42.0938 61.3281
L5.125 61.3281
L5.125 68.7969
L50.5938 68.7969
z
" id="LiberationSans-37"/>
      </defs>
      <g style="fill:#262626;" transform="translate(406.113178125 349.459)scale(0.16 -0.16)">
       <use xlink:href="#LiberationSans-37"/>
      </g>
     </g>
    </g>
    <g id="xtick_9">
     <g id="line2d_25">
      <path clip-path="url(#p2ead28f7df)" d="
M455.59 330.864
L455.59 28.386" style="fill:none;stroke:#ffffff;stroke-linecap:round;"/>
     </g>
     <g id="line2d_26">
      <g>
       <use style="fill:#262626;stroke:#262626;" x="455.590275" xlink:href="#m219da94a98" y="330.864"/>
      </g>
     </g>
     <g id="line2d_27">
      <g>
       <use style="fill:#262626;stroke:#262626;" x="455.590275" xlink:href="#m219da94a98" y="28.386"/>
      </g>
     </g>
     <g id="text_9">
      <!-- 8 -->
      <defs>
       <path d="
M51.2656 19.1875
Q51.2656 14.7969 49.875 11.1094
Q48.4844 7.42188 45.625 4.73438
Q42.7812 2.04688 38.3281 0.53125
Q33.8906 -0.984375 27.8281 -0.984375
Q21.7812 -0.984375 17.3594 0.53125
Q12.9375 2.04688 10.0312 4.70312
Q7.125 7.375 5.73438 11.0625
Q4.34375 14.75 4.34375 19.0938
Q4.34375 22.8594 5.48438 25.7812
Q6.64062 28.7188 8.5625 30.8281
Q10.5 32.9531 12.9688 34.25
Q15.4375 35.5469 18.0625 35.9844
L18.0625 36.1875
Q15.1875 36.8594 12.9062 38.375
Q10.6406 39.8906 9.09375 42.0156
Q7.5625 44.1406 6.75 46.7188
Q5.95312 49.3125 5.95312 52.2031
Q5.95312 55.8125 7.34375 59
Q8.73438 62.2031 11.4688 64.625
Q14.2031 67.0469 18.25 68.4375
Q22.3125 69.8281 27.6406 69.8281
Q33.25 69.8281 37.375 68.4062
Q41.5 67 44.2031 64.5781
Q46.9219 62.1562 48.2344 58.9375
Q49.5625 55.7188 49.5625 52.0938
Q49.5625 49.2656 48.75 46.6719
Q47.9531 44.0938 46.4062 41.9688
Q44.875 39.8438 42.5938 38.3438
Q40.3281 36.8594 37.3594 36.2812
L37.3594 36.0781
Q40.3281 35.5938 42.8594 34.2969
Q45.4062 33.0156 47.2656 30.8906
Q49.125 28.7656 50.1875 25.8281
Q51.2656 22.9062 51.2656 19.1875
M40.4375 51.6094
Q40.4375 54.2031 39.7656 56.3438
Q39.1094 58.5 37.5938 60.0312
Q36.0781 61.5781 33.6406 62.4219
Q31.2031 63.2812 27.6406 63.2812
Q24.1719 63.2812 21.7812 62.4219
Q19.3906 61.5781 17.8438 60.0312
Q16.3125 58.5 15.625 56.3438
Q14.9375 54.2031 14.9375 51.6094
Q14.9375 49.5625 15.4688 47.4062
Q16.0156 45.2656 17.4219 43.5
Q18.8438 41.75 21.3281 40.625
Q23.8281 39.5 27.7344 39.5
Q31.8906 39.5 34.4062 40.625
Q36.9219 41.75 38.25 43.5
Q39.5938 45.2656 40.0156 47.4062
Q40.4375 49.5625 40.4375 51.6094
M42.1406 20.0156
Q42.1406 22.5156 41.4531 24.8281
Q40.7656 27.1562 39.1094 28.9375
Q37.4531 30.7188 34.6406 31.8125
Q31.8438 32.9062 27.6406 32.9062
Q23.7812 32.9062 21.0625 31.8125
Q18.3594 30.7188 16.6719 28.9062
Q14.9844 27.0938 14.2031 24.7188
Q13.4219 22.3594 13.4219 19.8281
Q13.4219 16.6562 14.2031 14.0312
Q14.9844 11.4219 16.6875 9.54688
Q18.4062 7.67188 21.1875 6.64062
Q23.9688 5.60938 27.9375 5.60938
Q31.9375 5.60938 34.6719 6.64062
Q37.4062 7.67188 39.0625 9.54688
Q40.7188 11.4219 41.4219 14.0781
Q42.1406 16.75 42.1406 20.0156" id="LiberationSans-38"/>
      </defs>
      <g style="fill:#262626;" transform="translate(451.836525 349.459)scale(0.16 -0.16)">
       <use xlink:href="#LiberationSans-38"/>
      </g>
     </g>
    </g>
    <g id="xtick_10">
     <g id="line2d_28">
      <path clip-path="url(#p2ead28f7df)" d="
M501.43 330.864
L501.43 28.386" style="fill:none;stroke:#ffffff;stroke-linecap:round;"/>
     </g>
     <g id="line2d_29">
      <g>
       <use style="fill:#262626;stroke:#262626;" x="501.429871875" xlink:href="#m219da94a98" y="330.864"/>
      </g>
     </g>
     <g id="line2d_30">
      <g>
       <use style="fill:#262626;stroke:#262626;" x="501.429871875" xlink:href="#m219da94a98" y="28.386"/>
      </g>
     </g>
     <g id="text_10">
      <!-- 9 -->
      <defs>
       <path d="
M50.875 35.7969
Q50.875 26.6094 49.1406 19.7031
Q47.4062 12.7969 44.1875 8.20312
Q40.9688 3.60938 36.3438 1.3125
Q31.7344 -0.984375 25.9844 -0.984375
Q22.0156 -0.984375 18.8438 -0.171875
Q15.6719 0.640625 13.1719 2.34375
Q10.6875 4.04688 8.92188 6.78125
Q7.17188 9.51562 6.10938 13.375
L14.5 14.7031
Q15.875 10.25 18.7812 8.17188
Q21.6875 6.10938 26.125 6.10938
Q29.6875 6.10938 32.6406 7.78125
Q35.5938 9.46875 37.6719 12.8438
Q39.75 16.2188 40.9219 21.2969
Q42.0938 26.375 42.1875 33.2031
Q41.1562 30.9062 39.375 29.0938
Q37.5938 27.2969 35.3281 26.0469
Q33.0625 24.8125 30.4219 24.1406
Q27.7812 23.4844 25.0938 23.4844
Q20.4062 23.4844 16.625 25.1719
Q12.8438 26.8594 10.2031 29.875
Q7.5625 32.9062 6.125 37.1719
Q4.6875 41.4531 4.6875 46.6875
Q4.6875 52 6.21875 56.2969
Q7.76562 60.5938 10.6875 63.5938
Q13.625 66.6094 17.8906 68.2188
Q22.1719 69.8281 27.5938 69.8281
Q39.0625 69.8281 44.9688 61.3281
Q50.875 52.8281 50.875 35.7969
M41.3125 44.2812
Q41.3125 48.0938 40.4062 51.4531
Q39.5 54.8281 37.7188 57.3125
Q35.9375 59.8125 33.3281 61.25
Q30.7188 62.7031 27.2969 62.7031
Q24.125 62.7031 21.5781 61.5781
Q19.0469 60.4531 17.2812 58.375
Q15.5312 56.2969 14.5781 53.3125
Q13.625 50.3438 13.625 46.6875
Q13.625 43.2188 14.4688 40.2344
Q15.3281 37.25 17.0312 35.0781
Q18.75 32.9062 21.2812 31.6562
Q23.8281 30.4219 27.2031 30.4219
Q29.6406 30.4219 32.1562 31.25
Q34.6719 32.0781 36.6875 33.7812
Q38.7188 35.5 40.0156 38.1094
Q41.3125 40.7188 41.3125 44.2812" id="LiberationSans-39"/>
      </defs>
      <g style="fill:#262626;" transform="translate(497.734871875 349.459)scale(0.16 -0.16)">
       <use xlink:href="#LiberationSans-39"/>
      </g>
     </g>
    </g>
    <g id="xtick_11">
     <g id="line2d_31">
      <path clip-path="url(#p2ead28f7df)" d="
M547.269 330.864
L547.269 28.386" style="fill:none;stroke:#ffffff;stroke-linecap:round;"/>
     </g>
     <g id="line2d_32">
      <g>
       <use style="fill:#262626;stroke:#262626;" x="547.26946875" xlink:href="#m219da94a98" y="330.864"/>
      </g>
     </g>
     <g id="line2d_33">
      <g>
       <use style="fill:#262626;stroke:#262626;" x="547.26946875" xlink:href="#m219da94a98" y="28.386"/>
      </g>
     </g>
     <g id="text_11">
      <!-- 10 -->
      <g style="fill:#262626;" transform="translate(539.29446875 349.459)scale(0.16 -0.16)">
       <use xlink:href="#LiberationSans-31"/>
       <use x="55.615234375" xlink:href="#LiberationSans-30"/>
      </g>
     </g>
    </g>
    <g id="text_12">
     <!-- Distance (Number of Branches) -->
     <defs>
      <path d="
M46.3906 14.5938
Q46.3906 10.8906 44.9375 7.98438
Q43.5 5.07812 40.7656 3.09375
Q38.0312 1.125 34.0469 0.0625
Q30.0781 -0.984375 24.9531 -0.984375
Q20.3594 -0.984375 16.6719 -0.265625
Q12.9844 0.4375 10.2031 2
Q7.42188 3.5625 5.53125 6.125
Q3.65625 8.6875 2.78125 12.4062
L10.5469 13.9219
Q11.6719 9.67188 15.1875 7.6875
Q18.7031 5.71875 24.9531 5.71875
Q27.7812 5.71875 30.1406 6.10938
Q32.5156 6.5 34.2188 7.45312
Q35.9375 8.40625 36.8906 9.98438
Q37.8438 11.5781 37.8438 13.9219
Q37.8438 16.3125 36.7188 17.8438
Q35.5938 19.3906 33.5938 20.4062
Q31.5938 21.4375 28.7344 22.1875
Q25.875 22.9531 22.4688 23.875
Q19.2812 24.7031 16.1562 25.7344
Q13.0312 26.7656 10.5156 28.4375
Q8.01562 30.125 6.45312 32.6094
Q4.89062 35.1094 4.89062 38.875
Q4.89062 46.0938 10.0312 49.875
Q15.1875 53.6562 25.0469 53.6562
Q33.7969 53.6562 38.9375 50.5781
Q44.0938 47.5156 45.4531 40.7188
L37.5469 39.75
Q37.1094 41.7969 35.9375 43.1875
Q34.7656 44.5781 33.1094 45.4375
Q31.4531 46.2969 29.375 46.6562
Q27.2969 47.0156 25.0469 47.0156
Q19.0938 47.0156 16.25 45.2031
Q13.4219 43.4062 13.4219 39.75
Q13.4219 37.5938 14.4688 36.2031
Q15.5312 34.8125 17.4062 33.8594
Q19.2812 32.9062 21.9219 32.2031
Q24.5625 31.5 27.7344 30.7188
Q29.8281 30.1719 32.0312 29.5625
Q34.2344 28.9531 36.2969 28.0938
Q38.375 27.25 40.2031 26.0938
Q42.0469 24.9531 43.4062 23.3438
Q44.7812 21.7344 45.5781 19.5781
Q46.3906 17.4375 46.3906 14.5938" id="LiberationSans-73"/>
      <path d="
M13.4844 24.5625
Q13.4844 20.4062 14.3281 16.9062
Q15.1875 13.4219 16.9688 10.9062
Q18.75 8.40625 21.5312 7
Q24.3125 5.60938 28.2188 5.60938
Q33.9375 5.60938 37.375 7.90625
Q40.8281 10.2031 42.0469 13.7188
L49.75 11.5312
Q48.9219 9.32812 47.4375 7.10938
Q45.9531 4.89062 43.4531 3.09375
Q40.9688 1.3125 37.2344 0.15625
Q33.5 -0.984375 28.2188 -0.984375
Q16.5 -0.984375 10.375 6
Q4.25 12.9844 4.25 26.7656
Q4.25 34.1875 6.09375 39.3281
Q7.95312 44.4844 11.1719 47.7031
Q14.4062 50.9219 18.7031 52.3594
Q23 53.8125 27.875 53.8125
Q34.5156 53.8125 38.9844 51.6562
Q43.4531 49.5156 46.1562 45.7188
Q48.875 41.9375 50.0156 36.8125
Q51.1719 31.6875 51.1719 25.7344
L51.1719 24.5625
z

M42.0938 31.2969
Q41.3594 39.6562 37.8438 43.4844
Q34.3281 47.3125 27.7344 47.3125
Q25.5312 47.3125 23.1094 46.6094
Q20.7031 45.9062 18.6562 44.0938
Q16.6094 42.2812 15.1875 39.1719
Q13.7656 36.0781 13.5781 31.2969
z
" id="LiberationSans-65"/>
      <path d="
M17.625 46.4375
L17.625 0
L8.84375 0
L8.84375 46.4375
L1.42188 46.4375
L1.42188 52.8281
L8.84375 52.8281
L8.84375 58.7969
Q8.84375 61.6719 9.375 64.1406
Q9.90625 66.6094 11.3438 68.4375
Q12.7969 70.2656 15.2812 71.3125
Q17.7812 72.3594 21.7344 72.3594
Q23.2969 72.3594 24.9688 72.2188
Q26.6562 72.0781 27.9375 71.7812
L27.9375 65.0938
Q27.0938 65.2344 26 65.3594
Q24.9062 65.4844 24.0312 65.4844
Q22.0781 65.4844 20.8281 64.9375
Q19.5781 64.4062 18.875 63.4062
Q18.1719 62.4062 17.8906 60.9375
Q17.625 59.4688 17.625 57.5625
L17.625 52.8281
L27.9375 52.8281
L27.9375 46.4375
z
" id="LiberationSans-66"/>
      <path d="
M52.8281 0
L16.0156 58.5938
Q16.1094 56.2031 16.2656 53.8594
Q16.3594 51.8594 16.4219 49.625
Q16.5 47.4062 16.5 45.7031
L16.5 0
L8.20312 0
L8.20312 68.7969
L19.0469 68.7969
L56.25 9.8125
Q56.1094 12.2031 55.9531 14.5938
Q55.8594 16.6562 55.7656 19.0625
Q55.6719 21.4844 55.6719 23.6875
L55.6719 68.7969
L64.0625 68.7969
L64.0625 0
z
" id="LiberationSans-4e"/>
      <path d="
M20.2188 -0.984375
Q12.25 -0.984375 8.25 3.21875
Q4.25 7.42188 4.25 14.75
Q4.25 19.9688 6.21875 23.3125
Q8.20312 26.6562 11.3906 28.5625
Q14.5938 30.4688 18.6875 31.2031
Q22.7969 31.9375 27.0469 32.0312
L38.9219 32.2344
L38.9219 35.1094
Q38.9219 38.375 38.2344 40.6719
Q37.5469 42.9688 36.125 44.375
Q34.7188 45.7969 32.5938 46.4531
Q30.4688 47.125 27.5938 47.125
Q25.0469 47.125 23 46.75
Q20.9531 46.3906 19.4375 45.4375
Q17.9219 44.4844 16.9844 42.8438
Q16.0625 41.2188 15.7656 38.7188
L6.59375 39.5469
Q7.07812 42.6719 8.4375 45.2812
Q9.8125 47.9062 12.3281 49.7969
Q14.8438 51.7031 18.625 52.75
Q22.4062 53.8125 27.7812 53.8125
Q37.75 53.8125 42.7656 49.2344
Q47.7969 44.6719 47.7969 36.0312
L47.7969 13.2812
Q47.7969 9.375 48.8281 7.39062
Q49.8594 5.42188 52.7344 5.42188
Q53.4688 5.42188 54.2031 5.51562
Q54.9375 5.60938 55.6094 5.76562
L55.6094 0.296875
Q53.9531 -0.09375 52.3125 -0.28125
Q50.6875 -0.484375 48.8281 -0.484375
Q46.3438 -0.484375 44.5625 0.171875
Q42.7812 0.828125 41.6562 2.17188
Q40.5312 3.51562 39.9375 5.48438
Q39.3594 7.46875 39.2031 10.1094
L38.9219 10.1094
Q37.5 7.5625 35.8125 5.51562
Q34.125 3.46875 31.875 2.03125
Q29.6406 0.59375 26.7812 -0.1875
Q23.9219 -0.984375 20.2188 -0.984375
M22.2188 5.60938
Q26.4219 5.60938 29.5625 7.14062
Q32.7188 8.6875 34.7812 11.0781
Q36.8594 13.4844 37.8906 16.3125
Q38.9219 19.1406 38.9219 21.7344
L38.9219 26.0781
L29.2969 25.875
Q26.0781 25.8281 23.1719 25.4062
Q20.2656 25 18.0625 23.7812
Q15.875 22.5625 14.5781 20.3594
Q13.2812 18.1719 13.2812 14.5938
Q13.2812 10.2969 15.5938 7.95312
Q17.9219 5.60938 22.2188 5.60938" id="LiberationSans-61"/>
      <path d="
M15.3281 52.8281
L15.3281 19.3438
Q15.3281 15.4844 15.8906 12.8906
Q16.4531 10.2969 17.7188 8.70312
Q19 7.125 21.0625 6.46875
Q23.1406 5.8125 26.2188 5.8125
Q29.3438 5.8125 31.8594 6.90625
Q34.375 8.01562 36.1562 10.0781
Q37.9375 12.1562 38.9062 15.2031
Q39.8906 18.2656 39.8906 22.2188
L39.8906 52.8281
L48.6875 52.8281
L48.6875 11.2812
Q48.6875 9.625 48.7031 7.78125
Q48.7344 5.95312 48.7812 4.3125
Q48.8281 2.6875 48.875 1.51562
Q48.9219 0.34375 48.9688 0
L40.6719 0
Q40.625 0.25 40.5781 1.3125
Q40.5312 2.39062 40.4531 3.78125
Q40.375 5.17188 40.3281 6.60938
Q40.2812 8.0625 40.2812 9.03125
L40.1406 9.03125
Q38.875 6.73438 37.3594 4.875
Q35.8438 3.03125 33.8438 1.73438
Q31.8438 0.4375 29.25 -0.265625
Q26.6562 -0.984375 23.25 -0.984375
Q18.8438 -0.984375 15.6719 0.09375
Q12.5 1.17188 10.4531 3.42188
Q8.40625 5.67188 7.45312 9.1875
Q6.5 12.7031 6.5 17.625
L6.5 52.8281
z
" id="LiberationSans-75"/>
      <path d="
M27.0469 0.390625
Q25.0469 -0.140625 22.9688 -0.453125
Q20.9062 -0.78125 18.1719 -0.78125
Q7.625 -0.78125 7.625 11.1875
L7.625 46.4375
L1.51562 46.4375
L1.51562 52.8281
L7.95312 52.8281
L10.5469 64.6562
L16.4062 64.6562
L16.4062 52.8281
L26.1719 52.8281
L26.1719 46.4375
L16.4062 46.4375
L16.4062 13.0938
Q16.4062 9.28125 17.6406 7.73438
Q18.8906 6.20312 21.9688 6.20312
Q23.25 6.20312 24.4375 6.39062
Q25.6406 6.59375 27.0469 6.89062
z
" id="LiberationSans-74"/>
      <path d="
M51.4219 26.6562
Q51.4219 -0.984375 31.9844 -0.984375
Q25.9844 -0.984375 22 1.1875
Q18.0156 3.375 15.5312 8.20312
L15.4375 8.20312
Q15.4375 6.9375 15.3594 5.5625
Q15.2812 4.20312 15.2031 3.03125
Q15.1406 1.85938 15.0625 1.03125
Q14.9844 0.203125 14.9375 0
L6.45312 0
Q6.5 0.4375 6.54688 1.48438
Q6.59375 2.54688 6.64062 4
Q6.6875 5.46875 6.70312 7.21875
Q6.73438 8.98438 6.73438 10.8906
L6.73438 72.4688
L15.5312 72.4688
L15.5312 51.8125
Q15.5312 50.3438 15.5 49
Q15.4844 47.6562 15.4375 46.625
Q15.375 45.4062 15.3281 44.3438
L15.5312 44.3438
Q17.9688 49.4219 22 51.6094
Q26.0312 53.8125 31.9844 53.8125
Q42 53.8125 46.7031 47.0625
Q51.4219 40.3281 51.4219 26.6562
M42.1875 26.375
Q42.1875 31.8438 41.5 35.75
Q40.8281 39.6562 39.3125 42.1562
Q37.7969 44.6719 35.4531 45.8438
Q33.1094 47.0156 29.7344 47.0156
Q26.2656 47.0156 23.6094 45.8906
Q20.9531 44.7812 19.1719 42.2812
Q17.3906 39.7969 16.4531 35.7344
Q15.5312 31.6875 15.5312 25.8281
Q15.5312 20.1719 16.4531 16.3125
Q17.3906 12.4531 19.1719 10.0312
Q20.9531 7.625 23.5781 6.5625
Q26.2188 5.51562 29.6406 5.51562
Q32.8594 5.51562 35.2031 6.64062
Q37.5469 7.76562 39.1094 10.25
Q40.6719 12.75 41.4219 16.7188
Q42.1875 20.7031 42.1875 26.375" id="LiberationSans-62"/>
      <path d="
M27.0938 25.7812
Q27.0938 18.9531 26.0625 12.7656
Q25.0469 6.59375 22.8438 0.875
Q20.6562 -4.82812 17.2344 -10.2031
Q13.8125 -15.5781 9.07812 -20.7031
L0.59375 -20.7031
Q5.17188 -15.5781 8.51562 -10.2031
Q11.8594 -4.82812 14 0.921875
Q16.1562 6.6875 17.2031 12.8906
Q18.2656 19.0938 18.2656 25.875
Q18.2656 32.6719 17.2031 38.8594
Q16.1562 45.0625 14 50.7969
Q11.8594 56.5469 8.51562 61.9375
Q5.17188 67.3281 0.59375 72.4688
L9.07812 72.4688
Q13.8125 67.3281 17.2344 61.9531
Q20.6562 56.5938 22.8438 50.875
Q25.0469 45.1719 26.0625 38.9688
Q27.0938 32.7656 27.0938 25.9844
z
" id="LiberationSans-29"/>
      <path d="
M13.4219 26.6562
Q13.4219 22.125 14.0781 18.3125
Q14.75 14.5 16.3125 11.7344
Q17.875 8.98438 20.4375 7.46875
Q23 5.95312 26.7656 5.95312
Q31.4531 5.95312 34.5938 8.48438
Q37.75 11.0312 38.4844 16.3125
L47.3594 15.7188
Q46.9219 12.4531 45.4531 9.42188
Q44 6.39062 41.4844 4.09375
Q38.9688 1.8125 35.3438 0.40625
Q31.7344 -0.984375 27 -0.984375
Q20.7969 -0.984375 16.4531 1.10938
Q12.1094 3.21875 9.39062 6.90625
Q6.6875 10.5938 5.46875 15.5938
Q4.25 20.6094 4.25 26.4688
Q4.25 31.7812 5.125 35.8594
Q6 39.9375 7.59375 42.9844
Q9.1875 46.0469 11.3281 48.125
Q13.4844 50.2031 15.9844 51.4375
Q18.5 52.6875 21.2812 53.25
Q24.0781 53.8125 26.9062 53.8125
Q31.3438 53.8125 34.8125 52.5938
Q38.2812 51.375 40.7969 49.25
Q43.3125 47.125 44.875 44.2344
Q46.4375 41.3594 47.0781 38.0312
L38.0312 37.3594
Q37.3594 41.75 34.5625 44.3281
Q31.7812 46.9219 26.6562 46.9219
Q22.9062 46.9219 20.3906 45.6719
Q17.875 44.4375 16.3125 41.9219
Q14.75 39.4062 14.0781 35.5938
Q13.4219 31.7812 13.4219 26.6562" id="LiberationSans-63"/>
      <path d="
M15.4844 43.7969
Q16.9375 46.4844 18.6406 48.3594
Q20.3594 50.25 22.4062 51.4688
Q24.4688 52.6875 26.9062 53.25
Q29.3438 53.8125 32.375 53.8125
Q37.4531 53.8125 40.7031 52.4375
Q43.9531 51.0781 45.8281 48.6094
Q47.7031 46.1406 48.4062 42.7188
Q49.125 39.3125 49.125 35.2031
L49.125 0
L40.2812 0
L40.2812 33.5
Q40.2812 36.8594 39.8594 39.3906
Q39.4531 41.9375 38.2812 43.625
Q37.1094 45.3125 34.9531 46.1562
Q32.8125 47.0156 29.3906 47.0156
Q26.2656 47.0156 23.75 45.8906
Q21.2344 44.7812 19.4531 42.7188
Q17.6719 40.6719 16.6875 37.7344
Q15.7188 34.8125 15.7188 31.1562
L15.7188 0
L6.9375 0
L6.9375 72.4688
L15.7188 72.4688
L15.7188 53.6094
Q15.7188 52 15.6719 50.3906
Q15.625 48.7812 15.5469 47.4062
Q15.4844 46.0469 15.4219 45.0938
Q15.375 44.1406 15.3281 43.7969
z
" id="LiberationSans-68"/>
      <path d="
M6.6875 64.0625
L6.6875 72.4688
L15.4844 72.4688
L15.4844 64.0625
z

M6.6875 0
L6.6875 52.8281
L15.4844 52.8281
L15.4844 0
z
" id="LiberationSans-69"/>
      <path d="
M6.9375 0
L6.9375 40.5312
Q6.9375 42.1875 6.90625 43.9219
Q6.89062 45.6562 6.82812 47.2656
Q6.78125 48.875 6.73438 50.2812
Q6.6875 51.7031 6.64062 52.8281
L14.9375 52.8281
Q14.9844 51.7031 15.0625 50.2656
Q15.1406 48.8281 15.2031 47.3125
Q15.2812 45.7969 15.2969 44.4062
Q15.3281 43.0156 15.3281 42.0469
L15.5312 42.0469
Q16.4531 45.0625 17.5 47.2812
Q18.5625 49.5156 19.9688 50.9531
Q21.3906 52.3906 23.3438 53.0938
Q25.2969 53.8125 28.0781 53.8125
Q29.1562 53.8125 30.125 53.6406
Q31.1094 53.4688 31.6406 53.3281
L31.6406 45.2656
Q30.7656 45.5156 29.5938 45.625
Q28.4219 45.75 26.9531 45.75
Q23.9219 45.75 21.7969 44.375
Q19.6719 43.0156 18.3281 40.5938
Q17 38.1875 16.3594 34.8438
Q15.7188 31.5 15.7188 27.5469
L15.7188 0
z
" id="LiberationSans-72"/>
      <path d="
M6.20312 25.9844
Q6.20312 32.7656 7.21875 38.9688
Q8.25 45.1719 10.4375 50.875
Q12.6406 56.5938 16.0625 61.9531
Q19.4844 67.3281 24.2188 72.4688
L32.7188 72.4688
Q28.125 67.3281 24.7812 61.9375
Q21.4375 56.5469 19.2812 50.7969
Q17.1406 45.0625 16.0938 38.8594
Q15.0469 32.6719 15.0469 25.875
Q15.0469 19.0938 16.0938 12.8906
Q17.1406 6.6875 19.2812 0.921875
Q21.4375 -4.82812 24.7812 -10.2031
Q28.125 -15.5781 32.7188 -20.7031
L24.2188 -20.7031
Q19.4844 -15.5781 16.0625 -10.2031
Q12.6406 -4.82812 10.4375 0.875
Q8.25 6.59375 7.21875 12.7656
Q6.20312 18.9531 6.20312 25.7812
z
" id="LiberationSans-28"/>
      <path d="
M40.2812 0
L40.2812 33.5
Q40.2812 37.3594 39.7188 39.9375
Q39.1562 42.5312 37.8906 44.1094
Q36.625 45.7031 34.5469 46.3594
Q32.4688 47.0156 29.3906 47.0156
Q26.2656 47.0156 23.75 45.9219
Q21.2344 44.8281 19.4531 42.75
Q17.6719 40.6719 16.6875 37.625
Q15.7188 34.5781 15.7188 30.6094
L15.7188 0
L6.9375 0
L6.9375 41.5469
Q6.9375 43.2188 6.90625 45.0469
Q6.89062 46.875 6.82812 48.5
Q6.78125 50.1406 6.73438 51.3125
Q6.6875 52.4844 6.64062 52.8281
L14.9375 52.8281
Q14.9844 52.5938 15.0312 51.5156
Q15.0938 50.4375 15.1562 49.0469
Q15.2344 47.6562 15.2812 46.2188
Q15.3281 44.7812 15.3281 43.7969
L15.4844 43.7969
Q16.75 46.0938 18.2656 47.9531
Q19.7812 49.8125 21.7812 51.0938
Q23.7812 52.3906 26.3594 53.0938
Q28.9531 53.8125 32.375 53.8125
Q36.7656 53.8125 39.9375 52.7344
Q43.1094 51.6562 45.1562 49.4062
Q47.2188 47.1719 48.1719 43.625
Q49.125 40.0938 49.125 35.2031
L49.125 0
z
" id="LiberationSans-6e"/>
      <path d="
M51.4219 26.4688
Q51.4219 12.5938 45.3125 5.79688
Q39.2031 -0.984375 27.5938 -0.984375
Q22.0781 -0.984375 17.7188 0.671875
Q13.375 2.34375 10.375 5.76562
Q7.375 9.1875 5.78125 14.3281
Q4.20312 19.4844 4.20312 26.4688
Q4.20312 53.8125 27.875 53.8125
Q34.0312 53.8125 38.5 52.0938
Q42.9688 50.3906 45.8281 46.9688
Q48.6875 43.5625 50.0469 38.4219
Q51.4219 33.2969 51.4219 26.4688
M42.1875 26.4688
Q42.1875 32.625 41.2344 36.625
Q40.2812 40.625 38.4531 43.0156
Q36.625 45.4062 33.9844 46.3594
Q31.3438 47.3125 28.0312 47.3125
Q24.6562 47.3125 21.9375 46.3125
Q19.2344 45.3125 17.3281 42.8906
Q15.4375 40.4844 14.4219 36.4688
Q13.4219 32.4688 13.4219 26.4688
Q13.4219 20.3125 14.5 16.2812
Q15.5781 12.25 17.4531 9.85938
Q19.3438 7.46875 21.9062 6.48438
Q24.4688 5.51562 27.4844 5.51562
Q30.8594 5.51562 33.5938 6.46875
Q36.3281 7.42188 38.2344 9.8125
Q40.1406 12.2031 41.1562 16.25
Q42.1875 20.3125 42.1875 26.4688" id="LiberationSans-6f"/>
      <path id="LiberationSans-20"/>
      <path d="
M37.5 0
L37.5 33.5
Q37.5 37.3594 37.0156 39.9375
Q36.5312 42.5312 35.375 44.1094
Q34.2344 45.7031 32.375 46.3594
Q30.5156 47.0156 27.8281 47.0156
Q25.0469 47.0156 22.7969 45.9219
Q20.5625 44.8281 18.9688 42.75
Q17.3906 40.6719 16.5312 37.625
Q15.6719 34.5781 15.6719 30.6094
L15.6719 0
L6.9375 0
L6.9375 41.5469
Q6.9375 43.2188 6.90625 45.0469
Q6.89062 46.875 6.82812 48.5
Q6.78125 50.1406 6.73438 51.3125
Q6.6875 52.4844 6.64062 52.8281
L14.9375 52.8281
Q14.9844 52.5938 15.0312 51.5156
Q15.0938 50.4375 15.1562 49.0469
Q15.2344 47.6562 15.2812 46.2188
Q15.3281 44.7812 15.3281 43.7969
L15.4844 43.7969
Q16.6562 46.0938 18.0156 47.9531
Q19.3906 49.8125 21.2188 51.0938
Q23.0469 52.3906 25.4062 53.0938
Q27.7812 53.8125 30.9062 53.8125
Q36.9219 53.8125 40.4062 51.4219
Q43.8906 49.0312 45.2656 43.7969
L45.4062 43.7969
Q46.5781 46.0938 48.0469 47.9531
Q49.5156 49.8125 51.4688 51.0938
Q53.4219 52.3906 55.8594 53.0938
Q58.2969 53.8125 61.4219 53.8125
Q65.4375 53.8125 68.3281 52.7344
Q71.2344 51.6562 73.0938 49.4062
Q74.9531 47.1719 75.8281 43.625
Q76.7031 40.0938 76.7031 35.2031
L76.7031 0
L68.0156 0
L68.0156 33.5
Q68.0156 37.3594 67.5312 39.9375
Q67.0469 42.5312 65.8906 44.1094
Q64.75 45.7031 62.8906 46.3594
Q61.0312 47.0156 58.3438 47.0156
Q55.5625 47.0156 53.3125 45.9688
Q51.0781 44.9219 49.4844 42.875
Q47.9062 40.8281 47.0469 37.75
Q46.1875 34.6719 46.1875 30.6094
L46.1875 0
z
" id="LiberationSans-6d"/>
      <path d="
M67.4375 35.1094
Q67.4375 26.5156 64.8438 19.9375
Q62.25 13.375 57.75 8.95312
Q53.2656 4.54688 47.1406 2.26562
Q41.0156 0 33.9375 0
L8.20312 0
L8.20312 68.7969
L30.9531 68.7969
Q38.9219 68.7969 45.625 66.8125
Q52.3438 64.8438 57.1719 60.7188
Q62.0156 56.5938 64.7188 50.2344
Q67.4375 43.8906 67.4375 35.1094
M58.0625 35.1094
Q58.0625 42.0938 56.0469 47.0469
Q54.0469 52 50.4375 55.1719
Q46.8281 58.3438 41.7969 59.8281
Q36.7656 61.3281 30.7656 61.3281
L17.5312 61.3281
L17.5312 7.46875
L32.8594 7.46875
Q38.2812 7.46875 42.8906 9.21875
Q47.5156 10.9844 50.875 14.4531
Q54.25 17.9219 56.1562 23.0938
Q58.0625 28.2656 58.0625 35.1094" id="LiberationSans-44"/>
      <path d="
M61.4219 19.3906
Q61.4219 14.1562 59.375 10.4688
Q57.3281 6.78125 53.8594 4.46875
Q50.3906 2.15625 45.7969 1.07812
Q41.2188 0 36.1406 0
L8.20312 0
L8.20312 68.7969
L33.2031 68.7969
Q38.9219 68.7969 43.4062 67.8438
Q47.9062 66.8906 51.0312 64.8438
Q54.1562 62.7969 55.7812 59.6406
Q57.4219 56.5 57.4219 52.0938
Q57.4219 49.2188 56.6094 46.6719
Q55.8125 44.1406 54.1719 42.0625
Q52.5469 39.9844 50.0781 38.5
Q47.6094 37.0156 44.3438 36.2812
Q48.4844 35.7969 51.6875 34.375
Q54.8906 32.9531 57.0312 30.75
Q59.1875 28.5625 60.2969 25.6562
Q61.4219 22.75 61.4219 19.3906
M48.0469 50.9844
Q48.0469 56.5469 44.2344 58.9375
Q40.4375 61.3281 33.2031 61.3281
L17.5312 61.3281
L17.5312 39.5469
L33.2031 39.5469
Q37.3125 39.5469 40.1406 40.3438
Q42.9688 41.1562 44.7188 42.6406
Q46.4844 44.1406 47.2656 46.2344
Q48.0469 48.3438 48.0469 50.9844
M52 20.125
Q52 23.3906 50.7969 25.6875
Q49.6094 27.9844 47.3594 29.4375
Q45.125 30.9062 41.9688 31.5938
Q38.8125 32.2812 34.9062 32.2812
L17.5312 32.2812
L17.5312 7.46875
L35.6406 7.46875
Q39.2031 7.46875 42.2031 8.04688
Q45.2188 8.64062 47.3906 10.1094
Q49.5625 11.5781 50.7812 14.0156
Q52 16.4531 52 20.125" id="LiberationSans-42"/>
     </defs>
     <g style="fill:#262626;" transform="translate(195.377484375 370.5335)scale(0.176 -0.176)">
      <use xlink:href="#LiberationSans-44"/>
      <use x="72.216796875" xlink:href="#LiberationSans-69"/>
      <use x="94.43359375" xlink:href="#LiberationSans-73"/>
      <use x="144.43359375" xlink:href="#LiberationSans-74"/>
      <use x="172.216796875" xlink:href="#LiberationSans-61"/>
      <use x="227.83203125" xlink:href="#LiberationSans-6e"/>
      <use x="283.447265625" xlink:href="#LiberationSans-63"/>
      <use x="333.447265625" xlink:href="#LiberationSans-65"/>
      <use x="389.0625" xlink:href="#LiberationSans-20"/>
      <use x="416.845703125" xlink:href="#LiberationSans-28"/>
      <use x="450.146484375" xlink:href="#LiberationSans-4e"/>
      <use x="522.36328125" xlink:href="#LiberationSans-75"/>
      <use x="577.978515625" xlink:href="#LiberationSans-6d"/>
      <use x="661.279296875" xlink:href="#LiberationSans-62"/>
      <use x="716.89453125" xlink:href="#LiberationSans-65"/>
      <use x="772.509765625" xlink:href="#LiberationSans-72"/>
      <use x="805.810546875" xlink:href="#LiberationSans-20"/>
      <use x="833.59375" xlink:href="#LiberationSans-6f"/>
      <use x="889.208984375" xlink:href="#LiberationSans-66"/>
      <use x="916.9921875" xlink:href="#LiberationSans-20"/>
      <use x="944.775390625" xlink:href="#LiberationSans-42"/>
      <use x="1011.47460938" xlink:href="#LiberationSans-72"/>
      <use x="1044.77539062" xlink:href="#LiberationSans-61"/>
      <use x="1100.390625" xlink:href="#LiberationSans-6e"/>
      <use x="1156.00585938" xlink:href="#LiberationSans-63"/>
      <use x="1206.00585938" xlink:href="#LiberationSans-68"/>
      <use x="1261.62109375" xlink:href="#LiberationSans-65"/>
      <use x="1317.23632812" xlink:href="#LiberationSans-73"/>
      <use x="1367.23632812" xlink:href="#LiberationSans-29"/>
     </g>
    </g>
   </g>
   <g id="matplotlib.axis_2">
    <g id="ytick_1">
     <g id="line2d_34">
      <path clip-path="url(#p2ead28f7df)" d="
M88.8735 270.368
L547.269 270.368" style="fill:none;stroke:#ffffff;stroke-linecap:round;"/>
     </g>
     <g id="line2d_35">
      <g>
       <use style="fill:#262626;stroke:#262626;" x="88.8735" xlink:href="#m219da94a98" y="270.3684"/>
      </g>
     </g>
     <g id="line2d_36">
      <g>
       <use style="fill:#262626;stroke:#262626;" x="547.26946875" xlink:href="#m219da94a98" y="270.3684"/>
      </g>
     </g>
     <g id="text_13">
      <!--  60% -->
      <defs>
       <path d="
M85.3594 21.1875
Q85.3594 15.0938 84.1094 10.9062
Q82.8594 6.73438 80.7344 4.17188
Q78.6094 1.60938 75.7812 0.5
Q72.9531 -0.59375 69.7344 -0.59375
Q66.5 -0.59375 63.6875 0.5
Q60.8906 1.60938 58.8125 4.14062
Q56.7344 6.6875 55.5312 10.8594
Q54.3438 15.0469 54.3438 21.1875
Q54.3438 27.6875 55.5156 31.9375
Q56.6875 36.1875 58.7812 38.7031
Q60.8906 41.2188 63.75 42.2188
Q66.6094 43.2188 69.9219 43.2188
Q73.1406 43.2188 75.9531 42.2188
Q78.7656 41.2188 80.8281 38.7031
Q82.9062 36.1875 84.125 31.9375
Q85.3594 27.6875 85.3594 21.1875
M25.7344 0
L18.1719 0
L63.1875 68.7969
L70.8438 68.7969
z

M19.2344 69.3906
Q22.3594 69.3906 25.1406 68.3906
Q27.9375 67.3906 30.0312 64.8906
Q32.125 62.4062 33.3125 58.2031
Q34.5156 54 34.5156 47.6094
Q34.5156 41.4531 33.2969 37.25
Q32.0781 33.0625 30 30.4375
Q27.9375 27.8281 25.0938 26.7031
Q22.2656 25.5938 19.0469 25.5938
Q15.7656 25.5938 12.9375 26.7031
Q10.1094 27.8281 8.03125 30.4219
Q5.95312 33.0156 4.75 37.2031
Q3.5625 41.4062 3.5625 47.6094
Q3.5625 54 4.75 58.2031
Q5.95312 62.4062 8.04688 64.8906
Q10.1562 67.3906 13.0312 68.3906
Q15.9219 69.3906 19.2344 69.3906
M78.125 21.1875
Q78.125 26.0312 77.5781 29.2188
Q77.0469 32.4219 76 34.3281
Q74.9531 36.2344 73.4062 37.0156
Q71.875 37.7969 69.9219 37.7969
Q67.875 37.7969 66.3125 36.9844
Q64.75 36.1875 63.6719 34.2812
Q62.5938 32.375 62.0625 29.1719
Q61.5312 25.9844 61.5312 21.1875
Q61.5312 16.5469 62.0781 13.4219
Q62.6406 10.2969 63.6875 8.375
Q64.75 6.45312 66.2812 5.60938
Q67.8281 4.78125 69.8281 4.78125
Q71.7344 4.78125 73.2656 5.60938
Q74.8125 6.45312 75.875 8.375
Q76.9531 10.2969 77.5312 13.4219
Q78.125 16.5469 78.125 21.1875
M27.3438 47.6094
Q27.3438 52.3906 26.7969 55.5625
Q26.2656 58.7344 25.2344 60.6406
Q24.2188 62.5469 22.7031 63.3281
Q21.1875 64.1094 19.2344 64.1094
Q17.1406 64.1094 15.5469 63.2969
Q13.9688 62.5 12.8906 60.5938
Q11.8125 58.6875 11.2812 55.5156
Q10.75 52.3438 10.75 47.6094
Q10.75 42.9688 11.2969 39.7969
Q11.8594 36.625 12.9062 34.6875
Q13.9688 32.7656 15.5312 31.9375
Q17.0938 31.1094 19.1406 31.1094
Q21 31.1094 22.5156 31.9375
Q24.0312 32.7656 25.0938 34.6875
Q26.1719 36.625 26.75 39.7969
Q27.3438 42.9688 27.3438 47.6094" id="LiberationSans-25"/>
      </defs>
      <g style="fill:#262626;" transform="translate(45.976 274.5059)scale(0.16 -0.16)">
       <use xlink:href="#LiberationSans-20"/>
       <use x="27.783203125" xlink:href="#LiberationSans-36"/>
       <use x="83.3984375" xlink:href="#LiberationSans-30"/>
       <use x="139.013671875" xlink:href="#LiberationSans-25"/>
      </g>
     </g>
    </g>
    <g id="ytick_2">
     <g id="line2d_37">
      <path clip-path="url(#p2ead28f7df)" d="
M88.8735 149.377
L547.269 149.377" style="fill:none;stroke:#ffffff;stroke-linecap:round;"/>
     </g>
     <g id="line2d_38">
      <g>
       <use style="fill:#262626;stroke:#262626;" x="88.8735" xlink:href="#m219da94a98" y="149.3772"/>
      </g>
     </g>
     <g id="line2d_39">
      <g>
       <use style="fill:#262626;stroke:#262626;" x="547.26946875" xlink:href="#m219da94a98" y="149.3772"/>
      </g>
     </g>
     <g id="text_14">
      <!--  80% -->
      <g style="fill:#262626;" transform="translate(45.976 153.5147)scale(0.16 -0.16)">
       <use xlink:href="#LiberationSans-20"/>
       <use x="27.783203125" xlink:href="#LiberationSans-38"/>
       <use x="83.3984375" xlink:href="#LiberationSans-30"/>
       <use x="139.013671875" xlink:href="#LiberationSans-25"/>
      </g>
     </g>
    </g>
    <g id="ytick_3">
     <g id="line2d_40">
      <path clip-path="url(#p2ead28f7df)" d="
M88.8735 28.386
L547.269 28.386" style="fill:none;stroke:#ffffff;stroke-linecap:round;"/>
     </g>
     <g id="line2d_41">
      <g>
       <use style="fill:#262626;stroke:#262626;" x="88.8735" xlink:href="#m219da94a98" y="28.386"/>
      </g>
     </g>
     <g id="line2d_42">
      <g>
       <use style="fill:#262626;stroke:#262626;" x="547.26946875" xlink:href="#m219da94a98" y="28.386"/>
      </g>
     </g>
     <g id="text_15">
      <!-- 100% -->
      <g style="fill:#262626;" transform="translate(42.7435 32.5235)scale(0.16 -0.16)">
       <use xlink:href="#LiberationSans-31"/>
       <use x="55.615234375" xlink:href="#LiberationSans-30"/>
       <use x="111.23046875" xlink:href="#LiberationSans-30"/>
       <use x="166.845703125" xlink:href="#LiberationSans-25"/>
      </g>
     </g>
    </g>
    <g id="ytick_4">
     <g id="line2d_43">
      <path clip-path="url(#p2ead28f7df)" d="
M88.8735 209.873
L547.269 209.873" style="fill:none;stroke:#ffffff;stroke-linecap:round;"/>
     </g>
     <g id="line2d_44">
      <defs>
       <path d="
M0 0
L0 0" id="m8735711441" style="stroke:#262626;stroke-width:0.5;"/>
      </defs>
      <g>
       <use style="fill:#262626;stroke:#262626;stroke-width:0.5;" x="88.8735" xlink:href="#m8735711441" y="209.8728"/>
      </g>
     </g>
     <g id="line2d_45">
      <g>
       <use style="fill:#262626;stroke:#262626;stroke-width:0.5;" x="547.26946875" xlink:href="#m8735711441" y="209.8728"/>
      </g>
     </g>
    </g>
    <g id="ytick_5">
     <g id="line2d_46">
      <path clip-path="url(#p2ead28f7df)" d="
M88.8735 88.8816
L547.269 88.8816" style="fill:none;stroke:#ffffff;stroke-linecap:round;"/>
     </g>
     <g id="line2d_47">
      <g>
       <use style="fill:#262626;stroke:#262626;stroke-width:0.5;" x="88.8735" xlink:href="#m8735711441" y="88.8816"/>
      </g>
     </g>
     <g id="line2d_48">
      <g>
       <use style="fill:#262626;stroke:#262626;stroke-width:0.5;" x="547.26946875" xlink:href="#m8735711441" y="88.8816"/>
      </g>
     </g>
    </g>
    <g id="text_16">
     <!-- Cumulative Frequency -->
     <defs>
      <path d="
M23.6406 -0.984375
Q13.5781 -0.984375 8.89062 5.79688
Q4.20312 12.5938 4.20312 26.1719
Q4.20312 39.9375 9 46.875
Q13.8125 53.8125 23.6406 53.8125
Q26.9062 53.8125 29.4219 53.2188
Q31.9375 52.6406 33.9062 51.4844
Q35.8906 50.3438 37.375 48.625
Q38.875 46.9219 40.0938 44.625
L40.1875 44.625
Q40.1875 45.8438 40.25 47.3281
Q40.3281 48.8281 40.4062 50.1406
Q40.4844 51.4688 40.5781 52.4219
Q40.6719 53.375 40.7656 53.5156
L49.2188 53.5156
Q49.125 52.6875 49 49.1719
Q48.875 45.6562 48.875 39.1094
L48.875 -20.75
L40.0938 -20.75
L40.0938 0.6875
Q40.0938 1.95312 40.1094 3.3125
Q40.1406 4.6875 40.1875 5.90625
Q40.2344 7.28125 40.2812 8.6875
L40.1875 8.6875
Q38.9219 6.20312 37.375 4.375
Q35.8438 2.54688 33.8438 1.34375
Q31.8438 0.140625 29.3281 -0.421875
Q26.8125 -0.984375 23.6406 -0.984375
M40.0938 27.0469
Q40.0938 32.8125 39.0938 36.7188
Q38.0938 40.625 36.25 42.9688
Q34.4219 45.3125 31.8125 46.3125
Q29.2031 47.3125 25.9844 47.3125
Q22.6094 47.3125 20.2188 46.0625
Q17.8281 44.8281 16.3281 42.2656
Q14.8438 39.7031 14.125 35.7656
Q13.4219 31.8438 13.4219 26.4688
Q13.4219 21.1875 14.0781 17.2812
Q14.75 13.375 16.2344 10.8281
Q17.7188 8.29688 20.0938 7.04688
Q22.4688 5.8125 25.875 5.8125
Q28.8125 5.8125 31.3906 6.71875
Q33.9844 7.625 35.9062 9.98438
Q37.8438 12.3594 38.9688 16.4844
Q40.0938 20.6094 40.0938 27.0469" id="LiberationSans-71"/>
      <path d="
M29.9375 0
L19.5312 0
L0.34375 52.8281
L9.71875 52.8281
L21.3438 18.4531
Q21.6875 17.3906 22.1406 15.8438
Q22.6094 14.3125 23.0938 12.6406
Q23.5781 10.9844 24 9.4375
Q24.4219 7.90625 24.7031 6.89062
Q25 7.90625 25.4531 9.4375
Q25.9219 10.9844 26.4062 12.5938
Q26.9062 14.2031 27.4219 15.7344
Q27.9375 17.2812 28.3281 18.3594
L40.3281 52.8281
L49.6562 52.8281
z
" id="LiberationSans-76"/>
      <path d="
M29.5 0
Q27.6406 -4.78125 25.7031 -8.60938
Q23.7812 -12.4531 21.3906 -15.1562
Q19 -17.875 16.0625 -19.3125
Q13.1406 -20.75 9.32812 -20.75
Q7.67188 -20.75 6.25 -20.6562
Q4.82812 -20.5625 3.26562 -20.2188
L3.26562 -13.625
Q4.20312 -13.7656 5.375 -13.8438
Q6.54688 -13.9219 7.375 -13.9219
Q11.2344 -13.9219 14.5469 -11.0312
Q17.875 -8.15625 20.3594 -1.85938
L21.1875 0.25
L0.25 52.8281
L9.625 52.8281
L20.75 23.6406
Q21.2344 22.3125 21.9844 20.1094
Q22.75 17.9219 23.5 15.7188
Q24.2656 13.5312 24.8438 11.7656
Q25.4375 10.0156 25.5312 9.57812
Q25.6875 10.1094 26.25 11.6875
Q26.8125 13.2812 27.5156 15.2344
Q28.2188 17.1875 28.9531 19.1875
Q29.6875 21.1875 30.1719 22.6562
L40.5312 52.8281
L49.8125 52.8281
z
" id="LiberationSans-79"/>
      <path d="
M6.73438 0
L6.73438 72.4688
L15.5312 72.4688
L15.5312 0
z
" id="LiberationSans-6c"/>
      <path d="
M17.5312 61.1875
L17.5312 35.5938
L55.9062 35.5938
L55.9062 27.875
L17.5312 27.875
L17.5312 0
L8.20312 0
L8.20312 68.7969
L57.0781 68.7969
L57.0781 61.1875
z
" id="LiberationSans-46"/>
      <path d="
M38.6719 62.2031
Q32.8125 62.2031 28.2969 60.25
Q23.7812 58.2969 20.7188 54.6875
Q17.6719 51.0781 16.1094 46
Q14.5469 40.9219 14.5469 34.7188
Q14.5469 28.5156 16.2344 23.3594
Q17.9219 18.2188 21.0625 14.5
Q24.2188 10.7969 28.7812 8.73438
Q33.3438 6.6875 39.0625 6.6875
Q43.0625 6.6875 46.3594 7.73438
Q49.6562 8.79688 52.3125 10.6875
Q54.9844 12.5938 57.0781 15.2031
Q59.1875 17.8281 60.7969 21
L68.4062 17.1875
Q66.5469 13.3281 63.8125 10
Q61.0781 6.6875 57.3906 4.25
Q53.7188 1.8125 49.0469 0.40625
Q44.3906 -0.984375 38.625 -0.984375
Q30.2812 -0.984375 24 1.67188
Q17.7188 4.34375 13.5 9.10938
Q9.28125 13.875 7.17188 20.4062
Q5.07812 26.9531 5.07812 34.7188
Q5.07812 42.7812 7.29688 49.2656
Q9.51562 55.7656 13.7812 60.3281
Q18.0625 64.8906 24.3125 67.3594
Q30.5625 69.8281 38.5781 69.8281
Q49.5625 69.8281 56.9375 65.5312
Q64.3125 61.2344 67.7812 52.7812
L58.9375 49.8594
Q57.9531 52.2969 56.2969 54.5156
Q54.6406 56.7344 52.1406 58.4375
Q49.6562 60.1562 46.3125 61.1719
Q42.9688 62.2031 38.6719 62.2031" id="LiberationSans-43"/>
     </defs>
     <g style="fill:#262626;" transform="translate(34.0915 267.6415)rotate(-90.0)scale(0.176 -0.176)">
      <use xlink:href="#LiberationSans-43"/>
      <use x="72.216796875" xlink:href="#LiberationSans-75"/>
      <use x="127.83203125" xlink:href="#LiberationSans-6d"/>
      <use x="211.1328125" xlink:href="#LiberationSans-75"/>
      <use x="266.748046875" xlink:href="#LiberationSans-6c"/>
      <use x="288.96484375" xlink:href="#LiberationSans-61"/>
      <use x="344.580078125" xlink:href="#LiberationSans-74"/>
      <use x="372.36328125" xlink:href="#LiberationSans-69"/>
      <use x="394.580078125" xlink:href="#LiberationSans-76"/>
      <use x="444.580078125" xlink:href="#LiberationSans-65"/>
      <use x="500.1953125" xlink:href="#LiberationSans-20"/>
      <use x="527.978515625" xlink:href="#LiberationSans-46"/>
      <use x="589.0625" xlink:href="#LiberationSans-72"/>
      <use x="622.36328125" xlink:href="#LiberationSans-65"/>
      <use x="677.978515625" xlink:href="#LiberationSans-71"/>
      <use x="733.59375" xlink:href="#LiberationSans-75"/>
      <use x="789.208984375" xlink:href="#LiberationSans-65"/>
      <use x="844.82421875" xlink:href="#LiberationSans-6e"/>
      <use x="900.439453125" xlink:href="#LiberationSans-63"/>
      <use x="950.439453125" xlink:href="#LiberationSans-79"/>
     </g>
    </g>
   </g>
   <g id="line2d_49">
    <path clip-path="url(#p2ead28f7df)" d="
M88.8735 185.807
L88.8792 185.685
L88.9903 183.333
L89.607 181.085
L89.8151 180.811
L89.939 180.672
L91.7767 179.596
L92.5368 179.392
L92.7128 179.336
L93.5187 179.139
L94.8723 178.846
L96.1039 178.664
L96.9225 178.573
L98.4273 178.397
L100.256 178.198
L103.829 177.912
L107.58 177.637
L110.908 177.393
L113.165 177.225
L113.25 177.216
L116.251 177.005
L117.033 176.96
L119.368 176.77
L119.459 176.762
L121.773 176.573
L123.027 176.462
L124.402 176.313
L131.524 175.449
L134.36 175.218
L134.646 175.149
L134.712 174.982
L134.713 172.47
L134.823 145.401
L135.081 145.131
L135.188 145.061
L135.608 144.862
L139.993 143.994
L141.62 143.794
L148.796 143.263
L150.943 143.103
L151.718 143.049
L153.763 142.918
L153.872 142.911
L154.3 142.868
L156.544 142.727
L163.011 142.246
L163.335 142.22
L166.092 142.043
L169.097 141.826
L169.213 141.818
L176.417 141.305
L176.636 141.275
L178.169 141.083
L180.287 140.633
L180.398 140.57
L180.539 140.385
L180.553 140.084
L180.66 132.038
L185.265 131.577
L206.712 130.611
L211.808 130.385
L215.427 130.217
L215.655 130.205
L219.265 130.001
L224.624 129.491
L226.197 128.873
L226.373 128.511
L226.484 110.168
L226.82 109.686
L227.634 109.217
L228.991 108.899
L230.194 108.747
L230.304 108.737
L231.607 108.623
L235.4 108.366
L235.623 108.351
L237.931 108.203
L239.803 108.096
L242.211 107.976
L252.273 107.525
L252.379 107.52
L264.445 107.025
L264.642 107.011
L272.141 106.36
L272.232 105.885
L272.343 89.8771
L273.319 89.6815
L295.568 88.7568
L307.46 88.2867
L317.33 87.5074
L317.941 87.2422
L318.066 86.6923
L318.176 76.4293
L318.755 76.2838
L340.712 75.6735
L349.016 75.4708
L353.534 75.3561
L358.801 75.1697
L362.9 74.8686
L363.066 74.8451
L363.781 74.6536
L363.895 74.4815
L363.911 74.1753
L364.012 68.4581
L364.368 68.3219
L364.503 68.2901
L372.614 67.7945
L377.662 67.6491
L384.109 67.4586
L395.781 67.1647
L396.889 67.1391
L402.775 67.0101
L404.231 66.9589
L409.185 66.5318
L409.737 66.239
L409.751 65.9379
L409.859 60.4367
L412.194 60.3199
L421.445 60.1346
L422.496 60.1162
L434.085 59.9707
L436.366 59.9421
L447.74 59.7383
L455.317 59.3676
L455.59 59.0266
L455.7 47.9771
L456.017 47.9484
L468.109 47.7395
L492.561 47.5152
L501.05 47.333
L501.425 47.1906
L501.43 46.909
L501.539 45.4856
L506.13 45.4149
L533.351 45.1968
L546.386 44.9182
L546.477 44.9039
L547.198 44.7616
L547.269 44.5158
L547.274 39.5768
L547.274 39.5768" style="fill:none;stroke:#4c72b0;stroke-linecap:round;stroke-width:1.75;"/>
   </g>
   <g id="line2d_50">
    <path clip-path="url(#p2ead28f7df)" d="
M88.8735 171.598
L89.2636 169.894
L89.5195 169.277
L90.1955 168.689
L90.3344 168.543
L90.6147 168.249
L90.7049 167.779
L91.2492 167.485
L91.8352 166.662
L92.0483 166.516
L95.1196 165.311
L96.2369 165.135
L96.931 164.988
L97.4698 164.812
L97.4798 164.782
L97.8847 164.635
L98.1832 164.577
L98.8074 164.4
L98.8074 164.371
L100.336 164.136
L100.464 164.077
L102.433 163.666
L103.958 163.196
L104.16 163.108
L105.021 162.932
L106.952 162.432
L107.85 162.256
L108.547 162.05
L109.645 161.845
L110.35 161.639
L110.449 161.522
L112.731 160.758
L113.664 160.552
L115.2 160.317
L115.962 160.17
L116.067 160.111
L117.767 159.847
L117.805 159.788
L119.324 159.612
L119.348 159.583
L121.251 159.377
L122.52 159.113
L122.946 158.995
L133.973 157.644
L134.063 157.526
L134.516 157.321
L134.701 157.086
L134.713 155.382
L134.817 134.436
L135.229 134.319
L136.561 134.025
L139.419 133.849
L139.577 133.79
L141.348 133.584
L141.508 133.555
L143.141 133.408
L147.11 133.144
L150.287 132.997
L150.316 132.967
L159.53 132.527
L160.95 132.439
L163.27 132.292
L163.768 132.233
L168.369 132.057
L169.53 131.998
L171.673 131.792
L175.132 131.469
L178.039 131.352
L179.747 131.175
L180.353 131.028
L180.534 130.882
L180.553 126.739
L180.559 124.742
L186.784 124.507
L190.972 124.36
L191.24 124.301
L196.31 124.125
L199.031 123.978
L199.165 123.949
L201.533 123.772
L207.75 123.596
L215.492 123.361
L217.976 123.155
L222.963 122.979
L224.35 122.803
L225.057 122.656
L225.936 122.45
L226.152 122.362
L226.375 122.215
L226.392 121.393
L226.392 110.847
L227.333 110.729
L240.545 110.288
L241.972 110.142
L248.852 109.936
L271.044 109.084
L272.232 108.79
L272.27 103.267
L279.983 103.121
L317.807 102.357
L318.071 102.239
L318.071 96.8045
L318.856 96.7458
L338.738 96.5107
L358.337 96.2757
L363.911 96.0407
L363.911 93.5143
L368.378 93.3968
L374.447 93.3381
L386.18 93.1912
L389.094 93.103
L409.751 92.9562
L409.759 91.6048
L413.978 91.5461
L454.835 91.2523
L455.584 91.1348
L455.59 90.3122
L455.616 88.3734
L455.702 88.344
L465.915 88.1384
L500.713 87.9034
L501.43 87.639
L501.43 86.2583
L502.811 86.2289
L520.927 86.082
L521.403 85.9939
L531.537 85.9351
L547.269 85.7882
L547.269 85.1126
L547.393 85.0832
L547.393 85.0832" style="fill:none;stroke:#55a868;stroke-linecap:round;stroke-width:1.75;"/>
   </g>
   <g id="line2d_51">
    <path clip-path="url(#p2ead28f7df)" d="
M88.8735 234.892
L88.8792 234.773
L88.9903 232.707
L89.4668 230.811
L89.5867 230.56
L90.2377 229.41
L90.3918 229.213
L90.6189 228.96
L90.8728 228.632
L91.0178 228.461
L91.1741 228.267
L91.4272 228.025
L91.6223 227.863
L91.7467 227.752
L95.0935 225.587
L95.329 225.457
L96.1352 225.084
L96.5526 224.928
L96.9886 224.765
L97.3617 224.634
L97.8215 224.465
L98.3069 224.303
L98.8912 224.099
L100.644 223.54
L102.378 223.074
L102.936 222.933
L103.046 222.911
L103.715 222.774
L104.285 222.63
L104.789 222.5
L105.858 222.243
L105.988 222.222
L107.668 221.85
L107.769 221.82
L108.725 221.612
L109.941 221.277
L110.806 221.014
L112.231 220.401
L112.626 220.272
L113.475 220.024
L121.608 218.502
L122.78 218.339
L123.047 218.273
L124.615 218.006
L124.83 217.977
L126.067 217.791
L127.803 217.525
L130.163 217.097
L130.683 216.975
L131.533 216.773
L131.677 216.731
L132.525 216.558
L132.639 216.532
L132.89 216.459
L134.238 215.839
L134.455 215.579
L134.592 215.395
L134.672 214.956
L134.713 213.627
L134.823 181.018
L135.855 180.355
L136.549 180.035
L137.438 179.694
L138.001 179.505
L138.143 179.443
L138.833 179.218
L139.204 179.107
L139.951 178.865
L141.662 178.254
L141.864 178.173
L142.827 177.85
L142.98 177.758
L144.346 177.285
L145.264 177.023
L145.511 176.954
L146.662 176.654
L148.751 176.122
L149.573 175.932
L150.146 175.783
L150.853 175.588
L151.447 175.402
L152.005 175.257
L152.169 175.222
L153.552 174.809
L153.79 174.747
L157.567 173.738
L157.673 173.702
L159.295 173.288
L160.572 172.928
L160.978 172.776
L161.391 172.564
L162.59 171.922
L162.701 171.848
L163.062 171.648
L163.46 171.446
L163.923 171.241
L165.485 170.353
L165.846 170.199
L166.238 170.007
L166.339 169.954
L166.622 169.816
L166.733 169.747
L167.665 169.269
L167.811 169.145
L169.329 168.478
L169.9 168.288
L170.28 168.171
L171.065 167.901
L171.25 167.839
L171.651 167.692
L171.761 167.655
L178.412 165.06
L178.522 164.986
L178.683 164.873
L178.999 164.684
L180.477 163.253
L180.588 137.436
L183.641 136.414
L184.372 136.235
L186.139 135.881
L186.266 135.854
L199.609 133.785
L200.738 133.656
L200.838 133.636
L202.966 133.326
L205.853 132.753
L207.194 132.594
L207.289 132.578
L209.13 132.334
L209.225 132.321
L210.321 132.169
L213.697 131.595
L213.912 131.552
L215.311 131.31
L215.671 131.246
L217.067 130.989
L217.357 130.918
L218.165 130.77
L218.49 130.69
L220.553 130.219
L221.193 130.057
L221.769 129.911
L222.422 129.732
L224.877 128.815
L226.135 127.864
L226.392 126.883
L226.5 107.561
L227.7 107.384
L228.681 107.246
L228.792 107.223
L234.262 106.76
L235.85 106.627
L236.028 106.607
L237.295 106.441
L240.468 106.091
L241.931 105.926
L242.56 105.856
L245.163 105.567
L245.696 105.508
L248.534 105.293
L249.866 105.156
L254.373 104.815
L254.498 104.801
L255.605 104.654
L265.438 103.688
L267.152 103.394
L268.15 103.216
L268.256 103.198
L269.126 103.055
L269.345 103.007
L270.586 102.693
L270.766 102.629
L271.449 102.433
L271.582 102.39
L272.075 102.132
L272.186 102.056
L272.232 101.894
L272.335 93.1698
L276.833 92.6906
L278.29 92.5532
L279.435 92.4958
L284.942 92.1959
L286.169 92.1278
L291.788 91.847
L291.902 91.8422
L296.176 91.6199
L300.552 91.3367
L302.872 91.167
L304.02 91.0822
L306.249 90.9424
L306.441 90.922
L307.892 90.8217
L310.1 90.6663
L313.272 90.2971
L314.984 90.0377
L315.846 89.8716
L316.463 89.7211
L317.102 89.5478
L317.446 89.396
L318.052 88.9551
L318.154 78.2982
L320.925 78.0628
L340.189 77.3745
L345.115 77.0937
L349.766 76.9096
L349.903 76.9037
L354.365 76.716
L356.836 76.5691
L362.911 76.1592
L363.452 76.0982
L363.887 75.968
L363.99 69.6071
L365.826 69.4661
L378.277 68.9391
L380.76 68.8052
L387.454 68.5853
L387.664 68.577
L399.49 68.289
L408.856 67.9126
L409.751 67.6055
L409.86 63.999
L410.796 63.9213
L417.303 63.7313
L425.038 63.5772
L436.91 63.3059
L442.773 63.1661
L445.98 63.0251
L449.818 62.8638
L453.242 62.6749
L454.199 62.6056
L455.478 62.4634
L455.59 62.2579
L455.694 58.9514
L458.855 58.7769
L471.139 58.52
L486.751 58.177
L487.077 58.1603
L498.328 57.7241
L499.39 57.5986
L500.566 57.472
L501.424 57.2629
L501.534 53.8691
L502.019 53.8058
L503.682 53.7364
L513.319 53.5596
L515.267 53.5357
L531.155 53.2238
L544.79 52.735
L547.269 52.2833
L547.274 49.7822
L547.274 49.7822" style="fill:none;stroke:#c44e52;stroke-linecap:round;stroke-width:1.75;"/>
   </g>
   <g id="line2d_52">
    <path clip-path="url(#p2ead28f7df)" d="
M88.8735 249.273
L88.8804 248.769
L89.0293 244.619
L89.4619 241.989
L89.5167 241.748
L89.6345 241.264
L89.8862 240.74
L90.1735 240.166
L90.3163 239.874
L90.4166 239.602
L90.5204 239.41
L90.6518 239.209
L90.7762 239.038
L90.9134 238.887
L91.2529 238.403
L91.4255 238.222
L91.6191 237.95
L91.8474 237.637
L91.9525 237.476
L92.1335 237.305
L92.2384 237.174
L92.4788 236.993
L92.8542 236.66
L92.9271 236.58
L93.2433 236.388
L93.4534 236.217
L93.6697 236.086
L94.4009 235.421
L95.0998 234.937
L95.6805 234.716
L95.8255 234.605
L96.3511 234.434
L99.9434 233.013
L100.028 232.882
L103.072 232.117
L103.423 231.966
L103.755 231.794
L103.82 231.764
L104.032 231.633
L104.111 231.442
L104.321 231.321
L104.401 231.27
L104.988 231.109
L105.117 231.069
L106.207 230.676
L106.23 230.656
L106.726 230.525
L106.832 230.454
L107.543 230.293
L110.523 229.487
L110.767 228.853
L113.075 227.382
L115.314 226.727
L115.381 226.697
L115.904 226.536
L116.17 226.394
L117.071 226.022
L118.062 225.709
L118.254 225.639
L118.751 225.478
L118.855 225.437
L120.369 225.004
L120.677 224.934
L121.218 224.722
L121.474 224.551
L121.702 224.4
L121.902 224.259
L122.944 223.735
L123.035 223.604
L123.309 223.453
L123.48 223.302
L123.941 223.04
L124.046 222.949
L124.36 222.798
L125.871 221.801
L125.897 221.73
L126.107 221.599
L126.207 221.478
L126.449 221.327
L126.748 221.095
L127.059 220.834
L127.173 220.672
L127.357 220.481
L127.492 220.32
L127.738 220.098
L127.829 220.018
L127.977 219.866
L128.401 219.161
L128.76 218.688
L128.88 218.597
L129.055 218.275
L129.261 217.972
L129.798 217.338
L129.946 217.146
L130.193 216.753
L130.32 216.481
L130.504 216.109
L130.978 215.383
L131.119 215.182
L131.393 214.729
L131.487 214.577
L131.646 214.386
L132.04 213.832
L132.144 213.661
L132.336 213.248
L132.469 212.996
L132.764 212.714
L133.28 212.079
L133.486 211.807
L133.617 211.696
L134.528 211.283
L134.639 211.172
L134.712 210.649
L134.713 185.936
L134.824 155.946
L135.132 155.24
L135.298 155.019
L135.456 154.837
L135.904 154.152
L136.026 153.911
L136.135 153.78
L136.872 153.034
L137.324 152.883
L137.65 152.722
L138.28 152.43
L140.298 151.473
L149.027 149.055
L150.08 148.803
L150.299 148.763
L151.21 148.591
L152.052 148.39
L152.532 148.199
L153.735 147.927
L153.897 147.896
L155.057 147.675
L155.516 147.554
L155.748 147.413
L155.838 147.211
L156.537 147.03
L157.152 146.889
L157.226 146.839
L159.3 146.204
L159.366 146.133
L161.756 145.74
L162.203 145.64
L163.286 145.378
L165.91 144.703
L166.55 144.511
L166.654 144.441
L167.788 144.118
L168.297 144.028
L168.975 143.846
L170.924 143.474
L171.44 143.343
L171.539 143.111
L171.564 142.98
L171.673 142.718
L172.082 142.537
L172.579 142.396
L177.675 140.774
L177.727 140.653
L178.503 140.421
L178.878 140.19
L179.386 139.877
L179.513 139.776
L179.727 139.605
L180.084 139.202
L180.294 138.91
L180.547 138.265
L180.632 121.623
L181.192 121.512
L183.535 121.149
L183.586 121.119
L184.531 120.998
L185.041 120.907
L186.523 120.706
L186.536 120.686
L188.768 120.484
L188.84 120.464
L189.022 120.333
L189.054 120.293
L190.718 120.071
L190.735 120.061
L193.295 119.88
L202.798 118.983
L203.901 118.852
L205.262 118.661
L206.321 118.449
L206.563 118.329
L207.056 118.177
L207.821 117.825
L209.037 117.734
L211.476 117.472
L212.642 117.261
L215.864 117.039
L219.417 116.696
L219.419 116.676
L220.216 116.525
L220.74 116.455
L222.448 116.253
L222.698 116.213
L223.939 115.971
L226.363 115.085
L226.392 114.782
L226.451 107.599
L228.036 107.469
L229.532 107.327
L230.214 107.166
L230.7 107.106
L232.696 106.874
L233.251 106.834
L236.962 106.552
L238.083 106.411
L240.997 106.27
L244.177 106.018
L244.975 105.988
L266.528 104.547
L267.446 104.396
L268.745 104.235
L270.589 103.872
L270.842 103.771
L271.91 103.388
L272.232 102.724
L272.342 97.5958
L272.875 97.485
L274.296 97.2734
L274.88 97.2029
L307.692 95.1981
L307.793 95.0672
L307.897 94.7952
L307.962 94.775
L309.258 94.634
L311.591 94.4224
L311.615 94.4023
L313.232 94.2512
L313.336 94.2209
L315.122 94.0799
L315.231 94.0597
L315.879 93.9489
L317.679 93.6165
L318.033 93.4452
L318.071 93.2135
L318.139 90.0704
L320.131 89.8588
L320.552 89.8185
L323.414 89.6775
L325.623 89.5263
L326.207 89.4357
L333.425 89.1133
L333.446 89.0932
L344.877 88.5995
L350.391 88.3477
L350.397 88.3376
L359.053 87.8339
L359.402 87.7734
L361.299 87.6022
L362.689 87.31
L362.763 87.2697
L363.708 87.1287
L363.911 86.8466
L363.998 83.4617
L365.581 83.3307
L376.099 82.9277
L376.103 82.9177
L378.56 82.8169
L388.997 82.4845
L391.198 82.3837
L401.036 82.0815
L401.053 82.0614
L409.626 81.2756
L409.751 80.6812
L409.841 77.0041
L410.564 76.9336
L417.438 76.6717
L422.31 76.5407
L434.583 76.2888
L434.583 76.2687
L449.347 75.8456
L452.971 75.6945
L455.114 75.5232
L455.59 75.3318
L455.659 72.5916
L457.396 72.511
L477.396 71.9972
L478.786 71.8461
L478.81 71.826
L501.395 71.0402
L501.568 69.3276
L512.377 69.1261
L534.899 68.8944
L540.636 68.713
L546.447 68.5116
L547.258 68.3403
L547.269 67.8769
L547.269 66.7586
L547.384 66.7486
L547.384 66.7486" style="fill:none;stroke:#8172b2;stroke-linecap:round;stroke-width:1.75;"/>
   </g>
   <g id="patch_3">
    <path d="
M88.8735 28.386
L547.269 28.386" style="fill:none;"/>
   </g>
   <g id="patch_4">
    <path d="
M547.269 330.864
L547.269 28.386" style="fill:none;"/>
   </g>
   <g id="patch_5">
    <path d="
M88.8735 330.864
L547.269 330.864" style="fill:none;"/>
   </g>
   <g id="patch_6">
    <path d="
M88.8735 330.864
L88.8735 28.386" style="fill:none;"/>
   </g>
   <g id="legend_1">
    <g id="line2d_53">
     <path d="
M417.347 238.799
L449.347 238.799" style="fill:none;stroke:#4c72b0;stroke-linecap:round;stroke-width:1.75;"/>
    </g>
    <g id="line2d_54"/>
    <g id="text_17">
     <!-- General -->
     <defs>
      <path d="
M5.03125 34.7188
Q5.03125 42.7812 7.20312 49.2656
Q9.375 55.7656 13.6875 60.3281
Q18.0156 64.8906 24.4062 67.3594
Q30.8125 69.8281 39.2656 69.8281
Q45.6094 69.8281 50.3906 68.7031
Q55.1719 67.5781 58.6875 65.4688
Q62.2031 63.375 64.6406 60.375
Q67.0938 57.375 68.7969 53.6094
L59.9062 50.9844
Q58.6406 53.5156 56.8594 55.5938
Q55.0781 57.6719 52.5312 59.125
Q50 60.5938 46.6562 61.3906
Q43.3125 62.2031 39.0156 62.2031
Q32.7656 62.2031 28.1406 60.25
Q23.5312 58.2969 20.5 54.6875
Q17.4844 51.0781 15.9844 46
Q14.5 40.9219 14.5 34.7188
Q14.5 28.5156 16.1094 23.3594
Q17.7188 18.2188 20.8906 14.4844
Q24.0781 10.75 28.7812 8.67188
Q33.5 6.59375 39.7031 6.59375
Q43.75 6.59375 47.1719 7.26562
Q50.5938 7.95312 53.3438 9.04688
Q56.1094 10.1562 58.2031 11.5
Q60.2969 12.8438 61.7188 14.2031
L61.7188 26.6094
L41.1562 26.6094
L41.1562 34.4219
L70.3125 34.4219
L70.3125 10.6875
Q68.0156 8.34375 64.9062 6.21875
Q61.8125 4.10938 57.9531 2.48438
Q54.1094 0.875 49.5156 -0.046875
Q44.9219 -0.984375 39.7031 -0.984375
Q31 -0.984375 24.5 1.67188
Q18.0156 4.34375 13.6875 9.10938
Q9.375 13.875 7.20312 20.4062
Q5.03125 26.9531 5.03125 34.7188" id="LiberationSans-47"/>
     </defs>
     <g style="fill:#262626;" transform="translate(462.14696875 244.399)scale(0.16 -0.16)">
      <use xlink:href="#LiberationSans-47"/>
      <use x="77.783203125" xlink:href="#LiberationSans-65"/>
      <use x="133.3984375" xlink:href="#LiberationSans-6e"/>
      <use x="189.013671875" xlink:href="#LiberationSans-65"/>
      <use x="244.62890625" xlink:href="#LiberationSans-72"/>
      <use x="277.9296875" xlink:href="#LiberationSans-61"/>
      <use x="333.544921875" xlink:href="#LiberationSans-6c"/>
     </g>
    </g>
    <g id="line2d_55">
     <path d="
M417.347 261.714
L449.347 261.714" style="fill:none;stroke:#55a868;stroke-linecap:round;stroke-width:1.75;"/>
    </g>
    <g id="line2d_56"/>
    <g id="text_18">
     <!-- Archaea -->
     <defs>
      <path d="
M56.9844 0
L49.125 20.125
L17.7812 20.125
L9.85938 0
L0.203125 0
L28.2656 68.7969
L38.875 68.7969
L66.5 0
z

M37.5 50.0938
Q36.7188 52.0469 36 54.0469
Q35.2969 56.0625 34.7656 57.6875
Q34.2344 59.3281 33.8594 60.4219
Q33.5 61.5312 33.4531 61.7656
Q33.3438 61.5312 33 60.4062
Q32.6719 59.2812 32.1094 57.6094
Q31.5469 55.9531 30.8281 53.9531
Q30.125 51.9531 29.3906 50
L20.6094 27.3906
L46.3438 27.3906
z
" id="LiberationSans-41"/>
     </defs>
     <g style="fill:#262626;" transform="translate(462.14696875 267.314)scale(0.16 -0.16)">
      <use xlink:href="#LiberationSans-41"/>
      <use x="66.69921875" xlink:href="#LiberationSans-72"/>
      <use x="100.0" xlink:href="#LiberationSans-63"/>
      <use x="150.0" xlink:href="#LiberationSans-68"/>
      <use x="205.615234375" xlink:href="#LiberationSans-61"/>
      <use x="261.23046875" xlink:href="#LiberationSans-65"/>
      <use x="316.845703125" xlink:href="#LiberationSans-61"/>
     </g>
    </g>
    <g id="line2d_57">
     <path d="
M417.347 284.629
L449.347 284.629" style="fill:none;stroke:#c44e52;stroke-linecap:round;stroke-width:1.75;"/>
    </g>
    <g id="line2d_58"/>
    <g id="text_19">
     <!-- Bacteria -->
     <g style="fill:#262626;" transform="translate(462.14696875 290.229)scale(0.16 -0.16)">
      <use xlink:href="#LiberationSans-42"/>
      <use x="66.69921875" xlink:href="#LiberationSans-61"/>
      <use x="122.314453125" xlink:href="#LiberationSans-63"/>
      <use x="172.314453125" xlink:href="#LiberationSans-74"/>
      <use x="200.09765625" xlink:href="#LiberationSans-65"/>
      <use x="255.712890625" xlink:href="#LiberationSans-72"/>
      <use x="289.013671875" xlink:href="#LiberationSans-69"/>
      <use x="311.23046875" xlink:href="#LiberationSans-61"/>
     </g>
    </g>
    <g id="line2d_59">
     <path d="
M417.347 307.544
L449.347 307.544" style="fill:none;stroke:#8172b2;stroke-linecap:round;stroke-width:1.75;"/>
    </g>
    <g id="line2d_60"/>
    <g id="text_20">
     <!-- Eukaryota -->
     <defs>
      <path d="
M8.20312 0
L8.20312 68.7969
L60.4062 68.7969
L60.4062 61.1875
L17.5312 61.1875
L17.5312 39.1094
L57.4688 39.1094
L57.4688 31.5938
L17.5312 31.5938
L17.5312 7.625
L62.4062 7.625
L62.4062 0
z
" id="LiberationSans-45"/>
      <path d="
M39.8438 0
L21.9688 24.125
L15.5312 18.7969
L15.5312 0
L6.73438 0
L6.73438 72.4688
L15.5312 72.4688
L15.5312 27.2031
L38.7188 52.8281
L49.0312 52.8281
L27.5938 30.125
L50.1406 0
z
" id="LiberationSans-6b"/>
     </defs>
     <g style="fill:#262626;" transform="translate(462.14696875 313.144)scale(0.16 -0.16)">
      <use xlink:href="#LiberationSans-45"/>
      <use x="66.69921875" xlink:href="#LiberationSans-75"/>
      <use x="122.314453125" xlink:href="#LiberationSans-6b"/>
      <use x="172.314453125" xlink:href="#LiberationSans-61"/>
      <use x="227.9296875" xlink:href="#LiberationSans-72"/>
      <use x="261.23046875" xlink:href="#LiberationSans-79"/>
      <use x="311.23046875" xlink:href="#LiberationSans-6f"/>
      <use x="366.845703125" xlink:href="#LiberationSans-74"/>
      <use x="394.62890625" xlink:href="#LiberationSans-61"/>
     </g>
    </g>
   </g>
  </g>
 </g>
 <defs>
  <clipPath id="p2ead28f7df">
   <rect height="302.478" width="458.39596875" x="88.8735" y="28.386"/>
  </clipPath>
 </defs>
</svg>
