<?xml version="1.0" encoding="utf-8" standalone="no"?>
<!DOCTYPE svg PUBLIC "-//W3C//DTD SVG 1.1//EN"
  "http://www.w3.org/Graphics/SVG/1.1/DTD/svg11.dtd">
<!-- Created with matplotlib (http://matplotlib.org/) -->
<svg height="396pt" version="1.1" viewBox="0 0 576 396" width="576pt" xmlns="http://www.w3.org/2000/svg" xmlns:xlink="http://www.w3.org/1999/xlink">
 <defs>
  <style type="text/css">
*{stroke-linecap:butt;stroke-linejoin:round;}
  </style>
 </defs>
 <g id="figure_1">
  <g id="patch_1">
   <path d="
M0 396
L576 396
L576 0
L0 0
z
" style="fill:#ffffff;"/>
  </g>
  <g id="axes_1">
   <g id="patch_2">
    <path d="
M88.8735 330.864
L544.858 330.864
L544.858 28.386
L88.8735 28.386
z
" style="fill:#eaeaf2;"/>
   </g>
   <g id="matplotlib.axis_1">
    <g id="xtick_1">
     <g id="line2d_1">
      <path clip-path="url(#p770529f32b)" d="
M88.8735 330.864
L88.8735 28.386" style="fill:none;stroke:#ffffff;stroke-linecap:round;"/>
     </g>
     <g id="line2d_2">
      <defs>
       <path d="
M0 0
L0 0" id="m219da94a98" style="stroke:#262626;"/>
      </defs>
      <g>
       <use style="fill:#262626;stroke:#262626;" x="88.8735" xlink:href="#m219da94a98" y="330.864"/>
      </g>
     </g>
     <g id="line2d_3">
      <g>
       <use style="fill:#262626;stroke:#262626;" x="88.8735" xlink:href="#m219da94a98" y="28.386"/>
      </g>
     </g>
     <g id="text_1">
      <!-- 0.0 -->
      <defs>
       <path d="
M9.125 0
L9.125 10.6875
L18.6562 10.6875
L18.6562 0
z
" id="LiberationSans-2e"/>
       <path d="
M51.7031 34.4219
Q51.7031 24.5156 49.8281 17.75
Q47.9531 10.9844 44.7031 6.8125
Q41.4531 2.64062 37.0625 0.828125
Q32.6719 -0.984375 27.6875 -0.984375
Q22.6562 -0.984375 18.3125 0.828125
Q13.9688 2.64062 10.7656 6.78125
Q7.5625 10.9375 5.73438 17.7031
Q3.90625 24.4688 3.90625 34.4219
Q3.90625 44.8281 5.73438 51.6406
Q7.5625 58.4531 10.7812 62.5
Q14.0156 66.5469 18.4062 68.1875
Q22.7969 69.8281 27.9844 69.8281
Q32.9062 69.8281 37.2188 68.1875
Q41.5469 66.5469 44.7656 62.5
Q48 58.4531 49.8438 51.6406
Q51.7031 44.8281 51.7031 34.4219
M42.7812 34.4219
Q42.7812 42.625 41.7969 48.0625
Q40.8281 53.5156 38.9219 56.7656
Q37.0156 60.0156 34.25 61.3594
Q31.5 62.7031 27.9844 62.7031
Q24.2656 62.7031 21.4375 61.3281
Q18.6094 59.9688 16.6719 56.7188
Q14.75 53.4688 13.7656 48.0156
Q12.7969 42.5781 12.7969 34.4219
Q12.7969 26.5156 13.7969 21.0938
Q14.7969 15.6719 16.7188 12.375
Q18.6562 9.07812 21.4375 7.64062
Q24.2188 6.20312 27.7812 6.20312
Q31.25 6.20312 34.0312 7.64062
Q36.8125 9.07812 38.7344 12.375
Q40.6719 15.6719 41.7188 21.0938
Q42.7812 26.5156 42.7812 34.4219" id="LiberationSans-30"/>
      </defs>
      <g style="fill:#262626;" transform="translate(78.3785 349.459)scale(0.16 -0.16)">
       <use xlink:href="#LiberationSans-30"/>
       <use x="55.615234375" xlink:href="#LiberationSans-2e"/>
       <use x="83.3984375" xlink:href="#LiberationSans-30"/>
      </g>
     </g>
    </g>
    <g id="xtick_2">
     <g id="line2d_4">
      <path clip-path="url(#p770529f32b)" d="
M164.871 330.864
L164.871 28.386" style="fill:none;stroke:#ffffff;stroke-linecap:round;"/>
     </g>
     <g id="line2d_5">
      <g>
       <use style="fill:#262626;stroke:#262626;" x="164.870875" xlink:href="#m219da94a98" y="330.864"/>
      </g>
     </g>
     <g id="line2d_6">
      <g>
       <use style="fill:#262626;stroke:#262626;" x="164.870875" xlink:href="#m219da94a98" y="28.386"/>
      </g>
     </g>
     <g id="text_2">
      <!-- 0.1 -->
      <defs>
       <path d="
M7.625 0
L7.625 7.46875
L25.1406 7.46875
L25.1406 60.4062
L9.625 49.3125
L9.625 57.625
L25.875 68.7969
L33.9844 68.7969
L33.9844 7.46875
L50.7344 7.46875
L50.7344 0
z
" id="LiberationSans-31"/>
      </defs>
      <g style="fill:#262626;" transform="translate(154.453375 349.459)scale(0.16 -0.16)">
       <use xlink:href="#LiberationSans-30"/>
       <use x="55.615234375" xlink:href="#LiberationSans-2e"/>
       <use x="83.3984375" xlink:href="#LiberationSans-31"/>
      </g>
     </g>
    </g>
    <g id="xtick_3">
     <g id="line2d_7">
      <path clip-path="url(#p770529f32b)" d="
M240.868 330.864
L240.868 28.386" style="fill:none;stroke:#ffffff;stroke-linecap:round;"/>
     </g>
     <g id="line2d_8">
      <g>
       <use style="fill:#262626;stroke:#262626;" x="240.86825" xlink:href="#m219da94a98" y="330.864"/>
      </g>
     </g>
     <g id="line2d_9">
      <g>
       <use style="fill:#262626;stroke:#262626;" x="240.86825" xlink:href="#m219da94a98" y="28.386"/>
      </g>
     </g>
     <g id="text_3">
      <!-- 0.2 -->
      <defs>
       <path d="
M5.03125 0
L5.03125 6.20312
Q7.51562 11.9219 11.1094 16.2812
Q14.7031 20.6562 18.6562 24.1875
Q22.6094 27.7344 26.4844 30.7656
Q30.375 33.7969 33.5 36.8125
Q36.625 39.8438 38.5469 43.1562
Q40.4844 46.4844 40.4844 50.6875
Q40.4844 53.6094 39.5938 55.8281
Q38.7188 58.0625 37.0625 59.5625
Q35.4062 61.0781 33.0781 61.8281
Q30.7656 62.5938 27.9375 62.5938
Q25.2969 62.5938 22.9688 61.8594
Q20.6562 61.1406 18.8438 59.6719
Q17.0469 58.2031 15.8906 56.0312
Q14.75 53.8594 14.4062 50.9844
L5.42188 51.8125
Q5.85938 55.5156 7.46875 58.7812
Q9.07812 62.0625 11.9062 64.5312
Q14.75 67 18.7188 68.4062
Q22.7031 69.8281 27.9375 69.8281
Q33.0625 69.8281 37.0625 68.6094
Q41.0625 67.3906 43.8125 64.9844
Q46.5781 62.5938 48.0469 59.0781
Q49.5156 55.5625 49.5156 50.9844
Q49.5156 47.5156 48.2656 44.3906
Q47.0156 41.2656 44.9375 38.4219
Q42.875 35.5938 40.1406 32.9531
Q37.4062 30.3281 34.4219 27.8125
Q31.4531 25.2969 28.4219 22.8281
Q25.3906 20.3594 22.7188 17.8594
Q20.0625 15.375 17.9688 12.8125
Q15.875 10.25 14.7031 7.46875
L50.5938 7.46875
L50.5938 0
z
" id="LiberationSans-32"/>
      </defs>
      <g style="fill:#262626;" transform="translate(230.462 349.459)scale(0.16 -0.16)">
       <use xlink:href="#LiberationSans-30"/>
       <use x="55.615234375" xlink:href="#LiberationSans-2e"/>
       <use x="83.3984375" xlink:href="#LiberationSans-32"/>
      </g>
     </g>
    </g>
    <g id="xtick_4">
     <g id="line2d_10">
      <path clip-path="url(#p770529f32b)" d="
M316.866 330.864
L316.866 28.386" style="fill:none;stroke:#ffffff;stroke-linecap:round;"/>
     </g>
     <g id="line2d_11">
      <g>
       <use style="fill:#262626;stroke:#262626;" x="316.865625" xlink:href="#m219da94a98" y="330.864"/>
      </g>
     </g>
     <g id="line2d_12">
      <g>
       <use style="fill:#262626;stroke:#262626;" x="316.865625" xlink:href="#m219da94a98" y="28.386"/>
      </g>
     </g>
     <g id="text_4">
      <!-- 0.3 -->
      <defs>
       <path d="
M51.2188 19
Q51.2188 14.2656 49.6719 10.5469
Q48.1406 6.84375 45.1875 4.26562
Q42.2344 1.70312 37.8594 0.359375
Q33.5 -0.984375 27.875 -0.984375
Q21.4844 -0.984375 17.1094 0.609375
Q12.75 2.20312 9.90625 4.8125
Q7.07812 7.42188 5.65625 10.7656
Q4.25 14.1094 3.8125 17.6719
L12.8906 18.5
Q13.2812 15.7656 14.3281 13.5156
Q15.375 11.2812 17.1875 9.67188
Q19 8.0625 21.625 7.17188
Q24.2656 6.29688 27.875 6.29688
Q34.5156 6.29688 38.2969 9.5625
Q42.0938 12.8438 42.0938 19.2812
Q42.0938 23.0938 40.4062 25.4062
Q38.7188 27.7344 36.2031 29.0312
Q33.6875 30.3281 30.7344 30.7656
Q27.7812 31.2031 25.2969 31.2031
L20.3125 31.2031
L20.3125 38.8125
L25.0938 38.8125
Q27.5938 38.8125 30.2656 39.3281
Q32.9531 39.8438 35.1719 41.1875
Q37.4062 42.5312 38.8438 44.8281
Q40.2812 47.125 40.2812 50.6875
Q40.2812 56.2031 37.0312 59.3906
Q33.7969 62.5938 27.3906 62.5938
Q21.5781 62.5938 17.9844 59.6094
Q14.4062 56.6406 13.8125 51.2188
L4.98438 51.9062
Q5.51562 56.4531 7.46875 59.8125
Q9.42188 63.1875 12.4219 65.4062
Q15.4375 67.625 19.2812 68.7188
Q23.1406 69.8281 27.4844 69.8281
Q33.25 69.8281 37.3906 68.375
Q41.5469 66.9375 44.1875 64.4688
Q46.8281 62.0156 48.0625 58.6875
Q49.3125 55.375 49.3125 51.6094
Q49.3125 48.5781 48.4844 45.9375
Q47.6562 43.3125 45.8906 41.2031
Q44.1406 39.1094 41.4219 37.5938
Q38.7188 36.0781 34.9062 35.2969
L34.9062 35.1094
Q39.0625 34.6719 42.1406 33.2188
Q45.2188 31.7812 47.2188 29.625
Q49.2188 27.4844 50.2188 24.75
Q51.2188 22.0156 51.2188 19" id="LiberationSans-33"/>
      </defs>
      <g style="fill:#262626;" transform="translate(306.409375 349.459)scale(0.16 -0.16)">
       <use xlink:href="#LiberationSans-30"/>
       <use x="55.615234375" xlink:href="#LiberationSans-2e"/>
       <use x="83.3984375" xlink:href="#LiberationSans-33"/>
      </g>
     </g>
    </g>
    <g id="xtick_5">
     <g id="line2d_13">
      <path clip-path="url(#p770529f32b)" d="
M392.863 330.864
L392.863 28.386" style="fill:none;stroke:#ffffff;stroke-linecap:round;"/>
     </g>
     <g id="line2d_14">
      <g>
       <use style="fill:#262626;stroke:#262626;" x="392.863" xlink:href="#m219da94a98" y="330.864"/>
      </g>
     </g>
     <g id="line2d_15">
      <g>
       <use style="fill:#262626;stroke:#262626;" x="392.863" xlink:href="#m219da94a98" y="28.386"/>
      </g>
     </g>
     <g id="text_5">
      <!-- 0.4 -->
      <defs>
       <path d="
M43.0156 15.5781
L43.0156 0
L34.7188 0
L34.7188 15.5781
L2.29688 15.5781
L2.29688 22.4062
L33.7969 68.7969
L43.0156 68.7969
L43.0156 22.5156
L52.6875 22.5156
L52.6875 15.5781
z

M34.7188 58.8906
Q34.625 58.6406 34.2344 57.9375
Q33.8438 57.2344 33.3438 56.3438
Q32.8594 55.4688 32.3438 54.5625
Q31.8438 53.6562 31.4531 53.0781
L13.8125 27.0938
Q13.5781 26.7031 13.1094 26.0625
Q12.6406 25.4375 12.1562 24.7812
Q11.6719 24.125 11.1719 23.4844
Q10.6875 22.8594 10.4062 22.5156
L34.7188 22.5156
z
" id="LiberationSans-34"/>
      </defs>
      <g style="fill:#262626;" transform="translate(382.28925 349.459)scale(0.16 -0.16)">
       <use xlink:href="#LiberationSans-30"/>
       <use x="55.615234375" xlink:href="#LiberationSans-2e"/>
       <use x="83.3984375" xlink:href="#LiberationSans-34"/>
      </g>
     </g>
    </g>
    <g id="xtick_6">
     <g id="line2d_16">
      <path clip-path="url(#p770529f32b)" d="
M468.86 330.864
L468.86 28.386" style="fill:none;stroke:#ffffff;stroke-linecap:round;"/>
     </g>
     <g id="line2d_17">
      <g>
       <use style="fill:#262626;stroke:#262626;" x="468.860375" xlink:href="#m219da94a98" y="330.864"/>
      </g>
     </g>
     <g id="line2d_18">
      <g>
       <use style="fill:#262626;stroke:#262626;" x="468.860375" xlink:href="#m219da94a98" y="28.386"/>
      </g>
     </g>
     <g id="text_6">
      <!-- 0.5 -->
      <defs>
       <path d="
M51.4219 22.4062
Q51.4219 17.2344 49.8594 12.9375
Q48.2969 8.64062 45.2188 5.53125
Q42.1406 2.4375 37.5781 0.71875
Q33.0156 -0.984375 27 -0.984375
Q21.5781 -0.984375 17.5469 0.28125
Q13.5312 1.5625 10.7344 3.78125
Q7.95312 6 6.3125 8.98438
Q4.6875 11.9688 4 15.375
L12.8906 16.4062
Q13.4219 14.4531 14.3906 12.625
Q15.375 10.7969 17.0625 9.34375
Q18.75 7.90625 21.2188 7.04688
Q23.6875 6.20312 27.2031 6.20312
Q30.6094 6.20312 33.3906 7.25
Q36.1875 8.29688 38.1562 10.3438
Q40.1406 12.4062 41.2031 15.375
Q42.2812 18.3594 42.2812 22.2188
Q42.2812 25.3906 41.25 28.0469
Q40.2344 30.7188 38.3281 32.6406
Q36.4219 34.5781 33.6562 35.6406
Q30.9062 36.7188 27.3906 36.7188
Q25.2031 36.7188 23.3438 36.3281
Q21.4844 35.9375 19.8906 35.25
Q18.3125 34.5781 17.0156 33.6719
Q15.7188 32.7656 14.5938 31.7812
L6 31.7812
L8.29688 68.7969
L47.4062 68.7969
L47.4062 61.3281
L16.3125 61.3281
L14.9844 39.5
Q17.3281 41.3125 20.8438 42.5938
Q24.3594 43.8906 29.2031 43.8906
Q34.3281 43.8906 38.4219 42.3281
Q42.5312 40.7656 45.4062 37.9062
Q48.2969 35.0625 49.8594 31.1094
Q51.4219 27.1562 51.4219 22.4062" id="LiberationSans-35"/>
      </defs>
      <g style="fill:#262626;" transform="translate(458.387875 349.459)scale(0.16 -0.16)">
       <use xlink:href="#LiberationSans-30"/>
       <use x="55.615234375" xlink:href="#LiberationSans-2e"/>
       <use x="83.3984375" xlink:href="#LiberationSans-35"/>
      </g>
     </g>
    </g>
    <g id="xtick_7">
     <g id="text_7">
      <!-- 0.6 -->
      <defs>
       <path d="
M51.2188 22.5156
Q51.2188 17.3281 49.7812 13
Q48.3438 8.6875 45.5312 5.57812
Q42.7188 2.48438 38.5625 0.75
Q34.4219 -0.984375 29 -0.984375
Q23 -0.984375 18.5 1.3125
Q14.0156 3.60938 11.0312 7.92188
Q8.0625 12.25 6.5625 18.5312
Q5.07812 24.8125 5.07812 32.8125
Q5.07812 42 6.76562 48.9219
Q8.45312 55.8594 11.625 60.5
Q14.7969 65.1406 19.3594 67.4844
Q23.9219 69.8281 29.6875 69.8281
Q33.2031 69.8281 36.2812 69.0938
Q39.3594 68.3594 41.875 66.7188
Q44.3906 65.0938 46.2812 62.4062
Q48.1875 59.7188 49.3125 55.8125
L40.9219 54.2969
Q39.5469 58.7344 36.5469 60.7188
Q33.5469 62.7031 29.5938 62.7031
Q25.9844 62.7031 23.0469 60.9844
Q20.125 59.2812 18.0625 55.875
Q16.0156 52.4844 14.9062 47.3594
Q13.8125 42.2344 13.8125 35.4062
Q16.2188 39.8438 20.5625 42.1562
Q24.9062 44.4844 30.5156 44.4844
Q35.2031 44.4844 39.0156 42.9688
Q42.8281 41.4531 45.5312 38.5938
Q48.25 35.75 49.7344 31.6719
Q51.2188 27.5938 51.2188 22.5156
M42.2812 22.125
Q42.2812 25.6875 41.4062 28.5625
Q40.5312 31.4531 38.7656 33.4688
Q37.0156 35.5 34.4219 36.5938
Q31.8438 37.7031 28.4219 37.7031
Q26.0312 37.7031 23.5781 36.9844
Q21.1406 36.2812 19.1562 34.6875
Q17.1875 33.1094 15.9375 30.5156
Q14.7031 27.9375 14.7031 24.2188
Q14.7031 20.4062 15.6719 17.1094
Q16.6562 13.8125 18.4844 11.375
Q20.3125 8.9375 22.8906 7.51562
Q25.4844 6.10938 28.7188 6.10938
Q31.8906 6.10938 34.4062 7.20312
Q36.9219 8.29688 38.6719 10.375
Q40.4375 12.4531 41.3594 15.4219
Q42.2812 18.4062 42.2812 22.125" id="LiberationSans-36"/>
      </defs>
      <g style="fill:#262626;" transform="translate(534.4015 349.459)scale(0.16 -0.16)">
       <use xlink:href="#LiberationSans-30"/>
       <use x="55.615234375" xlink:href="#LiberationSans-2e"/>
       <use x="83.3984375" xlink:href="#LiberationSans-36"/>
      </g>
     </g>
    </g>
    <g id="text_8">
     <!-- Distance (Branch Length Units) -->
     <defs>
      <path d="
M46.3906 14.5938
Q46.3906 10.8906 44.9375 7.98438
Q43.5 5.07812 40.7656 3.09375
Q38.0312 1.125 34.0469 0.0625
Q30.0781 -0.984375 24.9531 -0.984375
Q20.3594 -0.984375 16.6719 -0.265625
Q12.9844 0.4375 10.2031 2
Q7.42188 3.5625 5.53125 6.125
Q3.65625 8.6875 2.78125 12.4062
L10.5469 13.9219
Q11.6719 9.67188 15.1875 7.6875
Q18.7031 5.71875 24.9531 5.71875
Q27.7812 5.71875 30.1406 6.10938
Q32.5156 6.5 34.2188 7.45312
Q35.9375 8.40625 36.8906 9.98438
Q37.8438 11.5781 37.8438 13.9219
Q37.8438 16.3125 36.7188 17.8438
Q35.5938 19.3906 33.5938 20.4062
Q31.5938 21.4375 28.7344 22.1875
Q25.875 22.9531 22.4688 23.875
Q19.2812 24.7031 16.1562 25.7344
Q13.0312 26.7656 10.5156 28.4375
Q8.01562 30.125 6.45312 32.6094
Q4.89062 35.1094 4.89062 38.875
Q4.89062 46.0938 10.0312 49.875
Q15.1875 53.6562 25.0469 53.6562
Q33.7969 53.6562 38.9375 50.5781
Q44.0938 47.5156 45.4531 40.7188
L37.5469 39.75
Q37.1094 41.7969 35.9375 43.1875
Q34.7656 44.5781 33.1094 45.4375
Q31.4531 46.2969 29.375 46.6562
Q27.2969 47.0156 25.0469 47.0156
Q19.0938 47.0156 16.25 45.2031
Q13.4219 43.4062 13.4219 39.75
Q13.4219 37.5938 14.4688 36.2031
Q15.5312 34.8125 17.4062 33.8594
Q19.2812 32.9062 21.9219 32.2031
Q24.5625 31.5 27.7344 30.7188
Q29.8281 30.1719 32.0312 29.5625
Q34.2344 28.9531 36.2969 28.0938
Q38.375 27.25 40.2031 26.0938
Q42.0469 24.9531 43.4062 23.3438
Q44.7812 21.7344 45.5781 19.5781
Q46.3906 17.4375 46.3906 14.5938" id="LiberationSans-73"/>
      <path d="
M13.4844 24.5625
Q13.4844 20.4062 14.3281 16.9062
Q15.1875 13.4219 16.9688 10.9062
Q18.75 8.40625 21.5312 7
Q24.3125 5.60938 28.2188 5.60938
Q33.9375 5.60938 37.375 7.90625
Q40.8281 10.2031 42.0469 13.7188
L49.75 11.5312
Q48.9219 9.32812 47.4375 7.10938
Q45.9531 4.89062 43.4531 3.09375
Q40.9688 1.3125 37.2344 0.15625
Q33.5 -0.984375 28.2188 -0.984375
Q16.5 -0.984375 10.375 6
Q4.25 12.9844 4.25 26.7656
Q4.25 34.1875 6.09375 39.3281
Q7.95312 44.4844 11.1719 47.7031
Q14.4062 50.9219 18.7031 52.3594
Q23 53.8125 27.875 53.8125
Q34.5156 53.8125 38.9844 51.6562
Q43.4531 49.5156 46.1562 45.7188
Q48.875 41.9375 50.0156 36.8125
Q51.1719 31.6875 51.1719 25.7344
L51.1719 24.5625
z

M42.0938 31.2969
Q41.3594 39.6562 37.8438 43.4844
Q34.3281 47.3125 27.7344 47.3125
Q25.5312 47.3125 23.1094 46.6094
Q20.7031 45.9062 18.6562 44.0938
Q16.6094 42.2812 15.1875 39.1719
Q13.7656 36.0781 13.5781 31.2969
z
" id="LiberationSans-65"/>
      <path d="
M6.9375 0
L6.9375 40.5312
Q6.9375 42.1875 6.90625 43.9219
Q6.89062 45.6562 6.82812 47.2656
Q6.78125 48.875 6.73438 50.2812
Q6.6875 51.7031 6.64062 52.8281
L14.9375 52.8281
Q14.9844 51.7031 15.0625 50.2656
Q15.1406 48.8281 15.2031 47.3125
Q15.2812 45.7969 15.2969 44.4062
Q15.3281 43.0156 15.3281 42.0469
L15.5312 42.0469
Q16.4531 45.0625 17.5 47.2812
Q18.5625 49.5156 19.9688 50.9531
Q21.3906 52.3906 23.3438 53.0938
Q25.2969 53.8125 28.0781 53.8125
Q29.1562 53.8125 30.125 53.6406
Q31.1094 53.4688 31.6406 53.3281
L31.6406 45.2656
Q30.7656 45.5156 29.5938 45.625
Q28.4219 45.75 26.9531 45.75
Q23.9219 45.75 21.7969 44.375
Q19.6719 43.0156 18.3281 40.5938
Q17 38.1875 16.3594 34.8438
Q15.7188 31.5 15.7188 27.5469
L15.7188 0
z
" id="LiberationSans-72"/>
      <path d="
M20.2188 -0.984375
Q12.25 -0.984375 8.25 3.21875
Q4.25 7.42188 4.25 14.75
Q4.25 19.9688 6.21875 23.3125
Q8.20312 26.6562 11.3906 28.5625
Q14.5938 30.4688 18.6875 31.2031
Q22.7969 31.9375 27.0469 32.0312
L38.9219 32.2344
L38.9219 35.1094
Q38.9219 38.375 38.2344 40.6719
Q37.5469 42.9688 36.125 44.375
Q34.7188 45.7969 32.5938 46.4531
Q30.4688 47.125 27.5938 47.125
Q25.0469 47.125 23 46.75
Q20.9531 46.3906 19.4375 45.4375
Q17.9219 44.4844 16.9844 42.8438
Q16.0625 41.2188 15.7656 38.7188
L6.59375 39.5469
Q7.07812 42.6719 8.4375 45.2812
Q9.8125 47.9062 12.3281 49.7969
Q14.8438 51.7031 18.625 52.75
Q22.4062 53.8125 27.7812 53.8125
Q37.75 53.8125 42.7656 49.2344
Q47.7969 44.6719 47.7969 36.0312
L47.7969 13.2812
Q47.7969 9.375 48.8281 7.39062
Q49.8594 5.42188 52.7344 5.42188
Q53.4688 5.42188 54.2031 5.51562
Q54.9375 5.60938 55.6094 5.76562
L55.6094 0.296875
Q53.9531 -0.09375 52.3125 -0.28125
Q50.6875 -0.484375 48.8281 -0.484375
Q46.3438 -0.484375 44.5625 0.171875
Q42.7812 0.828125 41.6562 2.17188
Q40.5312 3.51562 39.9375 5.48438
Q39.3594 7.46875 39.2031 10.1094
L38.9219 10.1094
Q37.5 7.5625 35.8125 5.51562
Q34.125 3.46875 31.875 2.03125
Q29.6406 0.59375 26.7812 -0.1875
Q23.9219 -0.984375 20.2188 -0.984375
M22.2188 5.60938
Q26.4219 5.60938 29.5625 7.14062
Q32.7188 8.6875 34.7812 11.0781
Q36.8594 13.4844 37.8906 16.3125
Q38.9219 19.1406 38.9219 21.7344
L38.9219 26.0781
L29.2969 25.875
Q26.0781 25.8281 23.1719 25.4062
Q20.2656 25 18.0625 23.7812
Q15.875 22.5625 14.5781 20.3594
Q13.2812 18.1719 13.2812 14.5938
Q13.2812 10.2969 15.5938 7.95312
Q17.9219 5.60938 22.2188 5.60938" id="LiberationSans-61"/>
      <path d="
M27.0469 0.390625
Q25.0469 -0.140625 22.9688 -0.453125
Q20.9062 -0.78125 18.1719 -0.78125
Q7.625 -0.78125 7.625 11.1875
L7.625 46.4375
L1.51562 46.4375
L1.51562 52.8281
L7.95312 52.8281
L10.5469 64.6562
L16.4062 64.6562
L16.4062 52.8281
L26.1719 52.8281
L26.1719 46.4375
L16.4062 46.4375
L16.4062 13.0938
Q16.4062 9.28125 17.6406 7.73438
Q18.8906 6.20312 21.9688 6.20312
Q23.25 6.20312 24.4375 6.39062
Q25.6406 6.59375 27.0469 6.89062
z
" id="LiberationSans-74"/>
      <path d="
M27.0938 25.7812
Q27.0938 18.9531 26.0625 12.7656
Q25.0469 6.59375 22.8438 0.875
Q20.6562 -4.82812 17.2344 -10.2031
Q13.8125 -15.5781 9.07812 -20.7031
L0.59375 -20.7031
Q5.17188 -15.5781 8.51562 -10.2031
Q11.8594 -4.82812 14 0.921875
Q16.1562 6.6875 17.2031 12.8906
Q18.2656 19.0938 18.2656 25.875
Q18.2656 32.6719 17.2031 38.8594
Q16.1562 45.0625 14 50.7969
Q11.8594 56.5469 8.51562 61.9375
Q5.17188 67.3281 0.59375 72.4688
L9.07812 72.4688
Q13.8125 67.3281 17.2344 61.9531
Q20.6562 56.5938 22.8438 50.875
Q25.0469 45.1719 26.0625 38.9688
Q27.0938 32.7656 27.0938 25.9844
z
" id="LiberationSans-29"/>
      <path d="
M13.4219 26.6562
Q13.4219 22.125 14.0781 18.3125
Q14.75 14.5 16.3125 11.7344
Q17.875 8.98438 20.4375 7.46875
Q23 5.95312 26.7656 5.95312
Q31.4531 5.95312 34.5938 8.48438
Q37.75 11.0312 38.4844 16.3125
L47.3594 15.7188
Q46.9219 12.4531 45.4531 9.42188
Q44 6.39062 41.4844 4.09375
Q38.9688 1.8125 35.3438 0.40625
Q31.7344 -0.984375 27 -0.984375
Q20.7969 -0.984375 16.4531 1.10938
Q12.1094 3.21875 9.39062 6.90625
Q6.6875 10.5938 5.46875 15.5938
Q4.25 20.6094 4.25 26.4688
Q4.25 31.7812 5.125 35.8594
Q6 39.9375 7.59375 42.9844
Q9.1875 46.0469 11.3281 48.125
Q13.4844 50.2031 15.9844 51.4375
Q18.5 52.6875 21.2812 53.25
Q24.0781 53.8125 26.9062 53.8125
Q31.3438 53.8125 34.8125 52.5938
Q38.2812 51.375 40.7969 49.25
Q43.3125 47.125 44.875 44.2344
Q46.4375 41.3594 47.0781 38.0312
L38.0312 37.3594
Q37.3594 41.75 34.5625 44.3281
Q31.7812 46.9219 26.6562 46.9219
Q22.9062 46.9219 20.3906 45.6719
Q17.875 44.4375 16.3125 41.9219
Q14.75 39.4062 14.0781 35.5938
Q13.4219 31.7812 13.4219 26.6562" id="LiberationSans-63"/>
      <path d="
M15.4844 43.7969
Q16.9375 46.4844 18.6406 48.3594
Q20.3594 50.25 22.4062 51.4688
Q24.4688 52.6875 26.9062 53.25
Q29.3438 53.8125 32.375 53.8125
Q37.4531 53.8125 40.7031 52.4375
Q43.9531 51.0781 45.8281 48.6094
Q47.7031 46.1406 48.4062 42.7188
Q49.125 39.3125 49.125 35.2031
L49.125 0
L40.2812 0
L40.2812 33.5
Q40.2812 36.8594 39.8594 39.3906
Q39.4531 41.9375 38.2812 43.625
Q37.1094 45.3125 34.9531 46.1562
Q32.8125 47.0156 29.3906 47.0156
Q26.2656 47.0156 23.75 45.8906
Q21.2344 44.7812 19.4531 42.7188
Q17.6719 40.6719 16.6875 37.7344
Q15.7188 34.8125 15.7188 31.1562
L15.7188 0
L6.9375 0
L6.9375 72.4688
L15.7188 72.4688
L15.7188 53.6094
Q15.7188 52 15.6719 50.3906
Q15.625 48.7812 15.5469 47.4062
Q15.4844 46.0469 15.4219 45.0938
Q15.375 44.1406 15.3281 43.7969
z
" id="LiberationSans-68"/>
      <path d="
M6.6875 64.0625
L6.6875 72.4688
L15.4844 72.4688
L15.4844 64.0625
z

M6.6875 0
L6.6875 52.8281
L15.4844 52.8281
L15.4844 0
z
" id="LiberationSans-69"/>
      <path d="
M35.6875 -0.984375
Q30.0312 -0.984375 24.9531 0.53125
Q19.875 2.04688 16.0312 5.25
Q12.2031 8.45312 9.95312 13.3594
Q7.71875 18.2656 7.71875 25
L7.71875 68.7969
L17.0469 68.7969
L17.0469 25.7812
Q17.0469 20.5625 18.4375 16.9219
Q19.8281 13.2812 22.3125 10.9844
Q24.8125 8.6875 28.2031 7.64062
Q31.5938 6.59375 35.6406 6.59375
Q39.6562 6.59375 43.2188 7.65625
Q46.7812 8.73438 49.4688 11.0781
Q52.1562 13.4219 53.6875 17.2031
Q55.2188 21 55.2188 26.4219
L55.2188 68.7969
L64.5 68.7969
L64.5 25.875
Q64.5 19 62.2344 13.9375
Q59.9688 8.89062 56.0625 5.5625
Q52.1562 2.25 46.9062 0.625
Q41.6562 -0.984375 35.6875 -0.984375" id="LiberationSans-55"/>
      <path d="
M8.20312 0
L8.20312 68.7969
L17.5312 68.7969
L17.5312 7.625
L52.2969 7.625
L52.2969 0
z
" id="LiberationSans-4c"/>
      <path d="
M6.20312 25.9844
Q6.20312 32.7656 7.21875 38.9688
Q8.25 45.1719 10.4375 50.875
Q12.6406 56.5938 16.0625 61.9531
Q19.4844 67.3281 24.2188 72.4688
L32.7188 72.4688
Q28.125 67.3281 24.7812 61.9375
Q21.4375 56.5469 19.2812 50.7969
Q17.1406 45.0625 16.0938 38.8594
Q15.0469 32.6719 15.0469 25.875
Q15.0469 19.0938 16.0938 12.8906
Q17.1406 6.6875 19.2812 0.921875
Q21.4375 -4.82812 24.7812 -10.2031
Q28.125 -15.5781 32.7188 -20.7031
L24.2188 -20.7031
Q19.4844 -15.5781 16.0625 -10.2031
Q12.6406 -4.82812 10.4375 0.875
Q8.25 6.59375 7.21875 12.7656
Q6.20312 18.9531 6.20312 25.7812
z
" id="LiberationSans-28"/>
      <path d="
M40.2812 0
L40.2812 33.5
Q40.2812 37.3594 39.7188 39.9375
Q39.1562 42.5312 37.8906 44.1094
Q36.625 45.7031 34.5469 46.3594
Q32.4688 47.0156 29.3906 47.0156
Q26.2656 47.0156 23.75 45.9219
Q21.2344 44.8281 19.4531 42.75
Q17.6719 40.6719 16.6875 37.625
Q15.7188 34.5781 15.7188 30.6094
L15.7188 0
L6.9375 0
L6.9375 41.5469
Q6.9375 43.2188 6.90625 45.0469
Q6.89062 46.875 6.82812 48.5
Q6.78125 50.1406 6.73438 51.3125
Q6.6875 52.4844 6.64062 52.8281
L14.9375 52.8281
Q14.9844 52.5938 15.0312 51.5156
Q15.0938 50.4375 15.1562 49.0469
Q15.2344 47.6562 15.2812 46.2188
Q15.3281 44.7812 15.3281 43.7969
L15.4844 43.7969
Q16.75 46.0938 18.2656 47.9531
Q19.7812 49.8125 21.7812 51.0938
Q23.7812 52.3906 26.3594 53.0938
Q28.9531 53.8125 32.375 53.8125
Q36.7656 53.8125 39.9375 52.7344
Q43.1094 51.6562 45.1562 49.4062
Q47.2188 47.1719 48.1719 43.625
Q49.125 40.0938 49.125 35.2031
L49.125 0
z
" id="LiberationSans-6e"/>
      <path d="
M26.7656 -20.75
Q22.2188 -20.75 18.7031 -19.8125
Q15.1875 -18.8906 12.6875 -17.1562
Q10.2031 -15.4375 8.64062 -13.0312
Q7.07812 -10.6406 6.39062 -7.71875
L15.2344 -6.45312
Q16.1094 -10.1094 19.1094 -12.0781
Q22.125 -14.0625 27 -14.0625
Q29.9844 -14.0625 32.4219 -13.2344
Q34.8594 -12.4062 36.5625 -10.5625
Q38.2812 -8.73438 39.2031 -5.79688
Q40.1406 -2.875 40.1406 1.3125
L40.1406 9.8125
L40.0469 9.8125
Q39.0625 7.8125 37.625 5.98438
Q36.1875 4.15625 34.1094 2.73438
Q32.0312 1.3125 29.2969 0.453125
Q26.5625 -0.390625 23.0469 -0.390625
Q18.0156 -0.390625 14.4219 1.29688
Q10.8438 2.98438 8.5625 6.34375
Q6.29688 9.71875 5.25 14.7188
Q4.20312 19.7344 4.20312 26.3125
Q4.20312 32.6719 5.25 37.75
Q6.29688 42.8281 8.65625 46.3594
Q11.0312 49.9062 14.8125 51.7812
Q18.6094 53.6562 24.0312 53.6562
Q29.6406 53.6562 33.7656 51.0938
Q37.8906 48.5312 40.1406 43.7969
L40.2344 43.7969
Q40.2344 45.0156 40.2969 46.5312
Q40.375 48.0469 40.4531 49.3906
Q40.5312 50.7344 40.625 51.7031
Q40.7188 52.6875 40.8281 52.8281
L49.1719 52.8281
Q49.125 52.3906 49.0781 51.3438
Q49.0312 50.2969 48.9688 48.8281
Q48.9219 47.3594 48.8906 45.5781
Q48.875 43.7969 48.875 41.8906
L48.875 1.51562
Q48.875 -9.57812 43.4219 -15.1562
Q37.9844 -20.75 26.7656 -20.75
M40.1406 26.4219
Q40.1406 31.9375 38.9375 35.8594
Q37.75 39.7969 35.7969 42.2812
Q33.8438 44.7812 31.3281 45.9531
Q28.8125 47.125 26.1719 47.125
Q22.7969 47.125 20.375 45.9531
Q17.9688 44.7812 16.375 42.2656
Q14.7969 39.75 14.0312 35.8125
Q13.2812 31.8906 13.2812 26.4219
Q13.2812 20.7031 14.0312 16.8125
Q14.7969 12.9375 16.3594 10.5469
Q17.9219 8.15625 20.3125 7.125
Q22.7031 6.10938 26.0312 6.10938
Q28.6562 6.10938 31.1719 7.21875
Q33.6875 8.34375 35.6875 10.7812
Q37.7031 13.2344 38.9219 17.0938
Q40.1406 20.9531 40.1406 26.4219" id="LiberationSans-67"/>
      <path id="LiberationSans-20"/>
      <path d="
M67.4375 35.1094
Q67.4375 26.5156 64.8438 19.9375
Q62.25 13.375 57.75 8.95312
Q53.2656 4.54688 47.1406 2.26562
Q41.0156 0 33.9375 0
L8.20312 0
L8.20312 68.7969
L30.9531 68.7969
Q38.9219 68.7969 45.625 66.8125
Q52.3438 64.8438 57.1719 60.7188
Q62.0156 56.5938 64.7188 50.2344
Q67.4375 43.8906 67.4375 35.1094
M58.0625 35.1094
Q58.0625 42.0938 56.0469 47.0469
Q54.0469 52 50.4375 55.1719
Q46.8281 58.3438 41.7969 59.8281
Q36.7656 61.3281 30.7656 61.3281
L17.5312 61.3281
L17.5312 7.46875
L32.8594 7.46875
Q38.2812 7.46875 42.8906 9.21875
Q47.5156 10.9844 50.875 14.4531
Q54.25 17.9219 56.1562 23.0938
Q58.0625 28.2656 58.0625 35.1094" id="LiberationSans-44"/>
      <path d="
M61.4219 19.3906
Q61.4219 14.1562 59.375 10.4688
Q57.3281 6.78125 53.8594 4.46875
Q50.3906 2.15625 45.7969 1.07812
Q41.2188 0 36.1406 0
L8.20312 0
L8.20312 68.7969
L33.2031 68.7969
Q38.9219 68.7969 43.4062 67.8438
Q47.9062 66.8906 51.0312 64.8438
Q54.1562 62.7969 55.7812 59.6406
Q57.4219 56.5 57.4219 52.0938
Q57.4219 49.2188 56.6094 46.6719
Q55.8125 44.1406 54.1719 42.0625
Q52.5469 39.9844 50.0781 38.5
Q47.6094 37.0156 44.3438 36.2812
Q48.4844 35.7969 51.6875 34.375
Q54.8906 32.9531 57.0312 30.75
Q59.1875 28.5625 60.2969 25.6562
Q61.4219 22.75 61.4219 19.3906
M48.0469 50.9844
Q48.0469 56.5469 44.2344 58.9375
Q40.4375 61.3281 33.2031 61.3281
L17.5312 61.3281
L17.5312 39.5469
L33.2031 39.5469
Q37.3125 39.5469 40.1406 40.3438
Q42.9688 41.1562 44.7188 42.6406
Q46.4844 44.1406 47.2656 46.2344
Q48.0469 48.3438 48.0469 50.9844
M52 20.125
Q52 23.3906 50.7969 25.6875
Q49.6094 27.9844 47.3594 29.4375
Q45.125 30.9062 41.9688 31.5938
Q38.8125 32.2812 34.9062 32.2812
L17.5312 32.2812
L17.5312 7.46875
L35.6406 7.46875
Q39.2031 7.46875 42.2031 8.04688
Q45.2188 8.64062 47.3906 10.1094
Q49.5625 11.5781 50.7812 14.0156
Q52 16.4531 52 20.125" id="LiberationSans-42"/>
     </defs>
     <g style="fill:#262626;" transform="translate(195.13825 370.5335)scale(0.176 -0.176)">
      <use xlink:href="#LiberationSans-44"/>
      <use x="72.216796875" xlink:href="#LiberationSans-69"/>
      <use x="94.43359375" xlink:href="#LiberationSans-73"/>
      <use x="144.43359375" xlink:href="#LiberationSans-74"/>
      <use x="172.216796875" xlink:href="#LiberationSans-61"/>
      <use x="227.83203125" xlink:href="#LiberationSans-6e"/>
      <use x="283.447265625" xlink:href="#LiberationSans-63"/>
      <use x="333.447265625" xlink:href="#LiberationSans-65"/>
      <use x="389.0625" xlink:href="#LiberationSans-20"/>
      <use x="416.845703125" xlink:href="#LiberationSans-28"/>
      <use x="450.146484375" xlink:href="#LiberationSans-42"/>
      <use x="516.845703125" xlink:href="#LiberationSans-72"/>
      <use x="550.146484375" xlink:href="#LiberationSans-61"/>
      <use x="605.76171875" xlink:href="#LiberationSans-6e"/>
      <use x="661.376953125" xlink:href="#LiberationSans-63"/>
      <use x="711.376953125" xlink:href="#LiberationSans-68"/>
      <use x="766.9921875" xlink:href="#LiberationSans-20"/>
      <use x="794.775390625" xlink:href="#LiberationSans-4c"/>
      <use x="850.390625" xlink:href="#LiberationSans-65"/>
      <use x="906.005859375" xlink:href="#LiberationSans-6e"/>
      <use x="961.62109375" xlink:href="#LiberationSans-67"/>
      <use x="1017.23632812" xlink:href="#LiberationSans-74"/>
      <use x="1045.01953125" xlink:href="#LiberationSans-68"/>
      <use x="1100.63476562" xlink:href="#LiberationSans-20"/>
      <use x="1128.41796875" xlink:href="#LiberationSans-55"/>
      <use x="1200.63476562" xlink:href="#LiberationSans-6e"/>
      <use x="1256.25" xlink:href="#LiberationSans-69"/>
      <use x="1278.46679688" xlink:href="#LiberationSans-74"/>
      <use x="1306.25" xlink:href="#LiberationSans-73"/>
      <use x="1356.25" xlink:href="#LiberationSans-29"/>
     </g>
    </g>
   </g>
   <g id="matplotlib.axis_2">
    <g id="ytick_1">
     <g id="line2d_19">
      <path clip-path="url(#p770529f32b)" d="
M88.8735 270.368
L544.858 270.368" style="fill:none;stroke:#ffffff;stroke-linecap:round;"/>
     </g>
     <g id="line2d_20">
      <g>
       <use style="fill:#262626;stroke:#262626;" x="88.8735" xlink:href="#m219da94a98" y="270.3684"/>
      </g>
     </g>
     <g id="line2d_21">
      <g>
       <use style="fill:#262626;stroke:#262626;" x="544.85775" xlink:href="#m219da94a98" y="270.3684"/>
      </g>
     </g>
     <g id="text_9">
      <!--  60% -->
      <defs>
       <path d="
M85.3594 21.1875
Q85.3594 15.0938 84.1094 10.9062
Q82.8594 6.73438 80.7344 4.17188
Q78.6094 1.60938 75.7812 0.5
Q72.9531 -0.59375 69.7344 -0.59375
Q66.5 -0.59375 63.6875 0.5
Q60.8906 1.60938 58.8125 4.14062
Q56.7344 6.6875 55.5312 10.8594
Q54.3438 15.0469 54.3438 21.1875
Q54.3438 27.6875 55.5156 31.9375
Q56.6875 36.1875 58.7812 38.7031
Q60.8906 41.2188 63.75 42.2188
Q66.6094 43.2188 69.9219 43.2188
Q73.1406 43.2188 75.9531 42.2188
Q78.7656 41.2188 80.8281 38.7031
Q82.9062 36.1875 84.125 31.9375
Q85.3594 27.6875 85.3594 21.1875
M25.7344 0
L18.1719 0
L63.1875 68.7969
L70.8438 68.7969
z

M19.2344 69.3906
Q22.3594 69.3906 25.1406 68.3906
Q27.9375 67.3906 30.0312 64.8906
Q32.125 62.4062 33.3125 58.2031
Q34.5156 54 34.5156 47.6094
Q34.5156 41.4531 33.2969 37.25
Q32.0781 33.0625 30 30.4375
Q27.9375 27.8281 25.0938 26.7031
Q22.2656 25.5938 19.0469 25.5938
Q15.7656 25.5938 12.9375 26.7031
Q10.1094 27.8281 8.03125 30.4219
Q5.95312 33.0156 4.75 37.2031
Q3.5625 41.4062 3.5625 47.6094
Q3.5625 54 4.75 58.2031
Q5.95312 62.4062 8.04688 64.8906
Q10.1562 67.3906 13.0312 68.3906
Q15.9219 69.3906 19.2344 69.3906
M78.125 21.1875
Q78.125 26.0312 77.5781 29.2188
Q77.0469 32.4219 76 34.3281
Q74.9531 36.2344 73.4062 37.0156
Q71.875 37.7969 69.9219 37.7969
Q67.875 37.7969 66.3125 36.9844
Q64.75 36.1875 63.6719 34.2812
Q62.5938 32.375 62.0625 29.1719
Q61.5312 25.9844 61.5312 21.1875
Q61.5312 16.5469 62.0781 13.4219
Q62.6406 10.2969 63.6875 8.375
Q64.75 6.45312 66.2812 5.60938
Q67.8281 4.78125 69.8281 4.78125
Q71.7344 4.78125 73.2656 5.60938
Q74.8125 6.45312 75.875 8.375
Q76.9531 10.2969 77.5312 13.4219
Q78.125 16.5469 78.125 21.1875
M27.3438 47.6094
Q27.3438 52.3906 26.7969 55.5625
Q26.2656 58.7344 25.2344 60.6406
Q24.2188 62.5469 22.7031 63.3281
Q21.1875 64.1094 19.2344 64.1094
Q17.1406 64.1094 15.5469 63.2969
Q13.9688 62.5 12.8906 60.5938
Q11.8125 58.6875 11.2812 55.5156
Q10.75 52.3438 10.75 47.6094
Q10.75 42.9688 11.2969 39.7969
Q11.8594 36.625 12.9062 34.6875
Q13.9688 32.7656 15.5312 31.9375
Q17.0938 31.1094 19.1406 31.1094
Q21 31.1094 22.5156 31.9375
Q24.0312 32.7656 25.0938 34.6875
Q26.1719 36.625 26.75 39.7969
Q27.3438 42.9688 27.3438 47.6094" id="LiberationSans-25"/>
      </defs>
      <g style="fill:#262626;" transform="translate(45.976 274.5059)scale(0.16 -0.16)">
       <use xlink:href="#LiberationSans-20"/>
       <use x="27.783203125" xlink:href="#LiberationSans-36"/>
       <use x="83.3984375" xlink:href="#LiberationSans-30"/>
       <use x="139.013671875" xlink:href="#LiberationSans-25"/>
      </g>
     </g>
    </g>
    <g id="ytick_2">
     <g id="line2d_22">
      <path clip-path="url(#p770529f32b)" d="
M88.8735 149.377
L544.858 149.377" style="fill:none;stroke:#ffffff;stroke-linecap:round;"/>
     </g>
     <g id="line2d_23">
      <g>
       <use style="fill:#262626;stroke:#262626;" x="88.8735" xlink:href="#m219da94a98" y="149.3772"/>
      </g>
     </g>
     <g id="line2d_24">
      <g>
       <use style="fill:#262626;stroke:#262626;" x="544.85775" xlink:href="#m219da94a98" y="149.3772"/>
      </g>
     </g>
     <g id="text_10">
      <!--  80% -->
      <defs>
       <path d="
M51.2656 19.1875
Q51.2656 14.7969 49.875 11.1094
Q48.4844 7.42188 45.625 4.73438
Q42.7812 2.04688 38.3281 0.53125
Q33.8906 -0.984375 27.8281 -0.984375
Q21.7812 -0.984375 17.3594 0.53125
Q12.9375 2.04688 10.0312 4.70312
Q7.125 7.375 5.73438 11.0625
Q4.34375 14.75 4.34375 19.0938
Q4.34375 22.8594 5.48438 25.7812
Q6.64062 28.7188 8.5625 30.8281
Q10.5 32.9531 12.9688 34.25
Q15.4375 35.5469 18.0625 35.9844
L18.0625 36.1875
Q15.1875 36.8594 12.9062 38.375
Q10.6406 39.8906 9.09375 42.0156
Q7.5625 44.1406 6.75 46.7188
Q5.95312 49.3125 5.95312 52.2031
Q5.95312 55.8125 7.34375 59
Q8.73438 62.2031 11.4688 64.625
Q14.2031 67.0469 18.25 68.4375
Q22.3125 69.8281 27.6406 69.8281
Q33.25 69.8281 37.375 68.4062
Q41.5 67 44.2031 64.5781
Q46.9219 62.1562 48.2344 58.9375
Q49.5625 55.7188 49.5625 52.0938
Q49.5625 49.2656 48.75 46.6719
Q47.9531 44.0938 46.4062 41.9688
Q44.875 39.8438 42.5938 38.3438
Q40.3281 36.8594 37.3594 36.2812
L37.3594 36.0781
Q40.3281 35.5938 42.8594 34.2969
Q45.4062 33.0156 47.2656 30.8906
Q49.125 28.7656 50.1875 25.8281
Q51.2656 22.9062 51.2656 19.1875
M40.4375 51.6094
Q40.4375 54.2031 39.7656 56.3438
Q39.1094 58.5 37.5938 60.0312
Q36.0781 61.5781 33.6406 62.4219
Q31.2031 63.2812 27.6406 63.2812
Q24.1719 63.2812 21.7812 62.4219
Q19.3906 61.5781 17.8438 60.0312
Q16.3125 58.5 15.625 56.3438
Q14.9375 54.2031 14.9375 51.6094
Q14.9375 49.5625 15.4688 47.4062
Q16.0156 45.2656 17.4219 43.5
Q18.8438 41.75 21.3281 40.625
Q23.8281 39.5 27.7344 39.5
Q31.8906 39.5 34.4062 40.625
Q36.9219 41.75 38.25 43.5
Q39.5938 45.2656 40.0156 47.4062
Q40.4375 49.5625 40.4375 51.6094
M42.1406 20.0156
Q42.1406 22.5156 41.4531 24.8281
Q40.7656 27.1562 39.1094 28.9375
Q37.4531 30.7188 34.6406 31.8125
Q31.8438 32.9062 27.6406 32.9062
Q23.7812 32.9062 21.0625 31.8125
Q18.3594 30.7188 16.6719 28.9062
Q14.9844 27.0938 14.2031 24.7188
Q13.4219 22.3594 13.4219 19.8281
Q13.4219 16.6562 14.2031 14.0312
Q14.9844 11.4219 16.6875 9.54688
Q18.4062 7.67188 21.1875 6.64062
Q23.9688 5.60938 27.9375 5.60938
Q31.9375 5.60938 34.6719 6.64062
Q37.4062 7.67188 39.0625 9.54688
Q40.7188 11.4219 41.4219 14.0781
Q42.1406 16.75 42.1406 20.0156" id="LiberationSans-38"/>
      </defs>
      <g style="fill:#262626;" transform="translate(45.976 153.5147)scale(0.16 -0.16)">
       <use xlink:href="#LiberationSans-20"/>
       <use x="27.783203125" xlink:href="#LiberationSans-38"/>
       <use x="83.3984375" xlink:href="#LiberationSans-30"/>
       <use x="139.013671875" xlink:href="#LiberationSans-25"/>
      </g>
     </g>
    </g>
    <g id="ytick_3">
     <g id="line2d_25">
      <path clip-path="url(#p770529f32b)" d="
M88.8735 28.386
L544.858 28.386" style="fill:none;stroke:#ffffff;stroke-linecap:round;"/>
     </g>
     <g id="line2d_26">
      <g>
       <use style="fill:#262626;stroke:#262626;" x="88.8735" xlink:href="#m219da94a98" y="28.386"/>
      </g>
     </g>
     <g id="line2d_27">
      <g>
       <use style="fill:#262626;stroke:#262626;" x="544.85775" xlink:href="#m219da94a98" y="28.386"/>
      </g>
     </g>
     <g id="text_11">
      <!-- 100% -->
      <g style="fill:#262626;" transform="translate(42.7435 32.5235)scale(0.16 -0.16)">
       <use xlink:href="#LiberationSans-31"/>
       <use x="55.615234375" xlink:href="#LiberationSans-30"/>
       <use x="111.23046875" xlink:href="#LiberationSans-30"/>
       <use x="166.845703125" xlink:href="#LiberationSans-25"/>
      </g>
     </g>
    </g>
    <g id="ytick_4">
     <g id="line2d_28">
      <path clip-path="url(#p770529f32b)" d="
M88.8735 209.873
L544.858 209.873" style="fill:none;stroke:#ffffff;stroke-linecap:round;"/>
     </g>
     <g id="line2d_29">
      <defs>
       <path d="
M0 0
L0 0" id="m8735711441" style="stroke:#262626;stroke-width:0.5;"/>
      </defs>
      <g>
       <use style="fill:#262626;stroke:#262626;stroke-width:0.5;" x="88.8735" xlink:href="#m8735711441" y="209.8728"/>
      </g>
     </g>
     <g id="line2d_30">
      <g>
       <use style="fill:#262626;stroke:#262626;stroke-width:0.5;" x="544.85775" xlink:href="#m8735711441" y="209.8728"/>
      </g>
     </g>
    </g>
    <g id="ytick_5">
     <g id="line2d_31">
      <path clip-path="url(#p770529f32b)" d="
M88.8735 88.8816
L544.858 88.8816" style="fill:none;stroke:#ffffff;stroke-linecap:round;"/>
     </g>
     <g id="line2d_32">
      <g>
       <use style="fill:#262626;stroke:#262626;stroke-width:0.5;" x="88.8735" xlink:href="#m8735711441" y="88.8816"/>
      </g>
     </g>
     <g id="line2d_33">
      <g>
       <use style="fill:#262626;stroke:#262626;stroke-width:0.5;" x="544.85775" xlink:href="#m8735711441" y="88.8816"/>
      </g>
     </g>
    </g>
    <g id="text_12">
     <!-- Cumulative Frequency -->
     <defs>
      <path d="
M23.6406 -0.984375
Q13.5781 -0.984375 8.89062 5.79688
Q4.20312 12.5938 4.20312 26.1719
Q4.20312 39.9375 9 46.875
Q13.8125 53.8125 23.6406 53.8125
Q26.9062 53.8125 29.4219 53.2188
Q31.9375 52.6406 33.9062 51.4844
Q35.8906 50.3438 37.375 48.625
Q38.875 46.9219 40.0938 44.625
L40.1875 44.625
Q40.1875 45.8438 40.25 47.3281
Q40.3281 48.8281 40.4062 50.1406
Q40.4844 51.4688 40.5781 52.4219
Q40.6719 53.375 40.7656 53.5156
L49.2188 53.5156
Q49.125 52.6875 49 49.1719
Q48.875 45.6562 48.875 39.1094
L48.875 -20.75
L40.0938 -20.75
L40.0938 0.6875
Q40.0938 1.95312 40.1094 3.3125
Q40.1406 4.6875 40.1875 5.90625
Q40.2344 7.28125 40.2812 8.6875
L40.1875 8.6875
Q38.9219 6.20312 37.375 4.375
Q35.8438 2.54688 33.8438 1.34375
Q31.8438 0.140625 29.3281 -0.421875
Q26.8125 -0.984375 23.6406 -0.984375
M40.0938 27.0469
Q40.0938 32.8125 39.0938 36.7188
Q38.0938 40.625 36.25 42.9688
Q34.4219 45.3125 31.8125 46.3125
Q29.2031 47.3125 25.9844 47.3125
Q22.6094 47.3125 20.2188 46.0625
Q17.8281 44.8281 16.3281 42.2656
Q14.8438 39.7031 14.125 35.7656
Q13.4219 31.8438 13.4219 26.4688
Q13.4219 21.1875 14.0781 17.2812
Q14.75 13.375 16.2344 10.8281
Q17.7188 8.29688 20.0938 7.04688
Q22.4688 5.8125 25.875 5.8125
Q28.8125 5.8125 31.3906 6.71875
Q33.9844 7.625 35.9062 9.98438
Q37.8438 12.3594 38.9688 16.4844
Q40.0938 20.6094 40.0938 27.0469" id="LiberationSans-71"/>
      <path d="
M29.9375 0
L19.5312 0
L0.34375 52.8281
L9.71875 52.8281
L21.3438 18.4531
Q21.6875 17.3906 22.1406 15.8438
Q22.6094 14.3125 23.0938 12.6406
Q23.5781 10.9844 24 9.4375
Q24.4219 7.90625 24.7031 6.89062
Q25 7.90625 25.4531 9.4375
Q25.9219 10.9844 26.4062 12.5938
Q26.9062 14.2031 27.4219 15.7344
Q27.9375 17.2812 28.3281 18.3594
L40.3281 52.8281
L49.6562 52.8281
z
" id="LiberationSans-76"/>
      <path d="
M15.3281 52.8281
L15.3281 19.3438
Q15.3281 15.4844 15.8906 12.8906
Q16.4531 10.2969 17.7188 8.70312
Q19 7.125 21.0625 6.46875
Q23.1406 5.8125 26.2188 5.8125
Q29.3438 5.8125 31.8594 6.90625
Q34.375 8.01562 36.1562 10.0781
Q37.9375 12.1562 38.9062 15.2031
Q39.8906 18.2656 39.8906 22.2188
L39.8906 52.8281
L48.6875 52.8281
L48.6875 11.2812
Q48.6875 9.625 48.7031 7.78125
Q48.7344 5.95312 48.7812 4.3125
Q48.8281 2.6875 48.875 1.51562
Q48.9219 0.34375 48.9688 0
L40.6719 0
Q40.625 0.25 40.5781 1.3125
Q40.5312 2.39062 40.4531 3.78125
Q40.375 5.17188 40.3281 6.60938
Q40.2812 8.0625 40.2812 9.03125
L40.1406 9.03125
Q38.875 6.73438 37.3594 4.875
Q35.8438 3.03125 33.8438 1.73438
Q31.8438 0.4375 29.25 -0.265625
Q26.6562 -0.984375 23.25 -0.984375
Q18.8438 -0.984375 15.6719 0.09375
Q12.5 1.17188 10.4531 3.42188
Q8.40625 5.67188 7.45312 9.1875
Q6.5 12.7031 6.5 17.625
L6.5 52.8281
z
" id="LiberationSans-75"/>
      <path d="
M29.5 0
Q27.6406 -4.78125 25.7031 -8.60938
Q23.7812 -12.4531 21.3906 -15.1562
Q19 -17.875 16.0625 -19.3125
Q13.1406 -20.75 9.32812 -20.75
Q7.67188 -20.75 6.25 -20.6562
Q4.82812 -20.5625 3.26562 -20.2188
L3.26562 -13.625
Q4.20312 -13.7656 5.375 -13.8438
Q6.54688 -13.9219 7.375 -13.9219
Q11.2344 -13.9219 14.5469 -11.0312
Q17.875 -8.15625 20.3594 -1.85938
L21.1875 0.25
L0.25 52.8281
L9.625 52.8281
L20.75 23.6406
Q21.2344 22.3125 21.9844 20.1094
Q22.75 17.9219 23.5 15.7188
Q24.2656 13.5312 24.8438 11.7656
Q25.4375 10.0156 25.5312 9.57812
Q25.6875 10.1094 26.25 11.6875
Q26.8125 13.2812 27.5156 15.2344
Q28.2188 17.1875 28.9531 19.1875
Q29.6875 21.1875 30.1719 22.6562
L40.5312 52.8281
L49.8125 52.8281
z
" id="LiberationSans-79"/>
      <path d="
M37.5 0
L37.5 33.5
Q37.5 37.3594 37.0156 39.9375
Q36.5312 42.5312 35.375 44.1094
Q34.2344 45.7031 32.375 46.3594
Q30.5156 47.0156 27.8281 47.0156
Q25.0469 47.0156 22.7969 45.9219
Q20.5625 44.8281 18.9688 42.75
Q17.3906 40.6719 16.5312 37.625
Q15.6719 34.5781 15.6719 30.6094
L15.6719 0
L6.9375 0
L6.9375 41.5469
Q6.9375 43.2188 6.90625 45.0469
Q6.89062 46.875 6.82812 48.5
Q6.78125 50.1406 6.73438 51.3125
Q6.6875 52.4844 6.64062 52.8281
L14.9375 52.8281
Q14.9844 52.5938 15.0312 51.5156
Q15.0938 50.4375 15.1562 49.0469
Q15.2344 47.6562 15.2812 46.2188
Q15.3281 44.7812 15.3281 43.7969
L15.4844 43.7969
Q16.6562 46.0938 18.0156 47.9531
Q19.3906 49.8125 21.2188 51.0938
Q23.0469 52.3906 25.4062 53.0938
Q27.7812 53.8125 30.9062 53.8125
Q36.9219 53.8125 40.4062 51.4219
Q43.8906 49.0312 45.2656 43.7969
L45.4062 43.7969
Q46.5781 46.0938 48.0469 47.9531
Q49.5156 49.8125 51.4688 51.0938
Q53.4219 52.3906 55.8594 53.0938
Q58.2969 53.8125 61.4219 53.8125
Q65.4375 53.8125 68.3281 52.7344
Q71.2344 51.6562 73.0938 49.4062
Q74.9531 47.1719 75.8281 43.625
Q76.7031 40.0938 76.7031 35.2031
L76.7031 0
L68.0156 0
L68.0156 33.5
Q68.0156 37.3594 67.5312 39.9375
Q67.0469 42.5312 65.8906 44.1094
Q64.75 45.7031 62.8906 46.3594
Q61.0312 47.0156 58.3438 47.0156
Q55.5625 47.0156 53.3125 45.9688
Q51.0781 44.9219 49.4844 42.875
Q47.9062 40.8281 47.0469 37.75
Q46.1875 34.6719 46.1875 30.6094
L46.1875 0
z
" id="LiberationSans-6d"/>
      <path d="
M6.73438 0
L6.73438 72.4688
L15.5312 72.4688
L15.5312 0
z
" id="LiberationSans-6c"/>
      <path d="
M17.5312 61.1875
L17.5312 35.5938
L55.9062 35.5938
L55.9062 27.875
L17.5312 27.875
L17.5312 0
L8.20312 0
L8.20312 68.7969
L57.0781 68.7969
L57.0781 61.1875
z
" id="LiberationSans-46"/>
      <path d="
M38.6719 62.2031
Q32.8125 62.2031 28.2969 60.25
Q23.7812 58.2969 20.7188 54.6875
Q17.6719 51.0781 16.1094 46
Q14.5469 40.9219 14.5469 34.7188
Q14.5469 28.5156 16.2344 23.3594
Q17.9219 18.2188 21.0625 14.5
Q24.2188 10.7969 28.7812 8.73438
Q33.3438 6.6875 39.0625 6.6875
Q43.0625 6.6875 46.3594 7.73438
Q49.6562 8.79688 52.3125 10.6875
Q54.9844 12.5938 57.0781 15.2031
Q59.1875 17.8281 60.7969 21
L68.4062 17.1875
Q66.5469 13.3281 63.8125 10
Q61.0781 6.6875 57.3906 4.25
Q53.7188 1.8125 49.0469 0.40625
Q44.3906 -0.984375 38.625 -0.984375
Q30.2812 -0.984375 24 1.67188
Q17.7188 4.34375 13.5 9.10938
Q9.28125 13.875 7.17188 20.4062
Q5.07812 26.9531 5.07812 34.7188
Q5.07812 42.7812 7.29688 49.2656
Q9.51562 55.7656 13.7812 60.3281
Q18.0625 64.8906 24.3125 67.3594
Q30.5625 69.8281 38.5781 69.8281
Q49.5625 69.8281 56.9375 65.5312
Q64.3125 61.2344 67.7812 52.7812
L58.9375 49.8594
Q57.9531 52.2969 56.2969 54.5156
Q54.6406 56.7344 52.1406 58.4375
Q49.6562 60.1562 46.3125 61.1719
Q42.9688 62.2031 38.6719 62.2031" id="LiberationSans-43"/>
     </defs>
     <g style="fill:#262626;" transform="translate(34.0915 267.6415)rotate(-90.0)scale(0.176 -0.176)">
      <use xlink:href="#LiberationSans-43"/>
      <use x="72.216796875" xlink:href="#LiberationSans-75"/>
      <use x="127.83203125" xlink:href="#LiberationSans-6d"/>
      <use x="211.1328125" xlink:href="#LiberationSans-75"/>
      <use x="266.748046875" xlink:href="#LiberationSans-6c"/>
      <use x="288.96484375" xlink:href="#LiberationSans-61"/>
      <use x="344.580078125" xlink:href="#LiberationSans-74"/>
      <use x="372.36328125" xlink:href="#LiberationSans-69"/>
      <use x="394.580078125" xlink:href="#LiberationSans-76"/>
      <use x="444.580078125" xlink:href="#LiberationSans-65"/>
      <use x="500.1953125" xlink:href="#LiberationSans-20"/>
      <use x="527.978515625" xlink:href="#LiberationSans-46"/>
      <use x="589.0625" xlink:href="#LiberationSans-72"/>
      <use x="622.36328125" xlink:href="#LiberationSans-65"/>
      <use x="677.978515625" xlink:href="#LiberationSans-71"/>
      <use x="733.59375" xlink:href="#LiberationSans-75"/>
      <use x="789.208984375" xlink:href="#LiberationSans-65"/>
      <use x="844.82421875" xlink:href="#LiberationSans-6e"/>
      <use x="900.439453125" xlink:href="#LiberationSans-63"/>
      <use x="950.439453125" xlink:href="#LiberationSans-79"/>
     </g>
    </g>
   </g>
   <g id="line2d_34">
    <path clip-path="url(#p770529f32b)" d="
M88.8735 185.807
L89.005 182.155
L89.0371 181.869
L89.1686 181.162
L89.5611 180.151
L90.065 179.556
L90.2404 179.366
L90.3511 179.261
L90.552 179.096
L91.4547 178.438
L91.7191 178.278
L91.9652 178.111
L92.2622 177.927
L96.4934 175.278
L96.8785 175.047
L96.9893 174.966
L97.9924 174.212
L98.453 173.995
L99.9653 173.144
L101.166 172.468
L101.601 172.257
L101.712 172.097
L101.875 172.021
L102.171 171.87
L102.691 171.562
L102.796 171.485
L103.102 171.343
L103.315 171.241
L103.591 171.082
L103.696 171.021
L103.925 170.877
L104.438 170.651
L104.658 170.534
L104.964 170.386
L105.167 170.299
L106.702 169.378
L106.905 169.268
L107.168 169.101
L107.277 169.036
L107.589 168.863
L107.94 168.679
L108.32 168.48
L109.302 167.952
L109.922 167.663
L110.059 167.588
L110.534 167.356
L110.644 167.305
L110.932 167.128
L113.111 165.527
L113.222 165.41
L113.467 165.237
L113.584 165.161
L114.486 164.527
L114.594 164.427
L114.909 164.217
L115.239 163.958
L115.587 163.68
L116.823 162.719
L117.073 162.485
L119.595 160.211
L119.838 160.059
L119.953 159.979
L120.239 159.788
L123.708 157.052
L123.819 156.927
L124.056 156.699
L124.472 156.323
L124.718 156.123
L124.978 155.884
L125.11 155.747
L125.37 155.535
L125.481 155.46
L125.793 155.191
L126.132 154.918
L126.497 154.611
L126.678 154.457
L127.103 154.066
L127.283 153.918
L127.389 153.828
L127.544 153.699
L127.844 153.456
L127.988 153.321
L128.243 153.07
L129.035 152.409
L129.29 152.206
L129.537 151.973
L129.844 151.713
L130.165 151.453
L130.412 151.282
L130.543 151.105
L130.652 151.014
L130.946 150.798
L131.656 150.165
L131.862 150.019
L132.012 149.894
L132.263 149.709
L132.557 149.499
L132.834 149.321
L133.092 149.159
L134.308 148.35
L134.418 148.268
L136.213 147.063
L136.619 146.829
L137.79 146.172
L138.225 145.966
L138.336 145.899
L138.636 145.752
L138.822 145.65
L139.27 145.471
L139.375 145.433
L139.884 145.243
L140.065 145.185
L140.883 144.941
L141.255 144.85
L141.809 144.683
L142.129 144.582
L144.869 143.646
L145.445 143.491
L145.56 143.461
L146.365 143.253
L146.768 143.168
L147.493 143.015
L148.437 142.794
L148.545 142.757
L151.56 142.072
L151.908 141.98
L152.518 141.803
L152.624 141.767
L153.178 141.61
L153.414 141.548
L153.972 141.41
L154.112 141.367
L154.785 141.215
L154.909 141.183
L155.691 140.97
L156.194 140.821
L160.588 139.547
L160.829 139.466
L161.272 139.331
L161.73 139.153
L163.632 138.595
L164.145 138.447
L164.318 138.388
L164.862 138.227
L166.924 137.593
L167.611 137.378
L167.711 137.342
L168.286 137.19
L168.462 137.139
L171.445 136.22
L171.626 136.16
L172.38 135.956
L174.572 135.334
L175.188 135.193
L175.485 135.127
L176.597 134.868
L177.693 134.642
L178.2 134.533
L179.003 134.359
L179.104 134.333
L179.521 134.182
L179.628 134.164
L180.941 133.892
L181.234 133.825
L181.858 133.676
L182.031 133.627
L183.119 133.41
L183.274 133.384
L185.882 132.832
L186.054 132.786
L186.816 132.618
L189.406 131.922
L195.151 129.87
L195.361 129.768
L195.736 129.614
L195.847 129.554
L196.29 129.319
L196.578 129.105
L196.689 129.019
L197.298 128.476
L197.408 128.291
L197.656 128.059
L197.766 127.935
L197.899 127.713
L198.009 127.559
L198.168 127.366
L198.276 127.257
L198.386 127.103
L200.072 124.645
L200.183 124.407
L200.641 123.604
L200.752 123.404
L201.128 122.71
L201.238 122.469
L201.292 122.324
L201.403 122.058
L201.534 121.837
L201.644 121.635
L201.798 121.242
L201.909 121.02
L202.201 120.441
L202.312 120.2
L202.419 119.994
L202.895 119.166
L203.006 118.942
L203.182 118.519
L203.293 118.26
L203.409 118.048
L203.519 117.855
L203.612 117.707
L203.723 117.516
L204.345 116.492
L204.455 116.358
L204.766 116.015
L205.261 115.534
L205.454 115.384
L205.743 115.178
L206.101 114.967
L206.324 114.851
L206.701 114.634
L207.274 114.377
L207.795 114.22
L208.138 114.121
L209.706 113.707
L209.812 113.683
L212.853 113.058
L213.17 112.978
L213.97 112.794
L214.078 112.765
L217.38 112.096
L217.482 112.066
L218.106 111.932
L219.594 111.62
L219.704 111.561
L223.607 110.798
L225.333 110.532
L225.595 110.485
L228.163 110.059
L228.263 110.034
L229.352 109.878
L229.46 109.861
L233.699 109.158
L234.218 108.997
L234.32 108.954
L235.247 108.789
L235.518 108.712
L236.169 108.587
L236.327 108.557
L237.396 108.335
L237.505 108.311
L240.222 107.867
L240.331 107.841
L240.784 107.757
L241.722 107.548
L242.3 107.409
L243.086 107.216
L245.186 106.625
L247.494 106.068
L247.602 106.04
L248.356 105.866
L248.523 105.827
L250.772 105.281
L250.937 105.245
L251.209 105.195
L251.857 105.042
L256.702 103.293
L256.811 103.259
L257.75 102.826
L263.478 100.132
L263.671 100.053
L264.016 99.8831
L264.126 99.7837
L270.223 95.8084
L270.529 95.6507
L270.639 95.6036
L271.112 95.3619
L271.222 95.3045
L273.612 93.5606
L273.722 93.4275
L273.909 93.2626
L274.495 92.6584
L274.775 92.4116
L274.884 92.3082
L275.048 92.1361
L275.388 91.7736
L276.566 90.3666
L276.734 90.2294
L277.165 89.8341
L280.947 87.4183
L281.328 87.2197
L281.439 87.1623
L282.788 86.6841
L283.517 86.4742
L284.074 86.338
L284.179 86.3042
L284.735 86.1536
L289.367 84.9995
L290.118 84.7835
L290.712 84.6391
L290.869 84.6104
L291.891 84.3615
L291.987 84.3431
L292.502 84.209
L292.66 84.1793
L294.642 83.6847
L294.817 83.6365
L295.119 83.5648
L295.913 83.3344
L296.096 83.2638
L296.557 83.105
L296.665 83.0559
L297.822 82.6299
L297.928 82.5848
L298.293 82.424
L298.488 82.3421
L298.816 82.1865
L302.098 80.8327
L302.527 80.6729
L303.638 80.294
L304.268 80.0974
L304.446 80.0442
L304.874 79.8967
L305.056 79.8342
L307.239 79.1317
L307.425 79.0672
L308.466 78.7539
L308.577 78.7108
L308.958 78.5869
L320.097 74.9505
L320.917 74.7744
L321.074 74.7416
L321.877 74.5788
L322.674 74.4262
L324.094 74.1958
L324.334 74.163
L325.652 73.9675
L331.418 73.48
L333.949 73.2916
L346.826 72.3925
L347.053 72.372
L349.861 72.0504
L349.964 72.034
L350.902 71.8999
L365.576 69.3162
L365.879 69.2456
L366.721 68.9844
L367.333 68.8298
L367.443 68.797
L368.33 68.5195
L368.834 68.3096
L369.713 68.0341
L370.258 67.8744
L375.311 65.7239
L375.824 65.5549
L375.933 65.5109
L380.843 63.9738
L381.612 63.7464
L381.775 63.7075
L382.465 63.5498
L382.821 63.4433
L384.262 63.0746
L385.25 62.8145
L386.005 62.5954
L386.637 62.4418
L387.894 62.1346
L388.896 61.8724
L388.992 61.8519
L389.625 61.7075
L389.733 61.6768
L390.378 61.4863
L390.544 61.4454
L391.931 61.0992
L392.097 61.0573
L393.874 60.6456
L394.344 60.5555
L395.622 60.2278
L395.802 60.1684
L400.992 58.6548
L401.424 58.4951
L401.928 58.3077
L402.93 57.9226
L403.408 57.7301
L403.858 57.5632
L405.005 57.1925
L405.198 57.1177
L405.703 56.9447
L407.083 56.446
L407.91 56.1736
L408.108 56.0916
L409.492 55.6042
L409.666 55.554
L410.054 55.4178
L410.236 55.3533
L410.849 55.1782
L414.398 54.0988
L415.781 53.8009
L416.337 53.6698
L417.368 53.466
L419.216 53.083
L420.429 52.8546
L420.589 52.8208
L425.969 51.4988
L434.056 49.4343
L439.616 48.4737
L440.668 48.3273
L440.824 48.3027
L441.457 48.2065
L442.443 48.0529
L443.416 47.8829
L443.524 47.8665
L445.349 47.5695
L448.026 47.2009
L448.28 47.1578
L451.468 46.7605
L451.706 46.7308
L457.167 46.0939
L457.273 46.057
L460.905 45.675
L462.302 45.5337
L466.102 45.2459
L467.6 45.1169
L467.904 45.1005
L471.779 44.9029
L480.69 44.61
L510.146 43.4815
L510.363 43.4682
L517.602 43.162
L523.159 42.9132
L526.647 42.7606
L527.811 42.6746
L531.565 42.4267
L536.788 41.9956
L537.323 41.927
L538.554 41.7908
L543.667 41.0535
L543.776 41.0228
L544.86 40.8364
L544.86 40.8364" style="fill:none;stroke:#4c72b0;stroke-linecap:round;stroke-width:1.75;"/>
   </g>
   <g id="line2d_35">
    <path clip-path="url(#p770529f32b)" d="
M88.8735 171.598
L89.0695 169.16
L89.1788 168.543
L89.3355 167.632
L89.4497 167.309
L89.6007 166.927
L90.175 165.781
L90.3513 165.605
L90.6236 165.399
L90.7887 164.841
L90.9889 164.606
L91.069 164.312
L91.1736 164.019
L91.3433 163.813
L91.4239 163.637
L92.0069 162.55
L92.0964 162.373
L92.1528 162.285
L92.3663 162.138
L92.4659 161.815
L92.66 161.551
L92.776 161.404
L93.0716 161.081
L93.372 160.728
L93.4621 160.552
L93.5443 160.376
L93.6302 160.288
L93.8138 160.111
L93.8832 159.935
L94.0193 159.73
L94.3931 159.495
L94.4971 159.436
L94.5687 159.23
L94.7663 158.555
L94.8435 158.349
L95.3432 157.556
L95.5863 157.262
L95.6677 157.144
L95.7862 156.909
L95.9382 156.586
L96.151 156.292
L96.2506 156.057
L96.4527 155.646
L96.7373 155.352
L97.1734 154.912
L97.2901 154.794
L97.5038 154.618
L97.5941 154.383
L100.93 151.445
L101.213 151.24
L101.972 150.77
L102.197 150.476
L102.358 150.212
L102.583 149.918
L102.799 149.741
L102.927 149.477
L103.068 149.183
L103.254 149.036
L103.428 148.772
L104.1 148.214
L104.175 148.096
L104.328 147.949
L104.642 147.479
L104.929 147.274
L105.527 146.363
L105.623 146.128
L106.001 145.834
L106.205 145.599
L106.334 145.364
L106.463 145.217
L106.744 145.012
L106.865 144.865
L107.178 144.718
L107.285 144.454
L107.411 144.307
L107.77 144.042
L108.252 143.69
L108.76 143.337
L109.502 143.044
L110.04 142.867
L110.202 142.662
L112.72 141.398
L112.831 141.34
L112.841 141.31
L113.084 141.163
L113.192 141.075
L113.538 140.928
L113.631 140.84
L115.92 138.725
L115.992 138.666
L116.472 138.49
L118.02 137.697
L118.77 137.051
L119.106 136.874
L119.11 136.845
L119.379 136.698
L119.517 136.522
L120.589 136.081
L120.681 135.993
L121.05 135.846
L121.233 135.729
L123.926 134.612
L124.584 134.407
L125.082 134.172
L125.206 134.084
L125.554 133.937
L125.754 133.731
L126.245 133.525
L127.39 132.909
L127.518 132.791
L127.762 132.644
L128.018 132.468
L128.183 132.233
L129.399 131.469
L129.692 131.293
L129.854 131.058
L130.343 130.823
L130.577 130.676
L131.917 130.088
L132.63 129.942
L132.646 129.883
L134.174 129.383
L134.285 129.266
L134.895 129.001
L135.441 128.708
L135.444 128.678
L135.683 128.531
L135.854 128.238
L136.337 128.003
L137.266 127.474
L137.361 127.386
L137.619 127.209
L137.635 127.18
L137.923 127.033
L137.95 126.974
L138.381 126.798
L138.871 126.593
L138.989 126.416
L139.292 126.269
L139.679 126.123
L140.381 125.741
L140.91 125.594
L141.007 125.535
L141.177 125.447
L142.181 124.771
L143.126 124.389
L143.193 124.301
L143.955 124.096
L144.257 123.919
L144.419 123.831
L146.016 123.214
L146.107 123.097
L146.425 122.95
L146.622 122.803
L147.041 122.509
L147.784 121.98
L148.495 121.834
L148.531 121.804
L149.114 121.628
L149.287 121.51
L150.089 121.364
L150.09 121.334
L151.973 120.923
L152.082 120.835
L152.567 120.688
L152.58 120.658
L153.23 120.423
L154.785 119.601
L160.08 117.104
L161.424 116.928
L162.159 116.634
L162.969 116.458
L165.18 115.899
L165.463 115.811
L166.801 115.576
L167.472 115.459
L168.994 115.283
L170.81 114.695
L172.088 114.489
L172.262 114.313
L172.43 113.931
L172.473 113.814
L172.713 113.608
L172.761 113.549
L173.005 113.402
L173.119 113.197
L173.922 112.903
L175.254 112.756
L175.316 112.727
L176.014 112.58
L177.533 112.198
L177.609 112.139
L184.123 110.612
L184.224 110.553
L185.081 110.23
L185.241 110.112
L185.389 109.965
L186.855 109.789
L186.952 109.73
L187.554 109.554
L187.6 109.525
L188.029 109.378
L192.545 108.35
L193.029 108.203
L193.505 108.026
L194.598 107.615
L194.598 107.498
L195.868 107.145
L197.207 106.91
L198.779 106.587
L198.919 106.499
L204.085 105.529
L204.09 105.5
L204.87 105.324
L204.999 105.265
L205.549 105.118
L205.66 105.001
L206.025 104.883
L207.638 104.707
L207.638 104.677
L208.572 104.501
L208.711 104.384
L213.854 103.884
L216.796 103.532
L216.88 103.385
L216.975 103.238
L218.611 102.974
L222.773 102.562
L223.173 102.474
L225.03 102.327
L225.069 102.298
L233.054 101.534
L233.338 101.446
L238.743 100.242
L239.672 99.5953
L239.756 99.4484
L240.228 99.1253
L240.621 98.7728
L240.855 98.5965
L241.147 98.4202
L241.707 98.2146
L241.729 98.1852
L242.289 97.9796
L243.351 97.2745
L247.331 96.1876
L247.342 96.1582
L250.363 95.6001
L251.637 95.4238
L252.144 95.2769
L255.532 94.8656
L256.103 94.7481
L257.322 94.5425
L257.818 94.2781
L261.236 94.0137
L266.197 93.3968
L268.198 93.2206
L268.233 93.1618
L270.731 92.9562
L275.873 92.3392
L277.434 92.1924
L278.365 92.0749
L279.593 91.8986
L284.876 90.9585
L285.484 90.841
L286.879 90.6648
L288.319 90.5179
L292.665 90.0479
L293.33 89.9597
L298.596 89.5485
L298.597 89.4603
L305.879 88.814
L309.796 88.6084
L318.632 87.8152
L322.065 87.4627
L324.399 87.2864
L326.206 87.1102
L326.681 86.9633
L327.313 86.787
L328.521 86.6402
L330.357 86.3758
L330.412 86.317
L331.338 86.1407
L331.593 85.9645
L333.143 85.5826
L334.251 85.377
L342.885 85.0832
L348.264 84.9069
L348.403 84.8775
L354.737 84.5544
L360.497 84.29
L368.133 84.055
L375.815 83.8787
L382.723 83.7025
L382.958 83.6731
L391.071 83.4381
L392.855 83.35
L393.894 83.2031
L394.001 83.1737
L399.251 82.8799
L399.438 82.8212
L400.748 82.733
L439.721 81.5286
L439.721 81.4992
L440.616 81.4698
L495.314 81.0586
L499.268 80.9998
L519.868 80.8529
L526.516 80.5592
L546.785 80.0598
L546.785 80.0598" style="fill:none;stroke:#55a868;stroke-linecap:round;stroke-width:1.75;"/>
   </g>
   <g id="line2d_36">
    <path clip-path="url(#p770529f32b)" d="
M88.8735 234.892
L89.0207 231.345
L89.4765 228.953
L89.5686 228.622
L89.6926 228.311
L89.7724 228.091
L90.0588 227.398
L90.41 226.751
L90.5319 226.553
L90.7199 226.191
L90.8131 226.048
L92.6124 223.944
L92.9913 223.597
L93.1207 223.447
L93.5795 222.954
L93.7011 222.823
L94.3582 222.092
L94.4677 221.93
L94.6496 221.773
L94.8983 221.18
L95.0132 220.986
L95.1682 220.781
L95.3128 220.569
L95.6792 220.168
L95.7901 220.046
L96.0864 219.785
L96.3249 219.572
L96.8631 218.961
L96.987 218.821
L97.0979 218.684
L97.529 218.259
L97.6513 218.116
L98.1798 217.322
L98.298 217.164
L98.4089 217.003
L98.5259 216.816
L98.8915 216.239
L99.0017 216.056
L99.1808 215.774
L99.3566 215.446
L100.73 213.078
L100.982 212.339
L101.093 211.71
L101.308 210.89
L101.354 210.737
L101.412 210.533
L101.541 210.255
L101.837 209.54
L101.92 209.354
L102.068 209.07
L102.187 208.81
L102.475 207.422
L102.744 206.793
L102.966 206.218
L103.058 205.998
L103.169 205.752
L103.426 205.232
L103.537 205.068
L103.848 204.563
L103.974 204.323
L104.085 203.992
L104.227 203.697
L104.338 203.492
L104.605 202.995
L104.715 202.795
L105.248 202.117
L105.358 201.961
L105.556 201.665
L105.771 201.356
L107.668 198.575
L107.777 198.431
L107.893 198.243
L108.219 197.766
L109.044 196.676
L109.151 196.537
L109.355 196.261
L110.211 195.121
L110.377 194.925
L110.488 194.769
L110.648 194.563
L110.756 194.422
L110.825 194.285
L112.477 191.481
L112.588 191.138
L112.703 190.907
L112.813 190.614
L112.972 190.303
L113.095 190.092
L113.166 189.951
L113.385 189.531
L113.49 189.357
L113.653 189.082
L113.735 188.942
L113.846 188.711
L115.941 183.532
L117.063 181.973
L117.348 181.644
L117.468 181.498
L117.917 181.024
L118.028 180.873
L118.245 180.63
L118.382 180.492
L118.618 180.253
L121.332 177.039
L121.441 176.905
L121.638 176.702
L121.808 176.526
L122.009 176.281
L122.269 175.969
L122.427 175.79
L122.568 175.639
L122.788 175.388
L122.931 175.232
L123.48 174.66
L123.623 174.498
L123.817 174.263
L124.233 173.757
L124.379 173.615
L124.77 173.206
L125.12 172.832
L125.231 172.736
L125.763 172.105
L125.936 171.9
L126.045 171.738
L126.192 171.545
L126.432 171.156
L126.564 170.979
L126.675 170.791
L126.98 170.379
L127.19 170.122
L127.605 169.587
L127.736 169.437
L129.073 167.994
L129.235 167.823
L130.16 166.694
L130.445 166.365
L130.581 166.178
L130.88 165.786
L131.063 165.575
L132.143 164.095
L132.33 163.798
L132.407 163.657
L132.496 163.496
L133.056 162.51
L133.14 162.368
L133.264 162.167
L133.497 161.854
L133.667 161.546
L133.794 161.351
L134.854 159.478
L134.965 159.263
L136.261 156.618
L136.336 156.474
L137.727 153.621
L137.889 153.353
L138 153.157
L139.635 150.077
L139.745 149.783
L140.165 149.051
L140.275 148.828
L140.343 148.665
L140.471 148.407
L142.438 144.257
L142.568 144.077
L142.768 143.739
L142.891 143.54
L143.014 143.345
L143.112 143.12
L143.222 142.866
L143.327 142.696
L143.436 142.532
L143.565 142.321
L143.719 142.1
L144.17 141.38
L144.695 140.313
L144.795 140.148
L144.963 139.852
L145.077 139.683
L145.188 139.515
L145.655 138.982
L145.797 138.84
L146.005 138.604
L146.314 138.27
L148.16 136.211
L149.178 135.38
L149.68 134.947
L149.986 134.753
L150.097 134.624
L150.651 134.202
L150.948 134.011
L151.128 133.873
L151.406 133.715
L151.548 133.607
L151.843 133.422
L151.974 133.346
L152.489 133.019
L152.606 132.925
L152.898 132.721
L153.093 132.584
L153.203 132.508
L153.318 132.356
L156.774 129.859
L156.881 129.746
L157.111 129.583
L157.3 129.451
L157.528 129.282
L157.802 129.054
L158.088 128.85
L158.988 128.153
L159.47 127.655
L159.628 127.507
L159.778 127.297
L159.915 127.134
L160.061 127.003
L160.64 126.408
L160.784 126.247
L160.983 126.07
L161.181 125.832
L161.292 125.666
L161.591 125.328
L161.709 125.192
L161.937 124.918
L162.084 124.735
L162.224 124.563
L162.334 124.431
L162.531 124.162
L162.697 123.96
L162.923 123.616
L163.207 123.251
L163.504 122.856
L163.611 122.704
L163.872 122.343
L164.024 122.143
L164.149 121.968
L165.625 119.854
L165.753 119.697
L166.006 119.44
L166.434 118.973
L166.685 118.717
L166.796 118.558
L167.005 118.324
L167.318 118.035
L167.52 117.868
L169.629 116.35
L169.949 116.165
L170.152 116.048
L170.503 115.866
L170.681 115.786
L170.905 115.651
L172.047 115.083
L172.154 115.038
L172.528 114.825
L173.458 114.214
L173.566 114.15
L173.935 113.886
L174.233 113.624
L174.478 113.371
L175.321 112.846
L175.631 112.69
L177.088 112.045
L177.374 111.914
L180.574 110.112
L180.802 109.959
L181.299 109.687
L181.409 109.63
L183.449 108.436
L183.56 108.366
L183.761 108.24
L184.013 108.107
L185.011 107.463
L185.365 107.28
L186.031 106.898
L186.795 106.478
L186.905 106.427
L187.565 106.103
L189.864 104.773
L190.099 104.609
L198.325 100.174
L198.435 100.101
L199.52 99.3885
L199.689 99.2571
L200.935 98.4791
L201.145 98.3549
L201.494 98.129
L201.604 98.0657
L201.904 97.8554
L202.015 97.7884
L203.43 96.8109
L203.648 96.6711
L203.874 96.517
L204.079 96.3688
L205.882 95.0913
L206.17 94.9133
L206.28 94.8261
L210.11 91.6749
L210.221 91.5757
L210.478 91.3761
L210.757 91.1479
L211.049 90.8946
L211.34 90.6615
L211.608 90.4464
L211.876 90.2457
L214.198 88.5524
L214.452 88.4221
L214.562 88.3648
L214.777 88.2094
L214.979 88.0983
L215.361 87.9107
L215.557 87.8079
L215.842 87.6669
L217.243 86.8077
L219.623 85.0762
L220.111 84.8336
L220.535 84.5838
L221.192 84.2062
L221.601 84.0007
L222.773 83.2192
L223.118 83.028
L223.299 82.9383
L223.521 82.7973
L223.738 82.6264
L223.941 82.5141
L224.476 82.2297
L225.131 81.7613
L230.691 77.249
L230.8 77.1116
L231.081 76.8821
L231.188 76.7758
L231.451 76.5774
L231.676 76.4304
L231.893 76.2679
L232.001 76.1938
L232.18 76.0504
L232.399 75.9118
L235.84 74.2329
L236.423 74.019
L236.757 73.8971
L237.296 73.7083
L237.457 73.6497
L237.903 73.492
L239.144 73.0522
L242.584 71.8178
L243.112 71.6302
L243.282 71.5573
L243.73 71.4043
L247.652 69.7433
L247.839 69.6501
L248.197 69.4816
L249.779 68.7407
L249.951 68.6726
L250.522 68.4085
L250.699 68.3189
L251.034 68.1814
L251.432 68.0094
L251.736 67.8731
L251.845 67.8074
L252.197 67.6401
L252.797 67.3079
L253.274 67.1119
L254.346 66.659
L254.674 66.5407
L255.669 66.1655
L255.832 66.1129
L263.799 63.7206
L264.398 63.5652
L264.649 63.5067
L267.648 62.804
L267.798 62.7741
L269.208 62.3846
L269.31 62.3523
L269.923 62.1719
L270.51 61.989
L271.447 61.7369
L272.207 61.5457
L279.067 59.5046
L279.81 59.3469
L280.853 59.0709
L281.502 58.8546
L282.143 58.6717
L282.348 58.5391
L282.836 58.4076
L283.551 58.2415
L284.268 58.0683
L285.319 57.7719
L286.946 57.4779
L287.639 57.325
L289.108 57.086
L289.33 57.0513
L290.886 56.6677
L290.993 56.6295
L291.62 56.4419
L291.768 56.4025
L292.872 56.2125
L295.868 55.7369
L297.146 55.5564
L301.348 55.0318
L304.819 54.5968
L306.623 54.377
L306.917 54.3447
L311.303 53.9049
L311.591 53.8739
L312.326 53.7329
L312.479 53.6958
L313.428 53.3971
L313.536 53.3529
L314.172 53.0971
L314.349 53.0183
L314.966 52.7984
L315.075 52.7398
L316.546 52.2786
L317.848 52.0862
L317.932 52.0742
L319.255 51.9141
L319.386 51.8986
L321.307 51.65
L322.131 51.5448
L324.056 51.3297
L326.653 51.0334
L328.306 50.8637
L328.421 50.8494
L329.429 50.7155
L329.897 50.6486
L335.002 50.0356
L335.338 50.0069
L336.914 49.8599
L342.748 49.1752
L344.325 48.9768
L346.074 48.7713
L351.206 48.2084
L352.739 48.0483
L352.863 48.0316
L354.162 47.9013
L354.31 47.8738
L357.948 47.4448
L358.637 47.3791
L360.075 47.2142
L362.196 46.9274
L362.305 46.9095
L363.311 46.7972
L366.58 46.3944
L369.86 46.0778
L369.99 46.0515
L371.439 45.8734
L378.182 45.1696
L379.541 44.9796
L393.379 43.4177
L395.007 43.1656
L396.492 42.9481
L405.041 42.163
L438.346 39.9571
L441.057 39.681
L442.091 39.5281
L442.352 39.4958
L443.707 39.3512
L444.158 39.3177
L445.564 39.1779
L447.181 39.0321
L450.15 38.8732
L454.775 38.6462
L457.999 38.5147
L458.264 38.4968
L461.6 38.2697
L462.621 38.1168
L465.495 37.9053
L511.673 36.2849
L517.774 36.1415
L522.848 36.0339
L529.919 35.8714
L531.041 35.8427
L544.914 35.5703
L544.914 35.5703" style="fill:none;stroke:#c44e52;stroke-linecap:round;stroke-width:1.75;"/>
   </g>
   <g id="line2d_37">
    <path clip-path="url(#p770529f32b)" d="
M88.8735 249.273
L89.019 239.36
L89.7138 231.049
L89.7455 230.696
L89.856 229.8
L89.9684 229.256
L90.0936 228.712
L91.0906 224.108
L91.1709 223.846
L91.2922 223.372
L91.3541 223.221
L91.6914 221.569
L91.9508 220.703
L92.0024 220.521
L92.3935 219.131
L92.4569 218.889
L92.6171 218.234
L93.3876 216.018
L93.4896 215.867
L93.6294 215.565
L93.7381 215.071
L93.9299 214.668
L94.0569 214.225
L94.1637 213.983
L94.2739 213.711
L94.3392 213.5
L94.4494 213.066
L94.6285 212.512
L95.1334 209.006
L95.2432 208.18
L95.3245 207.949
L95.4433 207.445
L96.3649 204.957
L96.4411 204.685
L96.5802 204.272
L96.6521 204.05
L96.8001 203.284
L96.8688 203.093
L97.1163 202.438
L97.2191 202.085
L97.4721 201.36
L97.5478 201.138
L97.8277 198.831
L97.8902 198.61
L98.0421 197.955
L98.1518 197.139
L98.4986 195.567
L98.5803 195.144
L98.7147 194.439
L98.851 193.784
L98.978 193.069
L99.2057 191.78
L99.3162 191.256
L99.4387 190.591
L99.5014 190.399
L99.6515 189.513
L99.8034 188.626
L100.016 187.115
L100.148 186.4
L100.365 185.322
L101.975 175.862
L102.061 175.55
L102.628 173.666
L102.739 172.759
L103.308 169.727
L103.615 168.76
L103.723 168.458
L103.861 168.014
L103.956 167.753
L104.08 167.37
L104.248 166.826
L104.354 166.513
L104.416 166.292
L104.568 165.919
L104.742 165.446
L104.915 164.952
L105.259 163.924
L105.504 163.159
L105.636 162.675
L105.829 162.091
L105.972 161.819
L106.082 161.496
L106.446 160.67
L106.566 160.328
L107.036 158.676
L107.198 157.991
L107.272 157.628
L108.001 154.827
L108.111 154.656
L108.219 154.263
L108.566 153.518
L108.74 152.802
L109.11 152.138
L109.236 151.936
L110.693 148.984
L110.809 148.743
L111.519 147.292
L111.685 147.01
L111.991 146.466
L112.1 146.244
L112.731 145.317
L113.151 144.582
L113.259 144.411
L114.652 142.033
L115.443 140.32
L115.589 140.048
L115.764 139.736
L115.882 139.525
L116.105 138.235
L116.447 137.772
L116.571 137.57
L116.701 137.419
L117.006 137.006
L117.743 135.717
L117.865 135.565
L118.053 135.112
L118.161 134.8
L118.663 133.581
L118.74 133.44
L118.854 133.188
L121.812 129.098
L121.959 128.927
L122.175 128.584
L122.318 128.312
L122.429 127.546
L122.995 126.579
L123.216 126.227
L125.343 123.265
L125.459 123.124
L125.565 123.013
L126.011 122.449
L126.316 121.975
L126.499 121.764
L126.583 121.683
L126.796 121.522
L128.459 119.9
L128.638 119.608
L129.066 119.205
L129.344 118.913
L129.492 118.772
L129.55 118.711
L129.666 118.58
L129.805 118.369
L130.983 117.13
L131.267 116.848
L131.687 116.223
L131.794 116.112
L132.015 115.891
L132.716 115.034
L132.903 114.883
L133.045 114.692
L133.487 114.389
L134.531 113.271
L134.611 113.1
L134.759 112.969
L134.883 112.828
L135.177 112.455
L135.283 112.324
L135.607 111.911
L135.619 111.74
L135.726 111.125
L135.849 110.964
L136.103 110.632
L136.281 110.45
L137.379 109.332
L140.26 106.461
L140.548 106.26
L140.74 106.068
L140.953 105.927
L141.146 105.726
L142.159 105.01
L142.263 104.92
L142.395 104.769
L143.001 104.295
L143.285 104.144
L143.747 103.922
L144.028 103.791
L144.151 103.681
L144.523 103.529
L144.811 103.368
L145.209 103.137
L145.383 103.026
L145.631 102.895
L145.786 102.764
L146.02 102.562
L146.471 102.2
L146.806 101.978
L147.573 101.545
L147.92 101.454
L148.37 101.293
L148.497 101.162
L148.838 100.87
L148.937 100.759
L149.096 100.608
L149.656 100.175
L149.87 100.014
L150.427 99.5905
L151.044 99.0767
L151.402 98.8954
L151.918 98.6637
L152.804 98.2909
L152.951 98.1499
L153.374 97.9282
L154.696 97.1525
L155.295 96.951
L155.546 96.7999
L155.853 96.538
L156.152 96.2055
L157.255 95.4802
L157.366 95.3895
L159.938 94.3015
L160.23 94.1605
L160.625 93.9489
L161.17 93.687
L161.787 93.415
L162.325 93.1027
L162.447 93.0322
L162.709 92.871
L162.822 92.7904
L165.559 91.2188
L165.793 91.0879
L166.219 90.7957
L166.555 90.564
L166.714 90.4129
L167.142 90.2114
L167.814 89.8286
L168.333 89.6372
L168.989 89.3047
L169.97 89.0529
L170.488 88.7809
L171.092 88.4988
L171.246 88.3577
L171.499 88.2268
L171.618 88.0857
L171.963 87.844
L172.192 87.713
L173.836 86.9776
L174.101 86.7559
L174.632 86.6149
L174.871 86.5444
L175.488 86.363
L176.853 86.0205
L176.996 85.9601
L177.639 85.7687
L178.264 85.3959
L178.989 85.1743
L179.21 85.0635
L181.373 84.3381
L181.586 84.2172
L182.159 84.0057
L182.571 83.8747
L182.985 83.7135
L183.356 83.6027
L184.81 83.1796
L184.845 83.1192
L185.297 82.958
L185.465 82.8673
L185.751 82.7061
L186.076 82.4744
L186.291 82.3233
L186.409 82.2226
L188.343 80.4797
L188.493 80.3185
L188.809 80.1271
L190.415 78.9686
L190.693 78.8275
L190.952 78.6361
L191.148 78.485
L191.454 78.2835
L191.845 78.0518
L192.348 77.81
L192.808 77.669
L192.937 77.6086
L193.225 77.4675
L193.703 77.2963
L194.453 77.0243
L194.586 76.9739
L194.884 76.8832
L195.546 76.6918
L195.594 76.6616
L195.999 76.5206
L196.558 76.309
L197.355 76.1277
L199.613 75.4728
L200.239 75.2311
L200.344 75.1908
L201.084 75.0296
L201.236 74.9691
L201.695 74.8583
L202.661 74.6971
L203.294 74.5259
L204.014 74.3244
L205.324 74.0121
L205.475 73.9617
L205.59 73.9416
L206.775 73.6293
L206.88 73.589
L207.818 73.3875
L208.178 73.317
L209.245 73.1155
L209.432 73.0852
L210.089 72.914
L211.038 72.6118
L212.109 72.4203
L213.03 72.2692
L213.613 72.1483
L214.173 71.9569
L214.829 71.836
L215.317 71.6446
L215.393 71.5338
L221.984 70.2443
L221.991 70.2342
L222.631 70.1033
L222.683 70.0529
L223.216 69.8917
L223.762 69.7205
L224.058 69.5895
L226.16 69.0959
L227.128 68.9447
L228.927 68.7433
L230.433 68.5821
L230.903 68.5015
L232.388 68.3302
L234.114 67.9474
L235.716 67.8064
L236.305 67.7056
L238.095 67.4941
L238.173 67.4638
L246.289 66.3658
L246.411 66.3053
L249.633 65.852
L250.922 65.7009
L250.923 65.6908
L254.739 65.3483
L254.822 65.3281
L255.803 65.2576
L257.941 65.1065
L258.623 64.9856
L260.903 64.764
L262.468 64.4617
L263.759 64.3207
L264.91 63.9782
L265.121 63.9177
L265.59 63.7767
L265.881 63.7465
L266.479 63.5752
L266.639 63.4946
L266.982 63.3334
L267.182 63.2427
L268.569 62.7189
L268.919 62.5476
L269.522 62.4167
L270.864 62.185
L270.867 62.1749
L271.477 62.0238
L271.644 61.9734
L272.09 61.8223
L272.512 61.7014
L277.86 60.8451
L280.404 60.5932
L285.384 60.16
L286.502 59.9989
L286.908 59.9787
L290.691 59.5959
L291.255 59.4851
L292.615 59.334
L292.616 59.3239
L294.364 59.1224
L294.468 59.1023
L298.667 58.8
L298.673 58.79
L300.782 58.528
L317.159 56.8557
L326.65 56.4628
L327.955 56.3822
L338.499 55.8785
L342.974 55.677
L344.409 55.5561
L371.757 54.8912
L376.837 54.7603
L380.659 54.5789
L389.527 54.186
L390.207 54.1558
L394.682 53.9745
L394.683 53.7327
L395.496 53.5715
L395.552 53.4909
L396.067 53.4708
L397.625 53.3297
L397.625 53.3197
L401.715 53.088
L401.745 53.0779
L404.865 52.9066
L404.867 52.8965
L407.736 52.7656
L412.327 52.6245
L423.662 52.3626
L426.981 52.0402
L428.561 51.9093
L430.004 51.7783
L432.028 51.7078
L446.131 51.4358
L461.967 51.2242
L461.977 51.2141
L470.288 50.9018
L471.604 50.8112
L475.565 50.6298
L481.558 50.3679
L503.21 49.834
L507.906 49.6829
L507.956 49.6728
L518.414 49.4512
L530.428 49.0986
L538.221 48.9676
L538.564 48.9475
L545.24 48.8467
L545.24 48.8467" style="fill:none;stroke:#8172b2;stroke-linecap:round;stroke-width:1.75;"/>
   </g>
   <g id="patch_3">
    <path d="
M88.8735 28.386
L544.858 28.386" style="fill:none;"/>
   </g>
   <g id="patch_4">
    <path d="
M544.858 330.864
L544.858 28.386" style="fill:none;"/>
   </g>
   <g id="patch_5">
    <path d="
M88.8735 330.864
L544.858 330.864" style="fill:none;"/>
   </g>
   <g id="patch_6">
    <path d="
M88.8735 330.864
L88.8735 28.386" style="fill:none;"/>
   </g>
   <g id="legend_1">
    <g id="line2d_38">
     <path d="
M414.935 238.799
L446.935 238.799" style="fill:none;stroke:#4c72b0;stroke-linecap:round;stroke-width:1.75;"/>
    </g>
    <g id="line2d_39"/>
    <g id="text_13">
     <!-- General -->
     <defs>
      <path d="
M5.03125 34.7188
Q5.03125 42.7812 7.20312 49.2656
Q9.375 55.7656 13.6875 60.3281
Q18.0156 64.8906 24.4062 67.3594
Q30.8125 69.8281 39.2656 69.8281
Q45.6094 69.8281 50.3906 68.7031
Q55.1719 67.5781 58.6875 65.4688
Q62.2031 63.375 64.6406 60.375
Q67.0938 57.375 68.7969 53.6094
L59.9062 50.9844
Q58.6406 53.5156 56.8594 55.5938
Q55.0781 57.6719 52.5312 59.125
Q50 60.5938 46.6562 61.3906
Q43.3125 62.2031 39.0156 62.2031
Q32.7656 62.2031 28.1406 60.25
Q23.5312 58.2969 20.5 54.6875
Q17.4844 51.0781 15.9844 46
Q14.5 40.9219 14.5 34.7188
Q14.5 28.5156 16.1094 23.3594
Q17.7188 18.2188 20.8906 14.4844
Q24.0781 10.75 28.7812 8.67188
Q33.5 6.59375 39.7031 6.59375
Q43.75 6.59375 47.1719 7.26562
Q50.5938 7.95312 53.3438 9.04688
Q56.1094 10.1562 58.2031 11.5
Q60.2969 12.8438 61.7188 14.2031
L61.7188 26.6094
L41.1562 26.6094
L41.1562 34.4219
L70.3125 34.4219
L70.3125 10.6875
Q68.0156 8.34375 64.9062 6.21875
Q61.8125 4.10938 57.9531 2.48438
Q54.1094 0.875 49.5156 -0.046875
Q44.9219 -0.984375 39.7031 -0.984375
Q31 -0.984375 24.5 1.67188
Q18.0156 4.34375 13.6875 9.10938
Q9.375 13.875 7.20312 20.4062
Q5.03125 26.9531 5.03125 34.7188" id="LiberationSans-47"/>
     </defs>
     <g style="fill:#262626;" transform="translate(459.73525 244.399)scale(0.16 -0.16)">
      <use xlink:href="#LiberationSans-47"/>
      <use x="77.783203125" xlink:href="#LiberationSans-65"/>
      <use x="133.3984375" xlink:href="#LiberationSans-6e"/>
      <use x="189.013671875" xlink:href="#LiberationSans-65"/>
      <use x="244.62890625" xlink:href="#LiberationSans-72"/>
      <use x="277.9296875" xlink:href="#LiberationSans-61"/>
      <use x="333.544921875" xlink:href="#LiberationSans-6c"/>
     </g>
    </g>
    <g id="line2d_40">
     <path d="
M414.935 261.714
L446.935 261.714" style="fill:none;stroke:#55a868;stroke-linecap:round;stroke-width:1.75;"/>
    </g>
    <g id="line2d_41"/>
    <g id="text_14">
     <!-- Archaea -->
     <defs>
      <path d="
M56.9844 0
L49.125 20.125
L17.7812 20.125
L9.85938 0
L0.203125 0
L28.2656 68.7969
L38.875 68.7969
L66.5 0
z

M37.5 50.0938
Q36.7188 52.0469 36 54.0469
Q35.2969 56.0625 34.7656 57.6875
Q34.2344 59.3281 33.8594 60.4219
Q33.5 61.5312 33.4531 61.7656
Q33.3438 61.5312 33 60.4062
Q32.6719 59.2812 32.1094 57.6094
Q31.5469 55.9531 30.8281 53.9531
Q30.125 51.9531 29.3906 50
L20.6094 27.3906
L46.3438 27.3906
z
" id="LiberationSans-41"/>
     </defs>
     <g style="fill:#262626;" transform="translate(459.73525 267.314)scale(0.16 -0.16)">
      <use xlink:href="#LiberationSans-41"/>
      <use x="66.69921875" xlink:href="#LiberationSans-72"/>
      <use x="100.0" xlink:href="#LiberationSans-63"/>
      <use x="150.0" xlink:href="#LiberationSans-68"/>
      <use x="205.615234375" xlink:href="#LiberationSans-61"/>
      <use x="261.23046875" xlink:href="#LiberationSans-65"/>
      <use x="316.845703125" xlink:href="#LiberationSans-61"/>
     </g>
    </g>
    <g id="line2d_42">
     <path d="
M414.935 284.629
L446.935 284.629" style="fill:none;stroke:#c44e52;stroke-linecap:round;stroke-width:1.75;"/>
    </g>
    <g id="line2d_43"/>
    <g id="text_15">
     <!-- Bacteria -->
     <g style="fill:#262626;" transform="translate(459.73525 290.229)scale(0.16 -0.16)">
      <use xlink:href="#LiberationSans-42"/>
      <use x="66.69921875" xlink:href="#LiberationSans-61"/>
      <use x="122.314453125" xlink:href="#LiberationSans-63"/>
      <use x="172.314453125" xlink:href="#LiberationSans-74"/>
      <use x="200.09765625" xlink:href="#LiberationSans-65"/>
      <use x="255.712890625" xlink:href="#LiberationSans-72"/>
      <use x="289.013671875" xlink:href="#LiberationSans-69"/>
      <use x="311.23046875" xlink:href="#LiberationSans-61"/>
     </g>
    </g>
    <g id="line2d_44">
     <path d="
M414.935 307.544
L446.935 307.544" style="fill:none;stroke:#8172b2;stroke-linecap:round;stroke-width:1.75;"/>
    </g>
    <g id="line2d_45"/>
    <g id="text_16">
     <!-- Eukaryota -->
     <defs>
      <path d="
M51.4219 26.4688
Q51.4219 12.5938 45.3125 5.79688
Q39.2031 -0.984375 27.5938 -0.984375
Q22.0781 -0.984375 17.7188 0.671875
Q13.375 2.34375 10.375 5.76562
Q7.375 9.1875 5.78125 14.3281
Q4.20312 19.4844 4.20312 26.4688
Q4.20312 53.8125 27.875 53.8125
Q34.0312 53.8125 38.5 52.0938
Q42.9688 50.3906 45.8281 46.9688
Q48.6875 43.5625 50.0469 38.4219
Q51.4219 33.2969 51.4219 26.4688
M42.1875 26.4688
Q42.1875 32.625 41.2344 36.625
Q40.2812 40.625 38.4531 43.0156
Q36.625 45.4062 33.9844 46.3594
Q31.3438 47.3125 28.0312 47.3125
Q24.6562 47.3125 21.9375 46.3125
Q19.2344 45.3125 17.3281 42.8906
Q15.4375 40.4844 14.4219 36.4688
Q13.4219 32.4688 13.4219 26.4688
Q13.4219 20.3125 14.5 16.2812
Q15.5781 12.25 17.4531 9.85938
Q19.3438 7.46875 21.9062 6.48438
Q24.4688 5.51562 27.4844 5.51562
Q30.8594 5.51562 33.5938 6.46875
Q36.3281 7.42188 38.2344 9.8125
Q40.1406 12.2031 41.1562 16.25
Q42.1875 20.3125 42.1875 26.4688" id="LiberationSans-6f"/>
      <path d="
M8.20312 0
L8.20312 68.7969
L60.4062 68.7969
L60.4062 61.1875
L17.5312 61.1875
L17.5312 39.1094
L57.4688 39.1094
L57.4688 31.5938
L17.5312 31.5938
L17.5312 7.625
L62.4062 7.625
L62.4062 0
z
" id="LiberationSans-45"/>
      <path d="
M39.8438 0
L21.9688 24.125
L15.5312 18.7969
L15.5312 0
L6.73438 0
L6.73438 72.4688
L15.5312 72.4688
L15.5312 27.2031
L38.7188 52.8281
L49.0312 52.8281
L27.5938 30.125
L50.1406 0
z
" id="LiberationSans-6b"/>
     </defs>
     <g style="fill:#262626;" transform="translate(459.73525 313.144)scale(0.16 -0.16)">
      <use xlink:href="#LiberationSans-45"/>
      <use x="66.69921875" xlink:href="#LiberationSans-75"/>
      <use x="122.314453125" xlink:href="#LiberationSans-6b"/>
      <use x="172.314453125" xlink:href="#LiberationSans-61"/>
      <use x="227.9296875" xlink:href="#LiberationSans-72"/>
      <use x="261.23046875" xlink:href="#LiberationSans-79"/>
      <use x="311.23046875" xlink:href="#LiberationSans-6f"/>
      <use x="366.845703125" xlink:href="#LiberationSans-74"/>
      <use x="394.62890625" xlink:href="#LiberationSans-61"/>
     </g>
    </g>
   </g>
  </g>
 </g>
 <defs>
  <clipPath id="p770529f32b">
   <rect height="302.478" width="455.98425" x="88.8735" y="28.386"/>
  </clipPath>
 </defs>
</svg>
